<?xml version="1.0" encoding="UTF-8"?>
<svg id="Layer_9" data-name="Layer 9" xmlns="http://www.w3.org/2000/svg" viewBox="0 0 568.86 375.08">
  <defs>
    <style>
      .cls-1 {
        fill: #c0ecf5;
      }

      .cls-2 {
        fill: #f7b5f2;
      }

      .cls-3 {
        fill: #fcf0ac;
      }

      .cls-4 {
        fill: #22ff8b;
      }

      .cls-5 {
        fill: #f9edaa;
      }

      .cls-6 {
        fill: #a3e2d1;
      }

      .cls-7 {
        fill: #f9c5f5;
      }

      .cls-8 {
        fill: #cdf9e1;
      }

      .cls-9 {
        fill: #8ff9be;
      }
    </style>
  </defs>
  <g>
    <ellipse class="cls-4" cx="67.02" cy="43.39" rx="1.88" ry="3.86"/>
    <g>
      <ellipse class="cls-4" cx="34.83" cy="56.57" rx="1.54" ry="3.34" transform="translate(-31.58 58.52) rotate(-60.06)"/>
      <ellipse class="cls-4" cx="43.72" cy="31.14" rx="2.51" ry="1.16" transform="translate(10.24 73.09) rotate(-86.87)"/>
    </g>
  </g>
  <g>
    <ellipse class="cls-8" cx="328.98" cy="47.34" rx="2.32" ry="1.07" transform="translate(78.92 266.29) rotate(-49.39)"/>
    <ellipse class="cls-8" cx="313.78" cy="45.48" rx="1.6" ry="3.47" transform="translate(14.15 149.16) rotate(-27.33)"/>
    <ellipse class="cls-8" cx="288.45" cy="42.78" rx="3.75" ry="1.73" transform="translate(206.82 322.72) rotate(-82.18)"/>
    <ellipse class="cls-8" cx="292.23" cy="58.73" rx="2.46" ry="1.14" transform="translate(213.13 346.11) rotate(-85.97)"/>
    <ellipse class="cls-8" cx="274.33" cy="47.05" rx="1.31" ry="2.83" transform="translate(4.17 114) rotate(-23.65)"/>
    <ellipse class="cls-8" cx="281.03" cy="90.17" rx="2.69" ry="1.24" transform="translate(184.99 369.25) rotate(-88.8)"/>
    <ellipse class="cls-8" cx="252.19" cy="44.08" rx="1.14" ry="2.48" transform="translate(3.04 102.96) rotate(-23.21)"/>
    <ellipse class="cls-8" cx="240.25" cy="51.23" rx="1.02" ry="2.2" transform="translate(-4.55 71.6) rotate(-16.79)"/>
    <ellipse class="cls-8" cx="228.6" cy="63.16" rx="3.28" ry="1.51" transform="translate(6.34 145.9) rotate(-35.86)"/>
    <ellipse class="cls-8" cx="233.92" cy="23.55" rx="2.16" ry="1" transform="translate(157.75 245.97) rotate(-76.84)"/>
    <ellipse class="cls-8" cx="205.57" cy="85" rx="1.54" ry="3.33" transform="translate(-3.27 161.63) rotate(-42.61)"/>
    <ellipse class="cls-8" cx="191.46" cy="69.77" rx="3.36" ry="1.55" transform="translate(-1.23 136.08) rotate(-39.01)"/>
    <ellipse class="cls-8" cx="183.69" cy="63.8" rx="1.57" ry="3.4" transform="translate(-3.61 11.53) rotate(-3.56)"/>
    <ellipse class="cls-8" cx="189" cy="25.79" rx="1.58" ry="3.43" transform="translate(47.02 153.19) rotate(-49.67)"/>
    <ellipse class="cls-8" cx="176.83" cy="15.3" rx="1.69" ry="3.65"/>
    <ellipse class="cls-8" cx="156.84" cy="53.35" rx="1.37" ry="2.96" transform="translate(33.6 164.07) rotate(-60.72)"/>
    <ellipse class="cls-8" cx="158.84" cy="41.11" rx="1.39" ry="3.01" transform="translate(-.76 79.19) rotate(-27.93)"/>
    <ellipse class="cls-8" cx="146.49" cy="14.83" rx="2.55" ry="1.18" transform="translate(100.25 154.62) rotate(-77.48)"/>
    <ellipse class="cls-8" cx="144.06" cy="43.76" rx="2.05" ry=".95" transform="translate(29.45 141.39) rotate(-57.32)"/>
    <ellipse class="cls-8" cx="134.48" cy="42.43" rx="2.88" ry="1.33" transform="translate(15.05 117.4) rotate(-49.63)"/>
    <ellipse class="cls-8" cx="153.69" cy="64.79" rx="3.41" ry="1.57" transform="translate(-7.16 108.9) rotate(-38.19)"/>
    <ellipse class="cls-8" cx="130.67" cy="52.51" rx="1" ry="2.17" transform="translate(16.62 135.13) rotate(-57.81)"/>
    <ellipse class="cls-8" cx="122.47" cy="54.68" rx="1.16" ry="2.51" transform="translate(-11.48 47.81) rotate(-21.13)"/>
  </g>
  <g>
    <ellipse class="cls-2" cx="567.28" cy="299.82" rx="1.7" ry="3.68" transform="translate(-10.27 579.34) rotate(-53.68)"/>
    <ellipse class="cls-2" cx="558.27" cy="276.17" rx="1" ry="2.17" transform="translate(-19.04 509.93) rotate(-48.36)"/>
    <ellipse class="cls-2" cx="536.8" cy="336.06" rx="1.16" ry="2.5" transform="translate(-96.49 341.85) rotate(-32.57)"/>
    <ellipse class="cls-2" cx="531.74" cy="320.2" rx=".92" ry="2" transform="translate(-83.39 237.22) rotate(-23.37)"/>
    <ellipse class="cls-2" cx="536.04" cy="276.08" rx="3.6" ry="1.66" transform="translate(-5.85 540.49) rotate(-53.26)"/>
    <ellipse class="cls-2" cx="515.62" cy="300.68" rx="1.31" ry="2.84" transform="translate(-80.6 328.83) rotate(-32.95)"/>
    <ellipse class="cls-2" cx="501.8" cy="318.27" rx="1.15" ry="2.5" transform="translate(-69.65 481.21) rotate(-48.3)"/>
    <ellipse class="cls-2" cx="493.67" cy="296.11" rx="2.22" ry="1.02" transform="translate(129.95 742.31) rotate(-81.77)"/>
    <ellipse class="cls-2" cx="505.13" cy="264.74" rx="1.18" ry="2.56" transform="translate(-44.56 416.69) rotate(-43.11)"/>
    <ellipse class="cls-2" cx="493.64" cy="261.73" rx="2.91" ry="1.34" transform="translate(72.84 629.31) rotate(-69.07)"/>
    <ellipse class="cls-2" cx="450.48" cy="292.86" rx="1.51" ry="3.26" transform="translate(-35.69 64.08) rotate(-7.83)"/>
    <ellipse class="cls-2" cx="476.9" cy="246.41" rx=".94" ry="2.04" transform="translate(43.23 562.76) rotate(-63.43)"/>
    <ellipse class="cls-2" cx="441.85" cy="274.38" rx="1.16" ry="2.52" transform="translate(5.52 557.47) rotate(-64.82)"/>
    <ellipse class="cls-2" cx="469.98" cy="220.83" rx="1.05" ry="2.28" transform="translate(82.44 566.47) rotate(-66.9)"/>
    <ellipse class="cls-2" cx="447.88" cy="225.33" rx="3.3" ry="1.52" transform="translate(25.91 496.09) rotate(-59.39)"/>
    <ellipse class="cls-2" cx="420.82" cy="253.72" rx="3.49" ry="1.61" transform="translate(-4.65 499.56) rotate(-61.11)"/>
    <ellipse class="cls-2" cx="423.38" cy="230.82" rx=".92" ry="1.99" transform="translate(-51.35 146.17) rotate(-18.49)"/>
    <ellipse class="cls-2" cx="426.15" cy="197.12" rx=".94" ry="2.03" transform="translate(-23.86 63.13) rotate(-8.24)"/>
    <ellipse class="cls-2" cx="407.38" cy="212.82" rx="1.05" ry="2.27" transform="translate(-44.32 127.87) rotate(-16.93)"/>
    <ellipse class="cls-2" cx="400.63" cy="215.02" rx="1.17" ry="2.54" transform="translate(-19.88 42.07) rotate(-5.87)"/>
    <ellipse class="cls-2" cx="390.5" cy="206.19" rx="1.53" ry="3.31" transform="translate(-40.58 110.4) rotate(-15.31)"/>
    <ellipse class="cls-2" cx="388.13" cy="240.82" rx="2.75" ry="1.27" transform="translate(24.03 516.63) rotate(-68.96)"/>
  </g>
  <g>
    <ellipse class="cls-3" cx="30.9" cy="276.18" rx="2.51" ry="1.16" transform="translate(-231.09 183.5) rotate(-64.13)"/>
    <ellipse class="cls-3" cx="10.14" cy="253.19" rx="1.25" ry="2.72" transform="translate(-90.56 20.67) rotate(-21.12)"/>
    <ellipse class="cls-3" cx="59.67" cy="251.03" rx="3.03" ry="1.4" transform="translate(-126.1 71.97) rotate(-32.68)"/>
    <ellipse class="cls-3" cx="81.66" cy="257.13" rx="3.11" ry="1.44" transform="translate(-188.05 250.47) rotate(-70.97)"/>
    <ellipse class="cls-3" cx="39.73" cy="218.86" rx="3.39" ry="1.56" transform="translate(-147.77 99.19) rotate(-47.16)"/>
    <ellipse class="cls-3" cx="61.44" cy="219.25" rx="1.03" ry="2.22" transform="translate(-151.76 139.32) rotate(-53.79)"/>
    <ellipse class="cls-3" cx="45.54" cy="192.15" rx="2.26" ry="1.04" transform="translate(-137.36 117.7) rotate(-54.52)"/>
    <ellipse class="cls-3" cx="50.49" cy="182.66" rx="1.28" ry="2.77" transform="translate(-69.49 35.97) rotate(-23.83)"/>
    <ellipse class="cls-3" cx="98.22" cy="211.83" rx="2.05" ry=".95" transform="translate(-134.12 188.6) rotate(-59.42)"/>
    <ellipse class="cls-3" cx="99.59" cy="203.4" rx="1.51" ry="3.28" transform="translate(-102.51 101.19) rotate(-37.08)"/>
    <ellipse class="cls-3" cx="97.49" cy="193.68" rx="1.42" ry="3.08" transform="translate(-91.83 87.98) rotate(-34.11)"/>
    <ellipse class="cls-3" cx="93.16" cy="176.65" rx="2.51" ry="1.16" transform="translate(-85.76 265.38) rotate(-88.57)"/>
    <ellipse class="cls-3" cx="90.23" cy="163.38" rx="3.21" ry="1.48" transform="translate(-83.54 95.27) rotate(-39.69)"/>
    <ellipse class="cls-3" cx="77.91" cy="147.89" rx="2.75" ry="1.27" transform="translate(-71.58 73.1) rotate(-35.64)"/>
    <ellipse class="cls-3" cx="106.81" cy="156.07" rx="3.66" ry="1.69" transform="translate(-53.51 256.4) rotate(-87.65)"/>
    <ellipse class="cls-3" cx="103.32" cy="140.04" rx="1.55" ry="3.37" transform="translate(-69.75 121.85) rotate(-47.58)"/>
    <ellipse class="cls-3" cx="107.14" cy="130.58" rx="1.09" ry="2.37" transform="translate(-38.04 44.25) rotate(-19.89)"/>
    <ellipse class="cls-3" cx="115.54" cy="105.06" rx="2.53" ry="1.17" transform="translate(-18.05 185.92) rotate(-73.46)"/>
    <ellipse class="cls-3" cx="159.7" cy="150.82" rx="3.14" ry="1.45" transform="translate(-18.5 279.26) rotate(-79.14)"/>
    <ellipse class="cls-3" cx="156.21" cy="106.45" rx="3.78" ry="1.75" transform="translate(37.16 253.29) rotate(-85.24)"/>
    <ellipse class="cls-3" cx="162.71" cy="97.16" rx="1.28" ry="2.78" transform="translate(-20.04 147.32) rotate(-46.19)"/>
    <ellipse class="cls-3" cx="179.03" cy="127.97" rx="1.19" ry="2.57" transform="translate(-33.95 183.34) rotate(-50.13)"/>
    <ellipse class="cls-3" cx="185.12" cy="124.49" rx="1.23" ry="2.66" transform="translate(-9.59 233.39) rotate(-63.14)"/>
    <ellipse class="cls-3" cx="198.7" cy="116.73" rx="1.46" ry="3.16" transform="translate(-2.56 4.47) rotate(-1.28)"/>
    <ellipse class="cls-3" cx="209.41" cy="96.45" rx="1.21" ry="2.63" transform="translate(-6.68 176.81) rotate(-45.13)"/>
    <ellipse class="cls-3" cx="221.24" cy="130.81" rx="1.26" ry="2.72" transform="translate(-28.53 70.22) rotate(-16.96)"/>
    <ellipse class="cls-3" cx="229.59" cy="104.54" rx="3.8" ry="1.76" transform="translate(54.01 285.68) rotate(-70.38)"/>
    <ellipse class="cls-3" cx="238.19" cy="106.43" rx="3.72" ry="1.72" transform="translate(107.52 332.23) rotate(-84.02)"/>
    <ellipse class="cls-3" cx="250.47" cy="92.36" rx="2.62" ry="1.21" transform="translate(103.2 315.02) rotate(-76.76)"/>
    <ellipse class="cls-3" cx="261.61" cy="127.63" rx="3.23" ry="1.49" transform="translate(-17.88 208.96) rotate(-42.23)"/>
    <ellipse class="cls-3" cx="276.24" cy="121.08" rx="1.49" ry="3.23" transform="translate(-22.85 82.2) rotate(-16.26)"/>
    <ellipse class="cls-3" cx="283.77" cy="140.58" rx="1.53" ry="3.32" transform="translate(27.57 326.73) rotate(-62.36)"/>
    <ellipse class="cls-3" cx="299.11" cy="94.55" rx="1.28" ry="2.77" transform="translate(94.76 332.56) rotate(-66.89)"/>
  </g>
  <g>
    <ellipse class="cls-1" cx="35.39" cy="190.98" rx="3.3" ry="1.52" transform="translate(-134.27 96.42) rotate(-50.37)"/>
    <ellipse class="cls-1" cx="28.99" cy="174.77" rx="1.47" ry="3.19" transform="translate(-108.01 62.45) rotate(-41.23)"/>
    <ellipse class="cls-1" cx="16.56" cy="159.77" rx="1.56" ry="3.37" transform="translate(-124.59 83.11) rotate(-55.58)"/>
    <ellipse class="cls-1" cx="37.06" cy="146.39" rx="2.96" ry="1.37" transform="translate(-92.76 69.25) rotate(-45.07)"/>
    <ellipse class="cls-1" cx="9.05" cy="136.29" rx="1.04" ry="2.25" transform="translate(-104.82 60.86) rotate(-52.68)"/>
    <ellipse class="cls-1" cx="29.93" cy="128.27" rx="1.39" ry="3.02" transform="translate(-97.55 95.14) rotate(-62.3)"/>
    <ellipse class="cls-1" cx="51.39" cy="112.19" rx="2.82" ry="1.3" transform="translate(-71.92 116.91) rotate(-67.58)"/>
    <ellipse class="cls-1" cx="33.23" cy="95.26" rx=".99" ry="2.15" transform="translate(-67.27 86.47) rotate(-65.77)"/>
    <ellipse class="cls-1" cx="37.75" cy="86.5" rx="3.26" ry="1.51" transform="translate(-53.08 60.84) rotate(-50.64)"/>
    <ellipse class="cls-1" cx="35.15" cy="64.01" rx="1.15" ry="2.49" transform="translate(-35.98 47.47) rotate(-48.14)"/>
    <ellipse class="cls-1" cx="57.85" cy="81" rx="2.64" ry="1.22" transform="translate(-40.65 95.36) rotate(-62.76)"/>
    <ellipse class="cls-1" cx="41.2" cy="27.36" rx="2.74" ry="1.27" transform="translate(.76 55.82) rotate(-68.73)"/>
    <ellipse class="cls-1" cx="78.23" cy="74.03" rx="1.36" ry="2.96" transform="translate(-20.86 116.24) rotate(-66.49)"/>
    <ellipse class="cls-1" cx="81.25" cy="52.95" rx="1.48" ry="3.21" transform="translate(-13.61 73.15) rotate(-45.11)"/>
    <ellipse class="cls-1" cx="86.4" cy="18.27" rx="2.12" ry=".98" transform="translate(27.47 84.04) rotate(-60.07)"/>
    <ellipse class="cls-1" cx="94.8" cy="9.33" rx="1.72" ry="3.73" transform="translate(3.03 34.87) rotate(-21.17)"/>
    <ellipse class="cls-1" cx="100.25" cy="3.83" rx="1.15" ry="2.49" transform="translate(32.03 77.38) rotate(-49.34)"/>
    <ellipse class="cls-1" cx="115.22" cy="62.52" rx="1.33" ry="2.88" transform="translate(-7.2 109.4) rotate(-49.44)"/>
    <ellipse class="cls-1" cx="130.97" cy="24.39" rx="1" ry="2.18" transform="translate(4.22 65.41) rotate(-28.48)"/>
    <ellipse class="cls-1" cx="139.52" cy="23.14" rx="2.48" ry="1.14" transform="translate(39.81 123.43) rotate(-54.58)"/>
    <ellipse class="cls-1" cx="151.74" cy="24.93" rx="1.48" ry="3.21" transform="translate(71.9 156.36) rotate(-68.05)"/>
    <ellipse class="cls-1" cx="153.18" cy="66.99" rx=".97" ry="2.09" transform="translate(-8.29 110.32) rotate(-38.64)"/>
    <ellipse class="cls-1" cx="174.75" cy="39.3" rx="1.17" ry="2.53" transform="translate(16.45 123.11) rotate(-40.57)"/>
    <ellipse class="cls-1" cx="181.31" cy="49.38" rx="2.31" ry="1.07" transform="translate(53.68 187.3) rotate(-62.45)"/>
    <ellipse class="cls-1" cx="203.06" cy="26.18" rx="1.58" ry="3.42" transform="translate(5.73 80.77) rotate(-22.81)"/>
    <ellipse class="cls-1" cx="218.86" cy="37.32" rx="1.51" ry="3.27" transform="translate(69.94 201.98) rotate(-57.55)"/>
    <ellipse class="cls-1" cx="204.97" cy="76.83" rx="1.69" ry="3.66" transform="translate(-13.71 86.67) rotate(-23.12)"/>
    <ellipse class="cls-1" cx="204.46" cy="105.81" rx="1.19" ry="2.58" transform="translate(14.77 236.26) rotate(-61.88)"/>
    <ellipse class="cls-1" cx="240.98" cy="55.95" rx="1.54" ry="3.34" transform="translate(14.4 155.27) rotate(-36.74)"/>
    <ellipse class="cls-1" cx="247.31" cy="75.32" rx="3.71" ry="1.71" transform="translate(.84 153.35) rotate(-34.51)"/>
    <ellipse class="cls-1" cx="244.8" cy="95.72" rx="1.46" ry="3.16" transform="translate(-16.63 68.45) rotate(-15.4)"/>
    <ellipse class="cls-1" cx="277.43" cy="67.48" rx="1.45" ry="3.15" transform="translate(-.1 134.57) rotate(-27.26)"/>
    <ellipse class="cls-1" cx="272.64" cy="87.04" rx="1.11" ry="2.4" transform="translate(45.37 260.99) rotate(-55.13)"/>
    <ellipse class="cls-1" cx="297.56" cy="86.05" rx="1.68" ry="3.64" transform="translate(98.88 323.69) rotate(-66.23)"/>
    <ellipse class="cls-1" cx="272.44" cy="123.32" rx="1.01" ry="2.19" transform="translate(-23.87 82.9) rotate(-16.59)"/>
    <ellipse class="cls-1" cx="272.67" cy="137.09" rx="2.45" ry="1.13" transform="translate(95.33 385.48) rotate(-81.17)"/>
    <ellipse class="cls-1" cx="289.76" cy="142.03" rx="2.64" ry="1.22" transform="translate(-26.63 205.48) rotate(-37.45)"/>
    <ellipse class="cls-1" cx="309.77" cy="162.19" rx="2.3" ry="1.06" transform="translate(-18.13 283.62) rotate(-47.96)"/>
    <ellipse class="cls-1" cx="305.43" cy="188.95" rx="2.2" ry="1.01" transform="translate(98.97 482.84) rotate(-86.65)"/>
    <ellipse class="cls-1" cx="277.2" cy="179.56" rx="2.89" ry="1.34" transform="translate(36.18 405.37) rotate(-76.07)"/>
    <ellipse class="cls-1" cx="268.79" cy="196.18" rx="2.45" ry="1.13" transform="translate(-53.88 277.53) rotate(-50.28)"/>
    <ellipse class="cls-1" cx="247.23" cy="173.28" rx="2.63" ry="1.22" transform="translate(-22.67 308.56) rotate(-61.65)"/>
    <ellipse class="cls-1" cx="261.5" cy="219.26" rx="1.45" ry="3.15" transform="translate(-74.36 279.75) rotate(-50.19)"/>
  </g>
  <g>
    <ellipse class="cls-6" cx="526.21" cy="13.28" rx="1.25" ry="2.7" transform="translate(9.98 116.12) rotate(-12.71)"/>
    <ellipse class="cls-6" cx="507.42" cy="32.22" rx="3.51" ry="1.62" transform="translate(236.47 462.46) rotate(-61.43)"/>
    <ellipse class="cls-6" cx="505.67" cy="53.96" rx="2.68" ry="1.24" transform="translate(205.56 464.51) rotate(-59.92)"/>
    <ellipse class="cls-6" cx="477.09" cy="58.95" rx="1.1" ry="2.38" transform="translate(53.69 286.61) rotate(-35.31)"/>
    <ellipse class="cls-6" cx="466.83" cy="59.42" rx="1.23" ry="2.67" transform="translate(70.1 312.53) rotate(-39.79)"/>
    <ellipse class="cls-6" cx="492.9" cy="84.02" rx="1.61" ry="3.49" transform="translate(17.09 237.69) rotate(-27.57)"/>
    <ellipse class="cls-6" cx="503" cy="120.99" rx="1.15" ry="2.49" transform="translate(-12.55 164.12) rotate(-18.31)"/>
    <ellipse class="cls-6" cx="463.38" cy="90.67" rx="2.73" ry="1.26" transform="translate(225.74 498.68) rotate(-70.85)"/>
    <ellipse class="cls-6" cx="465.61" cy="103.26" rx="3.65" ry="1.68" transform="translate(64.23 360.83) rotate(-45.19)"/>
    <ellipse class="cls-6" cx="458.21" cy="124.6" rx="1.14" ry="2.47" transform="translate(87.31 421.11) rotate(-53.85)"/>
    <ellipse class="cls-6" cx="432.71" cy="103.22" rx="3.56" ry="1.64" transform="translate(322.24 534.13) rotate(-89.04)"/>
    <ellipse class="cls-6" cx="434.46" cy="134.39" rx="2.8" ry="1.29" transform="translate(68.24 404.03) rotate(-53.55)"/>
    <ellipse class="cls-6" cx="425.99" cy="124.14" rx="1.2" ry="2.6" transform="translate(54.8 367.23) rotate(-49.47)"/>
    <ellipse class="cls-6" cx="428.65" cy="160.67" rx="1.49" ry="3.22" transform="translate(61.23 433.72) rotate(-57.17)"/>
    <ellipse class="cls-6" cx="422.16" cy="161.27" rx=".92" ry="2" transform="translate(-27.39 207.42) rotate(-26.77)"/>
    <ellipse class="cls-6" cx="407.91" cy="134.31" rx="3.12" ry="1.44" transform="translate(102.42 436.15) rotate(-62.88)"/>
    <ellipse class="cls-6" cx="407.56" cy="152.03" rx="3.54" ry="1.63" transform="translate(120.35 478.73) rotate(-69.14)"/>
    <ellipse class="cls-6" cx="394.08" cy="132.11" rx=".94" ry="2.05" transform="translate(-6.92 22.77) rotate(-3.28)"/>
    <ellipse class="cls-6" cx="391.94" cy="165.39" rx="3.38" ry="1.56" transform="translate(63.43 435.66) rotate(-62.32)"/>
    <ellipse class="cls-6" cx="367.48" cy="119.34" rx="3.23" ry="1.49" transform="translate(115.48 412.23) rotate(-67.28)"/>
    <ellipse class="cls-6" cx="358.32" cy="151.28" rx="1.17" ry="2.54" transform="translate(-30.1 131) rotate(-19.9)"/>
    <ellipse class="cls-6" cx="346.84" cy="170.58" rx="2.37" ry="1.09" transform="translate(-23.56 281.02) rotate(-42.79)"/>
    <ellipse class="cls-6" cx="332.25" cy="127.48" rx=".94" ry="2.05" transform="translate(51.31 345.92) rotate(-58.86)"/>
    <ellipse class="cls-6" cx="315.48" cy="178.11" rx=".95" ry="2.06" transform="translate(-10.84 335.47) rotate(-55.19)"/>
    <ellipse class="cls-6" cx="314.27" cy="129.14" rx="1.68" ry="3.64" transform="translate(-19.9 190.58) rotate(-32.76)"/>
    <ellipse class="cls-6" cx="299.39" cy="134.84" rx="1.5" ry="3.24" transform="translate(-7.77 18.78) rotate(-3.55)"/>
    <ellipse class="cls-6" cx="284.59" cy="178.49" rx="2.39" ry="1.1" transform="translate(-42.83 253.62) rotate(-45.02)"/>
    <ellipse class="cls-6" cx="270.79" cy="169.92" rx="3.49" ry="1.61" transform="translate(46.26 397.48) rotate(-77.49)"/>
    <ellipse class="cls-6" cx="260.54" cy="161.8" rx="3.66" ry="1.69" transform="translate(25.83 359.22) rotate(-71.91)"/>
    <ellipse class="cls-6" cx="253.7" cy="158.3" rx="1.55" ry="3.36" transform="translate(-33.16 242.79) rotate(-48.37)"/>
    <ellipse class="cls-6" cx="249.07" cy="168.11" rx="1.02" ry="2.22" transform="translate(-32.22 273.8) rotate(-54.61)"/>
    <ellipse class="cls-6" cx="235.57" cy="157.09" rx="3.42" ry="1.58" transform="translate(-44.64 197.75) rotate(-41.95)"/>
    <ellipse class="cls-6" cx="211.39" cy="118.01" rx="1.66" ry="3.6" transform="translate(-30.6 110.82) rotate(-27.47)"/>
    <ellipse class="cls-6" cx="207.78" cy="135.5" rx="2.88" ry="1.33" transform="translate(35.34 313.83) rotate(-79.07)"/>
    <ellipse class="cls-6" cx="200.25" cy="145.62" rx="1.6" ry="3.47" transform="translate(-20.39 33.27) rotate(-9.04)"/>
    <ellipse class="cls-6" cx="207.13" cy="167.76" rx="2.54" ry="1.17" transform="translate(-59.24 158.09) rotate(-36.93)"/>
    <ellipse class="cls-6" cx="213.31" cy="183.96" rx="1.47" ry="3.18" transform="translate(-47.43 290.53) rotate(-63.01)"/>
  </g>
  <g>
    <ellipse class="cls-9" cx="544.76" cy="88.44" rx="3.05" ry="1.41" transform="translate(96.65 410.6) rotate(-44.93)"/>
    <ellipse class="cls-9" cx="540.05" cy="105.31" rx="2.61" ry="1.2" transform="translate(384.72 633.15) rotate(-84.64)"/>
    <ellipse class="cls-9" cx="568.49" cy="119.2" rx="1.26" ry="2.72" transform="translate(64.26 407.54) rotate(-41.6)"/>
    <ellipse class="cls-9" cx="552.67" cy="128.73" rx="1.35" ry="2.93" transform="translate(-.37 1.58) rotate(-.16)"/>
    <ellipse class="cls-9" cx="533.91" cy="120.29" rx="3.27" ry="1.51" transform="translate(227.8 573.97) rotate(-68.69)"/>
    <ellipse class="cls-9" cx="562.8" cy="170.26" rx=".95" ry="2.05" transform="translate(190.42 625.3) rotate(-67.54)"/>
    <ellipse class="cls-9" cx="531.67" cy="151.59" rx="3.68" ry="1.7" transform="translate(330.54 666.56) rotate(-84.58)"/>
    <ellipse class="cls-9" cx="525.23" cy="149.22" rx="1.18" ry="2.57" transform="translate(-10.87 252.82) rotate(-26.8)"/>
    <ellipse class="cls-9" cx="518.5" cy="168.24" rx="1.62" ry="3.51" transform="translate(107.4 526.21) rotate(-59.03)"/>
    <ellipse class="cls-9" cx="512.4" cy="167.01" rx="3.73" ry="1.72" transform="translate(47.3 439.26) rotate(-48.4)"/>
    <ellipse class="cls-9" cx="505.88" cy="147.3" rx="2.24" ry="1.03" transform="translate(262.07 614.39) rotate(-78.67)"/>
    <ellipse class="cls-9" cx="479.43" cy="194.65" rx="2.43" ry="1.12" transform="translate(238.91 652.79) rotate(-84.4)"/>
    <ellipse class="cls-9" cx="476.02" cy="188.84" rx="3.59" ry="1.66" transform="translate(-14.71 335.26) rotate(-38.25)"/>
    <ellipse class="cls-9" cx="462.34" cy="188.68" rx="1.47" ry="3.19" transform="translate(-36.92 178.54) rotate(-21.04)"/>
    <ellipse class="cls-9" cx="479.49" cy="132.1" rx="3.61" ry="1.67" transform="translate(167.08 519.09) rotate(-66.49)"/>
    <ellipse class="cls-9" cx="465.87" cy="146.67" rx="3.36" ry="1.55" transform="translate(237.17 578.23) rotate(-79.56)"/>
    <ellipse class="cls-9" cx="465.64" cy="135.48" rx="3.6" ry="1.66" transform="translate(131.05 486.52) rotate(-62.6)"/>
    <ellipse class="cls-9" cx="454.34" cy="138.97" rx="1.68" ry="3.63" transform="translate(-6.18 22.11) rotate(-2.77)"/>
    <ellipse class="cls-9" cx="447.54" cy="127.54" rx="1.36" ry="2.94" transform="translate(58.72 383.23) rotate(-49.24)"/>
    <ellipse class="cls-9" cx="429.01" cy="139.11" rx="3.33" ry="1.54" transform="translate(137.58 483.31) rotate(-67.71)"/>
    <ellipse class="cls-9" cx="421.37" cy="127.77" rx="1.02" ry="2.21" transform="translate(33.11 335.46) rotate(-45.01)"/>
    <ellipse class="cls-9" cx="400.67" cy="127.09" rx="1.67" ry="3.62" transform="translate(126.4 445.63) rotate(-66.87)"/>
    <ellipse class="cls-9" cx="389.51" cy="126.89" rx="1.06" ry="2.29" transform="translate(-3.02 244.09) rotate(-34.67)"/>
    <ellipse class="cls-9" cx="402.33" cy="105.22" rx="1.22" ry="2.64" transform="translate(6.36 232.31) rotate(-32.45)"/>
    <ellipse class="cls-9" cx="401.38" cy="92.76" rx="2.06" ry=".95" transform="translate(20.82 250.5) rotate(-35.53)"/>
    <ellipse class="cls-9" cx="410.9" cy="70.66" rx="3.38" ry="1.56" transform="translate(96.44 344.43) rotate(-50.8)"/>
    <ellipse class="cls-9" cx="403.56" cy="60.48" rx="2.81" ry="1.29" transform="translate(299.53 455.07) rotate(-83.75)"/>
    <ellipse class="cls-9" cx="398.45" cy="52.32" rx="2.79" ry="1.29" transform="translate(297.11 441.21) rotate(-82.87)"/>
    <ellipse class="cls-9" cx="341.99" cy="84.78" rx="3.57" ry="1.65" transform="translate(11.55 207.06) rotate(-34.23)"/>
    <ellipse class="cls-9" cx="349.6" cy="57.82" rx="1.26" ry="2.74" transform="translate(7.21 149.11) rotate(-24.32)"/>
    <ellipse class="cls-9" cx="386.18" cy="23.58" rx="2.61" ry="1.2" transform="translate(71.94 249.28) rotate(-39.18)"/>
    <ellipse class="cls-9" cx="329.02" cy="46.85" rx="2.4" ry="1.11" transform="translate(148.39 325.81) rotate(-65.18)"/>
    <ellipse class="cls-9" cx="373.13" cy="15.36" rx=".96" ry="2.09" transform="translate(7.36 90.68) rotate(-13.99)"/>
    <ellipse class="cls-9" cx="338.63" cy="24.67" rx="1.45" ry="3.15" transform="translate(-.73 35.36) rotate(-5.97)"/>
    <ellipse class="cls-9" cx="320.07" cy="24.96" rx="1.18" ry="2.56" transform="translate(4.44 83.63) rotate(-14.99)"/>
  </g>
  <g>
    <ellipse class="cls-7" cx="278.55" cy="253.01" rx="2.23" ry="1.03" transform="translate(-61.61 413.91) rotate(-67.56)"/>
    <ellipse class="cls-7" cx="263.66" cy="231.09" rx="2.66" ry="1.23" transform="translate(-48.45 390.8) rotate(-68.33)"/>
    <ellipse class="cls-7" cx="253.98" cy="262.22" rx="1.32" ry="2.87" transform="translate(-99.93 351.75) rotate(-60.11)"/>
    <ellipse class="cls-7" cx="237.44" cy="278.29" rx="2.18" ry="1.01" transform="translate(-72.96 471.88) rotate(-81.48)"/>
    <ellipse class="cls-7" cx="225.9" cy="270.43" rx="2.48" ry="1.15" transform="translate(-78.24 448.37) rotate(-80.46)"/>
    <ellipse class="cls-7" cx="212.96" cy="281.83" rx="1.04" ry="2.25" transform="translate(-126.1 182.72) rotate(-36.63)"/>
    <ellipse class="cls-7" cx="204.67" cy="281.16" rx="2.82" ry="1.3" transform="translate(-134.83 356.55) rotate(-66.47)"/>
    <ellipse class="cls-7" cx="197.28" cy="260.38" rx="3.59" ry="1.66" transform="translate(-117.89 174.44) rotate(-37.6)"/>
    <ellipse class="cls-7" cx="187.93" cy="244.3" rx="2.15" ry=".99" transform="translate(-112.88 177.09) rotate(-39.83)"/>
    <ellipse class="cls-7" cx="167.79" cy="267.93" rx="1.43" ry="3.1" transform="translate(-28.45 20.08) rotate(-6.31)"/>
    <ellipse class="cls-7" cx="155.46" cy="268.44" rx="3.05" ry="1.41" transform="translate(-130.95 149.28) rotate(-37.33)"/>
    <ellipse class="cls-7" cx="162.34" cy="241.28" rx="2.82" ry="1.3" transform="translate(-115 153.8) rotate(-38.56)"/>
    <ellipse class="cls-7" cx="170.78" cy="211.46" rx="2.41" ry="1.11" transform="translate(-89.8 288.81) rotate(-67.61)"/>
    <ellipse class="cls-7" cx="151.25" cy="220.84" rx="1.27" ry="2.76" transform="translate(-114.79 191.41) rotate(-49.28)"/>
    <ellipse class="cls-7" cx="140.09" cy="224.43" rx="1.02" ry="2.22" transform="translate(-60.25 51.64) rotate(-17.25)"/>
    <ellipse class="cls-7" cx="117.51" cy="221.19" rx="3.45" ry="1.59" transform="translate(-132.76 231.11) rotate(-64.29)"/>
    <ellipse class="cls-7" cx="160.76" cy="191.04" rx="1.76" ry="3.8" transform="translate(-44.01 48.18) rotate(-15.02)"/>
    <ellipse class="cls-7" cx="148.71" cy="183.6" rx="1.21" ry="2.61" transform="translate(-76.04 110.71) rotate(-33.03)"/>
    <ellipse class="cls-7" cx="110.32" cy="183.3" rx=".97" ry="2.11" transform="translate(-101.64 154.27) rotate(-51.16)"/>
    <ellipse class="cls-7" cx="137.07" cy="165.05" rx="1.19" ry="2.58" transform="translate(-46.08 53.32) rotate(-18.91)"/>
    <ellipse class="cls-7" cx="116.79" cy="160.77" rx="1.35" ry="2.92" transform="translate(-65.08 80.7) rotate(-30.24)"/>
    <ellipse class="cls-7" cx="142.78" cy="152.56" rx="1.99" ry=".92" transform="translate(-48.28 237.16) rotate(-70.78)"/>
    <ellipse class="cls-7" cx="124.56" cy="144.49" rx="3.09" ry="1.42" transform="translate(-62.99 179.38) rotate(-59.78)"/>
    <ellipse class="cls-7" cx="133.31" cy="133.54" rx="3.59" ry="1.65" transform="translate(-12.17 253.71) rotate(-84.61)"/>
    <ellipse class="cls-7" cx="122.23" cy="125.94" rx="1.01" ry="2.19" transform="translate(-29.91 38.45) rotate(-15.95)"/>
    <ellipse class="cls-7" cx="135.17" cy="117.64" rx="1.51" ry="3.28" transform="translate(-43.8 126.54) rotate(-43.88)"/>
    <ellipse class="cls-7" cx="87.19" cy="102.78" rx="2.2" ry="1.02" transform="translate(-38.76 150.79) rotate(-70.56)"/>
    <ellipse class="cls-7" cx="112.68" cy="96.56" rx="1.16" ry="2.52" transform="translate(-35.43 87.33) rotate(-37.03)"/>
    <ellipse class="cls-7" cx="100.73" cy="88.97" rx="1.58" ry="3.43" transform="translate(-27.05 47.31) rotate(-23.4)"/>
  </g>
  <g>
    <ellipse class="cls-5" cx="412.96" cy="163.48" rx="1.73" ry="3.75" transform="translate(-16.98 52.05) rotate(-7.07)"/>
    <ellipse class="cls-5" cx="408.87" cy="168" rx="1.05" ry="2.26" transform="translate(-6.43 319.41) rotate(-42.37)"/>
    <ellipse class="cls-5" cx="383.46" cy="156.14" rx="1.64" ry="3.55" transform="translate(83.31 441.32) rotate(-65.69)"/>
    <ellipse class="cls-5" cx="367.95" cy="162.18" rx="2.23" ry="1.03" transform="translate(6.58 338.54) rotate(-49.8)"/>
    <ellipse class="cls-5" cx="386.01" cy="190.73" rx="1.13" ry="2.45" transform="translate(-31.79 86.68) rotate(-12.31)"/>
    <ellipse class="cls-5" cx="338.4" cy="164.07" rx="3.65" ry="1.68" transform="translate(151.53 490.43) rotate(-86.07)"/>
    <ellipse class="cls-5" cx="367.94" cy="208.07" rx=".92" ry="2" transform="translate(-49.35 275.49) rotate(-38.67)"/>
    <ellipse class="cls-5" cx="359.65" cy="210.04" rx="3.6" ry="1.66" transform="translate(130.14 557.59) rotate(-86.85)"/>
    <ellipse class="cls-5" cx="340.27" cy="202.93" rx="1.08" ry="2.34" transform="translate(-41.25 96.15) rotate(-15.18)"/>
    <ellipse class="cls-5" cx="335.49" cy="218.87" rx="2.81" ry="1.3" transform="translate(-42.42 351.7) rotate(-52.49)"/>
    <ellipse class="cls-5" cx="306.46" cy="191.01" rx=".99" ry="2.15" transform="translate(-10.83 18.58) rotate(-3.41)"/>
    <ellipse class="cls-5" cx="316.07" cy="214.01" rx=".95" ry="2.06" transform="translate(-16.87 400.68) rotate(-63.38)"/>
    <ellipse class="cls-5" cx="334.82" cy="254.48" rx="2.08" ry=".96" transform="translate(-85.38 271.8) rotate(-39.6)"/>
    <ellipse class="cls-5" cx="327.73" cy="263.5" rx="1.36" ry="2.95" transform="translate(-46 456.28) rotate(-66.09)"/>
    <ellipse class="cls-5" cx="309.8" cy="260.04" rx="1.22" ry="2.65" transform="translate(-53.08 438.69) rotate(-66.22)"/>
    <ellipse class="cls-5" cx="303.45" cy="269.46" rx="2.89" ry="1.33" transform="translate(-101.03 236.44) rotate(-36.94)"/>
    <ellipse class="cls-5" cx="283.06" cy="252.23" rx="3.53" ry="1.63" transform="translate(-95.61 233.47) rotate(-38.87)"/>
    <ellipse class="cls-5" cx="288.86" cy="272.11" rx="1.59" ry="3.45" transform="translate(-65.84 94.14) rotate(-16.64)"/>
    <ellipse class="cls-5" cx="294.55" cy="293.58" rx="3.51" ry="1.62" transform="translate(-61.19 508.97) rotate(-76.1)"/>
    <ellipse class="cls-5" cx="269.8" cy="277.84" rx=".95" ry="2.06" transform="translate(-99.68 393.92) rotate(-63.28)"/>
    <ellipse class="cls-5" cx="242.36" cy="254.83" rx="3.64" ry="1.68" transform="translate(-107.32 217.36) rotate(-40.32)"/>
    <ellipse class="cls-5" cx="253.42" cy="286.75" rx="3.76" ry="1.73" transform="translate(-56.65 511.04) rotate(-84.41)"/>
    <ellipse class="cls-5" cx="236.07" cy="284.97" rx="1.32" ry="2.85" transform="translate(-58.99 61.64) rotate(-13.24)"/>
    <ellipse class="cls-5" cx="242.66" cy="314.47" rx="1.1" ry="2.38" transform="translate(-147.98 386.38) rotate(-62.78)"/>
    <ellipse class="cls-5" cx="219.11" cy="298.55" rx="1.24" ry="2.68" transform="translate(-148.33 344.69) rotate(-60.88)"/>
    <ellipse class="cls-5" cx="207.2" cy="306.39" rx="1.66" ry="3.6" transform="translate(-160.17 263.43) rotate(-49.26)"/>
    <ellipse class="cls-5" cx="207.97" cy="318.99" rx="1.18" ry="2.56" transform="translate(-172.69 308.82) rotate(-55.37)"/>
    <ellipse class="cls-5" cx="176.34" cy="290.7" rx="1.74" ry="3.78" transform="translate(-66.32 52.55) rotate(-14.3)"/>
    <ellipse class="cls-5" cx="211.87" cy="351.27" rx="2.1" ry=".97" transform="translate(-194.65 406.26) rotate(-66.61)"/>
    <ellipse class="cls-5" cx="184.44" cy="331.3" rx=".96" ry="2.08" transform="translate(-8.48 4.87) rotate(-1.48)"/>
    <ellipse class="cls-5" cx="172.13" cy="324.22" rx="3.61" ry="1.67" transform="translate(-188.28 393.88) rotate(-72.97)"/>
    <ellipse class="cls-5" cx="167.68" cy="334.72" rx="3.5" ry="1.62" transform="translate(-160.8 155.12) rotate(-34.72)"/>
    <ellipse class="cls-5" cx="170.79" cy="357.15" rx="3.16" ry="1.46" transform="translate(-223.75 324.6) rotate(-59.73)"/>
    <ellipse class="cls-5" cx="136.19" cy="331.79" rx="1.44" ry="3.11" transform="translate(-219.33 284.48) rotate(-60.1)"/>
  </g>
</svg>