<?xml version="1.0" encoding="UTF-8"?>
<svg id="Layer_9" data-name="Layer 9" xmlns="http://www.w3.org/2000/svg" viewBox="0 0 568.86 570.1">
  <defs>
    <style>
      .cls-1 {
        fill: #c0ecf5;
      }

      .cls-2 {
        fill: #f4e04d;
      }

      .cls-3 {
        fill: #ff80f0;
      }

      .cls-4 {
        fill: #22ff8b;
      }

      .cls-5 {
        fill: #62dabf;
      }
    </style>
  </defs>
  <g>
    <ellipse class="cls-4" cx="42.17" cy="64.81" rx="3.52" ry="7.62"/>
    <ellipse class="cls-4" cx="-4.08" cy="109.71" rx="2.96" ry="6.42" transform="translate(-97.11 51.42) rotate(-60.06)"/>
  </g>
  <g>
    <ellipse class="cls-4" cx="508.94" cy="61.99" rx="3.08" ry="6.67" transform="translate(28.36 240.62) rotate(-27.33)"/>
    <ellipse class="cls-4" cx="463.77" cy="54.28" rx="7.21" ry="3.33" transform="translate(346.89 506.35) rotate(-82.18)"/>
    <ellipse class="cls-4" cx="469.83" cy="89.61" rx="4.73" ry="2.19" transform="translate(347.44 551.99) rotate(-85.97)"/>
    <ellipse class="cls-4" cx="434.85" cy="68.06" rx="2.51" ry="5.44" transform="translate(9.22 180.15) rotate(-23.65)"/>
    <ellipse class="cls-4" cx="450.2" cy="152.5" rx="5.17" ry="2.38" transform="translate(288.28 599.4) rotate(-88.8)"/>
    <ellipse class="cls-4" cx="393.82" cy="66.5" rx="2.2" ry="4.76" transform="translate(5.67 160.59) rotate(-23.21)"/>
    <ellipse class="cls-4" cx="370.15" cy="80.46" rx="1.95" ry="4.24" transform="translate(-7.46 110.38) rotate(-16.79)"/>
    <ellipse class="cls-4" cx="348.78" cy="105.14" rx="6.3" ry="2.91" transform="translate(4.52 224.26) rotate(-35.86)"/>
    <ellipse class="cls-4" cx="357.22" cy="28.78" rx="4.15" ry="1.91" transform="translate(247.9 370.07) rotate(-76.84)"/>
    <ellipse class="cls-4" cx="291.03" cy="140.35" rx="2.95" ry="6.4" transform="translate(-18.17 234.1) rotate(-42.61)"/>
    <ellipse class="cls-4" cx="277.62" cy="117.54" rx="6.45" ry="2.98" transform="translate(-12.08 200.97) rotate(-39.01)"/>
    <ellipse class="cls-4" cx="260.78" cy="104.45" rx="3.02" ry="6.54" transform="translate(-5.98 16.4) rotate(-3.56)"/>
    <ellipse class="cls-4" cx="273.24" cy="30.88" rx="3.04" ry="6.59" transform="translate(72.87 219.2) rotate(-49.67)"/>
    <ellipse class="cls-4" cx="250.14" cy="10.16" rx="3.24" ry="7.02"/>
    <ellipse class="cls-4" cx="211.14" cy="83" rx="2.63" ry="5.7" transform="translate(35.49 226.58) rotate(-60.72)"/>
    <ellipse class="cls-4" cx="215.77" cy="59.11" rx="2.67" ry="5.78" transform="translate(-2.56 107.94) rotate(-27.93)"/>
    <ellipse class="cls-4" cx="191.63" cy="8.77" rx="4.91" ry="2.27" transform="translate(141.53 193.94) rotate(-77.48)"/>
    <ellipse class="cls-4" cx="187.82" cy="64.18" rx="3.95" ry="1.82" transform="translate(32.39 187.63) rotate(-57.32)"/>
    <ellipse class="cls-4" cx="169.35" cy="62.01" rx="5.55" ry="2.56" transform="translate(12.42 150.87) rotate(-49.63)"/>
    <ellipse class="cls-4" cx="207.5" cy="103.9" rx="6.56" ry="3.03" transform="translate(-19.82 150.55) rotate(-38.19)"/>
    <ellipse class="cls-4" cx="162.66" cy="81.47" rx="1.93" ry="4.18" transform="translate(7.06 175.72) rotate(-57.81)"/>
    <ellipse class="cls-4" cx="147" cy="86.05" rx="2.23" ry="4.83" transform="translate(-21.13 58.76) rotate(-21.13)"/>
  </g>
  <g>
    <ellipse class="cls-3" cx="500.26" cy="190.92" rx="3.16" ry="6.84" transform="translate(80.55 523.41) rotate(-59.27)"/>
    <ellipse class="cls-3" cx="483.98" cy="218.4" rx="2.07" ry="4.48" transform="translate(37.76 506.2) rotate(-57.11)"/>
    <ellipse class="cls-3" cx="469.61" cy="253.55" rx="4.63" ry="2.14" transform="translate(129.98 665.21) rotate(-78.84)"/>
    <ellipse class="cls-3" cx="454.15" cy="247.36" rx="7.13" ry="3.29" transform="translate(-42.55 391.3) rotate(-44.74)"/>
    <ellipse class="cls-3" cx="430.8" cy="257.4" rx="4.09" ry="1.89" transform="translate(-70.5 280.75) rotate(-33.52)"/>
    <ellipse class="cls-3" cx="405.24" cy="242.78" rx="5.61" ry="2.59" transform="translate(-12.9 462.59) rotate(-58.66)"/>
    <ellipse class="cls-3" cx="395.31" cy="216.19" rx="3.27" ry="7.08" transform="translate(-13.01 406.67) rotate(-53.68)"/>
    <ellipse class="cls-3" cx="377.03" cy="171.57" rx="1.92" ry="4.17" transform="translate(-1.69 339.37) rotate(-48.36)"/>
    <ellipse class="cls-3" cx="337.99" cy="287.46" rx="2.22" ry="4.81" transform="translate(-101.6 227.17) rotate(-32.57)"/>
    <ellipse class="cls-3" cx="321.52" cy="253.95" rx="1.78" ry="3.85" transform="translate(-74.36 148.39) rotate(-23.37)"/>
    <ellipse class="cls-3" cx="332.23" cy="170.37" rx="6.93" ry="3.2" transform="translate(-3.03 334.69) rotate(-53.26)"/>
    <ellipse class="cls-3" cx="293.88" cy="218.52" rx="2.52" ry="5.46" transform="translate(-71.58 195) rotate(-32.95)"/>
    <ellipse class="cls-3" cx="265.26" cy="250.62" rx="2.22" ry="4.81" transform="translate(-98.32 281.95) rotate(-48.3)"/>
    <ellipse class="cls-3" cx="256.18" cy="210.9" rx="4.26" ry="1.97" transform="translate(10.78 434.26) rotate(-81.77)"/>
    <ellipse class="cls-3" cx="276.67" cy="148.91" rx="2.27" ry="4.93" transform="translate(-27.07 229.28) rotate(-43.11)"/>
    <ellipse class="cls-3" cx="254.74" cy="142.55" rx="5.6" ry="2.59" transform="translate(30.59 329.56) rotate(-69.07)"/>
    <ellipse class="cls-3" cx="170.07" cy="200.38" rx="2.9" ry="6.27" transform="translate(-25.71 25.03) rotate(-7.83)"/>
    <ellipse class="cls-3" cx="223.19" cy="112.46" rx="1.81" ry="3.93" transform="translate(22.79 261.79) rotate(-63.43)"/>
    <ellipse class="cls-3" cx="154.48" cy="164.39" rx="2.23" ry="4.84" transform="translate(-60.02 234.23) rotate(-64.82)"/>
    <ellipse class="cls-3" cx="211.24" cy="62.89" rx="2.02" ry="4.38" transform="translate(70.51 232.51) rotate(-66.9)"/>
    <ellipse class="cls-3" cx="168.76" cy="70.12" rx="6.34" ry="2.93" transform="translate(22.48 179.67) rotate(-59.39)"/>
    <ellipse class="cls-3" cx="115.45" cy="123.46" rx="6.7" ry="3.09" transform="translate(-48.43 164.89) rotate(-61.11)"/>
    <ellipse class="cls-3" cx="120.59" cy="78.23" rx="1.77" ry="3.83" transform="translate(-18.58 42.28) rotate(-18.49)"/>
    <ellipse class="cls-3" cx="130.8" cy="14.03" rx="1.8" ry="3.91" transform="translate(-.66 18.9) rotate(-8.24)"/>
    <ellipse class="cls-3" cx="92.16" cy="44.9" rx="2.02" ry="4.37" transform="translate(-9.08 28.79) rotate(-16.93)"/>
    <ellipse class="cls-3" cx="78.56" cy="46.06" rx="2.25" ry="4.88" transform="translate(-4.3 8.27) rotate(-5.87)"/>
    <ellipse class="cls-3" cx="57.44" cy="30.54" rx="2.94" ry="6.36" transform="translate(-6.02 16.25) rotate(-15.31)"/>
    <ellipse class="cls-3" cx="59.06" cy="97.25" rx="5.28" ry="2.44" transform="translate(-52.91 117.46) rotate(-68.96)"/>
  </g>
  <g>
    <ellipse class="cls-2" cx="46.49" cy="370.87" rx="4.82" ry="2.23" transform="translate(-307.51 250.91) rotate(-64.13)"/>
    <ellipse class="cls-2" cx="3.43" cy="336" rx="2.41" ry="5.22" transform="translate(-120.86 23.81) rotate(-21.12)"/>
    <ellipse class="cls-2" cx="99.44" cy="318.62" rx="5.83" ry="2.69" transform="translate(-156.31 104.14) rotate(-32.68)"/>
    <ellipse class="cls-2" cx="140.56" cy="331.84" rx="5.98" ry="2.76" transform="translate(-218.97 356.49) rotate(-70.97)"/>
    <ellipse class="cls-2" cx="52.75" cy="267.88" rx="6.52" ry="3.01" transform="translate(-179.55 124.43) rotate(-47.16)"/>
    <ellipse class="cls-2" cx="100.16" cy="258.09" rx="1.97" ry="4.27" transform="translate(-167.26 186.46) rotate(-53.79)"/>
    <ellipse class="cls-2" cx="68.24" cy="206.81" rx="4.34" ry="2" transform="translate(-139.78 142.34) rotate(-54.52)"/>
    <ellipse class="cls-2" cx="77.09" cy="188.19" rx="2.45" ry="5.32" transform="translate(-69.46 47.18) rotate(-23.83)"/>
    <ellipse class="cls-2" cx="170.28" cy="241.83" rx="3.94" ry="1.82" transform="translate(-124.55 265.38) rotate(-59.42)"/>
    <ellipse class="cls-2" cx="172.49" cy="226.56" rx="2.91" ry="6.3" transform="translate(-101.73 149.83) rotate(-37.08)"/>
    <ellipse class="cls-2" cx="168.56" cy="207.46" rx="2.73" ry="5.92" transform="translate(-87.34 130.2) rotate(-34.11)"/>
    <ellipse class="cls-2" cx="159.42" cy="174.94" rx="4.83" ry="2.23" transform="translate(-19.44 329.95) rotate(-88.57)"/>
    <ellipse class="cls-2" cx="153.32" cy="149.66" rx="6.16" ry="2.85" transform="translate(-60.24 132.39) rotate(-39.69)"/>
    <ellipse class="cls-2" cx="128.91" cy="120.47" rx="5.29" ry="2.44" transform="translate(-46.05 97.69) rotate(-35.64)"/>
    <ellipse class="cls-2" cx="184.83" cy="134.84" rx="7.03" ry="3.24" transform="translate(42.53 313.99) rotate(-87.65)"/>
    <ellipse class="cls-2" cx="174.03" cy="106.86" rx="2.99" ry="6.47" transform="translate(-22.25 163.25) rotate(-47.58)"/>
    <ellipse class="cls-2" cx="183.47" cy="85.36" rx="2.1" ry="4.55" transform="translate(-18.1 67.52) rotate(-19.89)"/>
    <ellipse class="cls-2" cx="179.38" cy="52" rx="4.87" ry="2.25" transform="translate(78.47 209.16) rotate(-73.46)"/>
    <ellipse class="cls-2" cx="284.31" cy="120.34" rx="6.03" ry="2.78" transform="translate(112.57 376.9) rotate(-79.14)"/>
    <ellipse class="cls-2" cx="263.43" cy="40.11" rx="7.28" ry="3.36" transform="translate(201.59 299.31) rotate(-85.24)"/>
    <ellipse class="cls-2" cx="287.52" cy="15.65" rx="2.46" ry="5.34" transform="translate(77.19 212.31) rotate(-46.19)"/>
    <ellipse class="cls-2" cx="319.8" cy="74.38" rx="2.28" ry="4.94" transform="translate(57.71 272.15) rotate(-50.13)"/>
    <ellipse class="cls-2" cx="331.4" cy="67.53" rx="2.36" ry="5.12" transform="translate(121.42 332.67) rotate(-63.14)"/>
    <ellipse class="cls-2" cx="357.22" cy="51.4" rx="2.81" ry="6.08" transform="translate(-1.06 8) rotate(-1.28)"/>
    <ellipse class="cls-2" cx="377.58" cy="12.29" rx="2.33" ry="5.05" transform="translate(102.48 271.21) rotate(-45.13)"/>
    <ellipse class="cls-2" cx="400.97" cy="77.35" rx="2.42" ry="5.24" transform="translate(-5.13 120.32) rotate(-16.96)"/>
    <ellipse class="cls-2" cx="415.8" cy="26.48" rx="7.31" ry="3.37" transform="translate(251.21 409.23) rotate(-70.38)"/>
    <ellipse class="cls-2" cx="432.4" cy="29.7" rx="7.14" ry="3.3" transform="translate(357.82 456.66) rotate(-84.02)"/>
    <ellipse class="cls-2" cx="461.68" cy="4.1" rx="5.03" ry="2.32" transform="translate(351.95 452.57) rotate(-76.76)"/>
    <ellipse class="cls-2" cx="478.22" cy="71.59" rx="6.2" ry="2.86" transform="translate(76 339.99) rotate(-42.23)"/>
    <ellipse class="cls-2" cx="506.58" cy="59.06" rx="2.87" ry="6.21" transform="translate(3.73 144.22) rotate(-16.26)"/>
    <ellipse class="cls-2" cx="520.27" cy="96.84" rx="2.95" ry="6.39" transform="translate(193.09 512.78) rotate(-62.36)"/>
    <ellipse class="cls-2" cx="551.58" cy="8.98" rx="2.46" ry="5.32" transform="translate(326.84 512.78) rotate(-66.89)"/>
  </g>
  <g>
    <ellipse class="cls-1" cx="86.71" cy="425.07" rx="6.35" ry="2.93" transform="translate(-295.98 220.73) rotate(-50.37)"/>
    <ellipse class="cls-1" cx="75.83" cy="389.85" rx="2.83" ry="6.13" transform="translate(-238.16 146.65) rotate(-41.23)"/>
    <ellipse class="cls-1" cx="5.89" cy="371.52" rx="1.84" ry="3.99" transform="translate(-139.07 29.4) rotate(-22.05)"/>
    <ellipse class="cls-1" cx="49.98" cy="361.98" rx="2.99" ry="6.48" transform="translate(-276.86 198.58) rotate(-55.58)"/>
    <ellipse class="cls-1" cx="89.31" cy="336.93" rx="5.69" ry="2.62" transform="translate(-212.31 162.22) rotate(-45.07)"/>
    <ellipse class="cls-1" cx="35.53" cy="317.23" rx="1.99" ry="4.32" transform="translate(-238.29 153.15) rotate(-52.68)"/>
    <ellipse class="cls-1" cx="74.22" cy="301.3" rx="2.68" ry="5.8" transform="translate(-227.04 226.94) rotate(-62.3)"/>
    <ellipse class="cls-1" cx="9.88" cy="253.74" rx="2.99" ry="6.48" transform="translate(-224.7 156.51) rotate(-65.26)"/>
    <ellipse class="cls-1" cx="115.55" cy="268.23" rx="5.42" ry="2.5" transform="translate(-176.48 272.75) rotate(-67.58)"/>
    <ellipse class="cls-1" cx="78.59" cy="238.04" rx="1.9" ry="4.12" transform="translate(-170.73 212.02) rotate(-65.77)"/>
    <ellipse class="cls-1" cx="87.74" cy="220.6" rx="6.27" ry="2.89" transform="translate(-138.47 148.55) rotate(-50.64)"/>
    <ellipse class="cls-1" cx="76.83" cy="179.96" rx="2.21" ry="4.79" transform="translate(-108.46 117.08) rotate(-48.14)"/>
    <ellipse class="cls-1" cx="122.74" cy="209.2" rx="5.08" ry="2.34" transform="translate(-119.44 222.55) rotate(-62.76)"/>
    <ellipse class="cls-1" cx="77.32" cy="114.46" rx="5.28" ry="2.43" transform="translate(-57.39 144.99) rotate(-68.73)"/>
    <ellipse class="cls-1" cx="161.89" cy="193.58" rx="2.62" ry="5.68" transform="translate(-80.2 264.81) rotate(-66.49)"/>
    <ellipse class="cls-1" cx="165.13" cy="153.79" rx="2.85" ry="6.17" transform="translate(-60.37 162.24) rotate(-45.11)"/>
    <ellipse class="cls-1" cx="172.8" cy="85.3" rx="4.08" ry="1.88" transform="translate(12.66 192.51) rotate(-60.07)"/>
    <ellipse class="cls-1" cx="187.81" cy="67.13" rx="3.31" ry="7.18" transform="translate(-11.57 72.37) rotate(-21.17)"/>
    <ellipse class="cls-1" cx="197.59" cy="55.9" rx="2.21" ry="4.78" transform="translate(26.44 169.37) rotate(-49.34)"/>
    <ellipse class="cls-1" cx="230.05" cy="169.52" rx="2.56" ry="5.54" transform="translate(-48.33 234.07) rotate(-49.44)"/>
    <ellipse class="cls-1" cx="255.78" cy="95.27" rx="1.93" ry="4.18" transform="translate(-14.47 133.52) rotate(-28.48)"/>
    <ellipse class="cls-1" cx="282.9" cy="92.66" rx="4.77" ry="2.2" transform="translate(43.43 269.51) rotate(-54.58)"/>
    <ellipse class="cls-1" cx="306.18" cy="97.31" rx="2.85" ry="6.16" transform="translate(101.48 344.93) rotate(-68.05)"/>
    <ellipse class="cls-1" cx="304.79" cy="178.2" rx="1.86" ry="4.02" transform="translate(-44.55 229.34) rotate(-38.64)"/>
    <ellipse class="cls-1" cx="347.72" cy="126" rx="2.25" ry="4.87" transform="translate(1.65 256.46) rotate(-40.57)"/>
    <ellipse class="cls-1" cx="360" cy="145.58" rx="4.44" ry="2.05" transform="translate(64.43 397.44) rotate(-62.45)"/>
    <ellipse class="cls-1" cx="402.57" cy="101.72" rx="3.03" ry="6.57" transform="translate(-7.95 164.03) rotate(-22.81)"/>
    <ellipse class="cls-1" cx="432.8" cy="124.05" rx="2.9" ry="6.29" transform="translate(95.89 422.71) rotate(-57.55)"/>
    <ellipse class="cls-1" cx="404.43" cy="199.4" rx="3.24" ry="7.03" transform="translate(-45.82 174.85) rotate(-23.12)"/>
    <ellipse class="cls-1" cx="402.22" cy="255.07" rx="2.29" ry="4.96" transform="translate(-12.33 489.58) rotate(-61.88)"/>
    <ellipse class="cls-1" cx="474.51" cy="160.79" rx="2.96" ry="6.41" transform="translate(-1.92 315.79) rotate(-36.74)"/>
    <ellipse class="cls-1" cx="485.83" cy="198.5" rx="7.13" ry="3.29" transform="translate(-26.98 310.13) rotate(-34.51)"/>
    <ellipse class="cls-1" cx="480.06" cy="237.6" rx="2.8" ry="6.08" transform="translate(-45.86 136.02) rotate(-15.4)"/>
    <ellipse class="cls-1" cx="543.97" cy="185.24" rx="2.8" ry="6.06" transform="translate(-24.43 269.73) rotate(-27.26)"/>
    <ellipse class="cls-1" cx="533.81" cy="222.59" rx="2.13" ry="4.61" transform="translate(46.02 533.33) rotate(-55.13)"/>
    <ellipse class="cls-1" cx="531.5" cy="293.36" rx="1.94" ry="4.2" transform="translate(-61.63 163.93) rotate(-16.59)"/>
    <ellipse class="cls-1" cx="531.24" cy="318.8" rx="4.71" ry="2.17" transform="translate(134.64 794.79) rotate(-81.17)"/>
    <ellipse class="cls-1" cx="563.79" cy="336.94" rx="5.07" ry="2.34" transform="translate(-88.68 412.31) rotate(-37.45)"/>
    <ellipse class="cls-1" cx="539.73" cy="401.69" rx="5.56" ry="2.57" transform="translate(19.91 828.82) rotate(-76.07)"/>
    <ellipse class="cls-1" cx="526.37" cy="431.1" rx="4.71" ry="2.17" transform="translate(-141.61 560.43) rotate(-50.28)"/>
    <ellipse class="cls-1" cx="480.76" cy="393.06" rx="5.06" ry="2.34" transform="translate(-93.47 629.48) rotate(-61.65)"/>
    <ellipse class="cls-1" cx="506.5" cy="480.28" rx="2.8" ry="6.06" transform="translate(-186.73 561.86) rotate(-50.19)"/>
  </g>
  <g>
    <ellipse class="cls-5" cx="528.51" cy="228.43" rx="2.11" ry="4.57" transform="translate(-34.81 347.51) rotate(-35.31)"/>
    <ellipse class="cls-5" cx="518.44" cy="214.01" rx="2.37" ry="5.13" transform="translate(-16.88 381.37) rotate(-39.79)"/>
    <ellipse class="cls-5" cx="550.03" cy="276.47" rx="3.1" ry="6.72" transform="translate(-65.5 285.99) rotate(-27.57)"/>
    <ellipse class="cls-5" cx="547.39" cy="349.75" rx="2.21" ry="4.78" transform="translate(-82.16 189.64) rotate(-18.31)"/>
    <ellipse class="cls-5" cx="489.1" cy="269.9" rx="5.24" ry="2.42" transform="translate(73.71 643.41) rotate(-70.85)"/>
    <ellipse class="cls-5" cx="482.42" cy="293.54" rx="7.01" ry="3.24" transform="translate(-65.82 428.95) rotate(-45.19)"/>
    <ellipse class="cls-5" cx="461.03" cy="325.04" rx="2.19" ry="4.75" transform="translate(-73.39 505.59) rotate(-53.85)"/>
    <ellipse class="cls-5" cx="425.8" cy="267.69" rx="6.84" ry="3.16" transform="translate(151 688.94) rotate(-89.04)"/>
    <ellipse class="cls-5" cx="402.15" cy="322.86" rx="5.39" ry="2.49" transform="translate(-96.47 454.54) rotate(-53.55)"/>
    <ellipse class="cls-5" cx="396.44" cy="299.48" rx="2.31" ry="5" transform="translate(-88.81 406.16) rotate(-49.47)"/>
    <ellipse class="cls-5" cx="371.86" cy="365.46" rx="2.86" ry="6.19" transform="translate(-136.84 479.76) rotate(-57.17)"/>
    <ellipse class="cls-5" cx="360.05" cy="361.33" rx="1.77" ry="3.84" transform="translate(-124.15 200.88) rotate(-26.77)"/>
    <ellipse class="cls-5" cx="356.68" cy="302.8" rx="6" ry="2.77" transform="translate(-75.42 482.25) rotate(-62.88)"/>
    <ellipse class="cls-5" cx="341.9" cy="333.49" rx="6.8" ry="3.14" transform="translate(-91.49 534.22) rotate(-69.14)"/>
    <ellipse class="cls-5" cx="334.27" cy="287.89" rx="1.82" ry="3.93" transform="translate(-15.93 19.61) rotate(-3.28)"/>
    <ellipse class="cls-5" cx="294.15" cy="338.84" rx="6.49" ry="3" transform="translate(-142.54 441.95) rotate(-62.32)"/>
    <ellipse class="cls-5" cx="296.74" cy="240.9" rx="6.2" ry="2.86" transform="translate(-40.07 421.58) rotate(-67.28)"/>
    <ellipse class="cls-5" cx="253.79" cy="289.87" rx="2.26" ry="4.89" transform="translate(-83.51 103.69) rotate(-19.9)"/>
    <ellipse class="cls-5" cx="216.26" cy="311.18" rx="4.56" ry="2.1" transform="translate(-153.83 229.73) rotate(-42.79)"/>
    <ellipse class="cls-5" cx="232.9" cy="225.31" rx="1.81" ry="3.93" transform="translate(-80.39 308.12) rotate(-58.86)"/>
    <ellipse class="cls-5" cx="159.06" cy="296.8" rx="1.83" ry="3.97" transform="translate(-175.43 257.98) rotate(-55.19)"/>
    <ellipse class="cls-5" cx="200.08" cy="212.04" rx="3.23" ry="7" transform="translate(-82.91 141.98) rotate(-32.76)"/>
    <ellipse class="cls-5" cx="169.61" cy="208.64" rx="2.88" ry="6.23" transform="translate(-12.58 10.89) rotate(-3.55)"/>
    <ellipse class="cls-5" cx="102.03" cy="266.94" rx="4.59" ry="2.12" transform="translate(-158.91 150.42) rotate(-45.02)"/>
    <ellipse class="cls-5" cx="91.72" cy="242.59" rx="6.71" ry="3.1" transform="translate(-164.98 279.6) rotate(-77.49)"/>
    <ellipse class="cls-5" cx="81" cy="219.86" rx="7.03" ry="3.25" transform="translate(-153.14 228.58) rotate(-71.91)"/>
    <ellipse class="cls-5" cx="70.49" cy="206.43" rx="2.98" ry="6.46" transform="translate(-130.64 121.99) rotate(-48.37)"/>
    <ellipse class="cls-5" cx="53.6" cy="218.64" rx="1.97" ry="4.26" transform="translate(-155.69 135.72) rotate(-54.61)"/>
    <ellipse class="cls-5" cx="48" cy="191.07" rx="6.58" ry="3.04" transform="translate(-115.43 81.06) rotate(-41.95)"/>
    <ellipse class="cls-5" cx="29.92" cy="99.12" rx="3.19" ry="6.92" transform="translate(-42.35 24.98) rotate(-27.47)"/>
    <ellipse class="cls-5" cx="11.8" cy="128.3" rx="5.54" ry="2.56" transform="translate(-116.4 115.56) rotate(-79.07)"/>
  </g>
  <g>
    <ellipse class="cls-4" cx="416.06" cy="256.35" rx="5.01" ry="2.31" transform="translate(121.95 646.63) rotate(-84.64)"/>
    <ellipse class="cls-4" cx="461.07" cy="174.23" rx="1.85" ry="4" transform="translate(71.42 476.09) rotate(-58.47)"/>
    <ellipse class="cls-4" cx="465.93" cy="223.08" rx="2.41" ry="5.23" transform="translate(-30.59 365.64) rotate(-41.6)"/>
    <ellipse class="cls-4" cx="466.78" cy="256.79" rx="2.6" ry="5.63" transform="translate(-.73 1.34) rotate(-.16)"/>
    <ellipse class="cls-4" cx="436.98" cy="288.7" rx="6.28" ry="2.9" transform="translate(9.21 590.87) rotate(-68.69)"/>
    <ellipse class="cls-4" cx="547.31" cy="284.79" rx="1.82" ry="3.94" transform="translate(75 681.75) rotate(-67.54)"/>
    <ellipse class="cls-4" cx="487.59" cy="313.77" rx="7.07" ry="3.26" transform="translate(129.16 769.54) rotate(-84.58)"/>
    <ellipse class="cls-4" cx="478" cy="322.82" rx="2.28" ry="4.93" transform="translate(-94.21 250.17) rotate(-26.8)"/>
    <ellipse class="cls-4" cx="505.42" cy="348.24" rx="3.11" ry="6.75" transform="translate(-53.28 602.36) rotate(-59.03)"/>
    <ellipse class="cls-4" cx="499.1" cy="358.4" rx="7.18" ry="3.31" transform="translate(-100.29 493.62) rotate(-48.4)"/>
    <ellipse class="cls-4" cx="458.68" cy="353.29" rx="4.31" ry="1.99" transform="translate(22.17 733.63) rotate(-78.67)"/>
    <ellipse class="cls-4" cx="513.76" cy="443.68" rx="4.67" ry="2.16" transform="translate(22.05 911.68) rotate(-84.4)"/>
    <ellipse class="cls-4" cx="500.82" cy="443.95" rx="6.91" ry="3.19" transform="translate(-167.33 405.38) rotate(-38.25)"/>
    <ellipse class="cls-4" cx="498.98" cy="458.08" rx="2.83" ry="6.14" transform="translate(-131.18 209.64) rotate(-21.04)"/>
    <ellipse class="cls-4" cx="409.78" cy="385.73" rx="6.95" ry="3.21" transform="translate(-107.39 607.62) rotate(-66.49)"/>
    <ellipse class="cls-4" cx="421.32" cy="422.3" rx="6.45" ry="2.98" transform="translate(-70.37 760.08) rotate(-79.56)"/>
    <ellipse class="cls-4" cx="402.05" cy="413.04" rx="6.92" ry="3.2" transform="translate(-149.68 579.87) rotate(-62.6)"/>
    <ellipse class="cls-4" cx="398.25" cy="435.29" rx="3.22" ry="6.98" transform="translate(-20.56 19.74) rotate(-2.77)"/>
    <ellipse class="cls-4" cx="372.69" cy="436.21" rx="2.61" ry="5.65" transform="translate(-201.04 433.67) rotate(-49.24)"/>
    <ellipse class="cls-4" cx="375.13" cy="478.13" rx="6.4" ry="2.95" transform="translate(-209.55 643.89) rotate(-67.71)"/>
    <ellipse class="cls-4" cx="344.59" cy="481.04" rx="1.96" ry="4.25" transform="translate(-239.24 384.68) rotate(-45.01)"/>
    <ellipse class="cls-4" cx="329.8" cy="513.67" rx="3.21" ry="6.95" transform="translate(-272.13 615.19) rotate(-66.87)"/>
    <ellipse class="cls-4" cx="319.67" cy="532.57" rx="2.03" ry="4.41" transform="translate(-246.18 276.39) rotate(-34.67)"/>
    <ellipse class="cls-4" cx="293.86" cy="491.64" rx="2.34" ry="5.07" transform="translate(-217.92 234.45) rotate(-32.45)"/>
    <ellipse class="cls-4" cx="270.12" cy="481.08" rx="3.96" ry="1.83" transform="translate(-229.26 246.51) rotate(-35.53)"/>
    <ellipse class="cls-4" cx="240.5" cy="443.22" rx="6.5" ry="3" transform="translate(-254.97 349.46) rotate(-50.8)"/>
    <ellipse class="cls-4" cx="216.74" cy="447.44" rx="5.39" ry="2.49" transform="translate(-251.62 614.21) rotate(-83.75)"/>
    <ellipse class="cls-4" cx="202.83" cy="447.54" rx="5.36" ry="2.47" transform="translate(-266.42 593.29) rotate(-82.87)"/>
    <ellipse class="cls-4" cx="195.34" cy="572.5" rx="6.86" ry="3.17" transform="translate(-288.2 209.04) rotate(-34.23)"/>
    <ellipse class="cls-4" cx="167.58" cy="532.43" rx="2.43" ry="5.26" transform="translate(-204.4 116.26) rotate(-24.32)"/>
    <ellipse class="cls-4" cx="142.51" cy="440.03" rx="5.02" ry="2.31" transform="translate(-245.96 188.98) rotate(-39.18)"/>
    <ellipse class="cls-4" cx="122.37" cy="556.93" rx="4.62" ry="2.13" transform="translate(-434.49 434.22) rotate(-65.18)"/>
    <ellipse class="cls-4" cx="115.84" cy="452.95" rx="1.85" ry="4.01" transform="translate(-106.09 41.45) rotate(-13.99)"/>
    <ellipse class="cls-4" cx="95.95" cy="518.71" rx="2.79" ry="6.05" transform="translate(-53.44 12.8) rotate(-5.97)"/>
    <ellipse class="cls-4" cx="77.55" cy="549.29" rx="2.27" ry="4.91" transform="translate(-139.44 38.75) rotate(-14.99)"/>
  </g>
  <g>
    <ellipse class="cls-3" cx="387.72" cy="478.82" rx="4.28" ry="1.97" transform="translate(-202.83 654.44) rotate(-67.56)"/>
    <ellipse class="cls-3" cx="357.53" cy="437.81" rx="5.12" ry="2.36" transform="translate(-181.35 608.43) rotate(-68.33)"/>
    <ellipse class="cls-3" cx="339.88" cy="497.73" rx="2.55" ry="5.52" transform="translate(-261.02 544.38) rotate(-60.11)"/>
    <ellipse class="cls-3" cx="313.36" cy="527.38" rx="4.19" ry="1.93" transform="translate(-254.63 759.15) rotate(-81.48)"/>
    <ellipse class="cls-3" cx="285.37" cy="513.16" rx="4.78" ry="2.2" transform="translate(-268.01 709.5) rotate(-80.46)"/>
    <ellipse class="cls-3" cx="259.46" cy="533.86" rx="2" ry="4.33" transform="translate(-267.28 260.24) rotate(-36.63)"/>
    <ellipse class="cls-3" cx="238.66" cy="530.66" rx="5.42" ry="2.5" transform="translate(-343.16 537.6) rotate(-66.47)"/>
    <ellipse class="cls-3" cx="231.94" cy="490.85" rx="6.91" ry="3.19" transform="translate(-251.3 243.45) rotate(-37.6)"/>
    <ellipse class="cls-3" cx="214.48" cy="459.65" rx="4.12" ry="1.9" transform="translate(-244.66 244.08) rotate(-39.83)"/>
    <ellipse class="cls-3" cx="175.26" cy="503.14" rx="2.75" ry="5.95" transform="translate(-54.27 22.32) rotate(-6.31)"/>
    <ellipse class="cls-3" cx="151.53" cy="503.56" rx="5.86" ry="2.71" transform="translate(-274.34 195.07) rotate(-37.33)"/>
    <ellipse class="cls-3" cx="166" cy="451.68" rx="5.42" ry="2.5" transform="translate(-245.35 201.96) rotate(-38.56)"/>
    <ellipse class="cls-3" cx="184.65" cy="393.65" rx="4.64" ry="2.14" transform="translate(-249.66 414.43) rotate(-67.61)"/>
    <ellipse class="cls-3" cx="146.66" cy="410.68" rx="2.44" ry="5.3" transform="translate(-260.28 253.94) rotate(-49.28)"/>
    <ellipse class="cls-3" cx="123.6" cy="415.25" rx="1.97" ry="4.27" transform="translate(-117.58 55.34) rotate(-17.25)"/>
    <ellipse class="cls-3" cx="83.67" cy="411.87" rx="6.64" ry="3.06" transform="translate(-323.73 308.59) rotate(-64.29)"/>
    <ellipse class="cls-3" cx="164.85" cy="351.2" rx="3.37" ry="7.31" transform="translate(-85.37 54.71) rotate(-15.02)"/>
    <ellipse class="cls-3" cx="147.05" cy="342.95" rx="2.32" ry="5.02" transform="translate(-163.15 135.56) rotate(-33.03)"/>
    <ellipse class="cls-3" cx="71.95" cy="340.86" rx="1.87" ry="4.05" transform="translate(-238.67 183.14) rotate(-51.16)"/>
    <ellipse class="cls-3" cx="123.44" cy="302.32" rx="2.29" ry="4.95" transform="translate(-91.3 56.31) rotate(-18.91)"/>
    <ellipse class="cls-3" cx="84.89" cy="292.25" rx="2.59" ry="5.61" transform="translate(-135.63 82.52) rotate(-30.24)"/>
    <ellipse class="cls-3" cx="135.75" cy="277.19" rx="3.83" ry="1.77" transform="translate(-170.68 314.11) rotate(-70.78)"/>
    <ellipse class="cls-3" cx="100.69" cy="261.73" rx="5.93" ry="2.74" transform="translate(-176.15 216.98) rotate(-59.78)"/>
    <ellipse class="cls-3" cx="117.47" cy="240.66" rx="6.89" ry="3.18" transform="translate(-133.16 334.99) rotate(-84.61)"/>
    <ellipse class="cls-3" cx="96.15" cy="226.08" rx="1.94" ry="4.21" transform="translate(-58.44 35.14) rotate(-15.95)"/>
    <ellipse class="cls-3" cx="121.07" cy="210.02" rx="2.91" ry="6.31" transform="translate(-111.77 142.56) rotate(-43.88)"/>
    <ellipse class="cls-3" cx="28.66" cy="182.08" rx="4.23" ry="1.95" transform="translate(-152.57 148.49) rotate(-70.56)"/>
    <ellipse class="cls-3" cx="77.57" cy="169.78" rx="2.24" ry="4.85" transform="translate(-86.6 80.95) rotate(-37.03)"/>
    <ellipse class="cls-3" cx="54.5" cy="155.34" rx="3.05" ry="6.6" transform="translate(-57.2 34.42) rotate(-23.4)"/>
  </g>
  <g>
    <ellipse class="cls-2" cx="370.23" cy="223.91" rx="3.3" ry="7.14" transform="translate(-17.68 32.25) rotate(-4.87)"/>
    <ellipse class="cls-2" cx="395.08" cy="275.65" rx="6.55" ry="3.03" transform="translate(-70.82 398.19) rotate(-49.64)"/>
    <ellipse class="cls-2" cx="308.66" cy="232.07" rx="5.52" ry="2.55" transform="translate(-77.11 214.35) rotate(-34.31)"/>
    <ellipse class="cls-2" cx="320.25" cy="255.16" rx="2.65" ry="5.73" transform="translate(-37.38 454.58) rotate(-67.69)"/>
    <ellipse class="cls-2" cx="292.85" cy="250.47" rx="3.1" ry="6.73" transform="translate(-73.52 369.93) rotate(-58.6)"/>
    <ellipse class="cls-2" cx="279.13" cy="268.01" rx="5.99" ry="2.76" transform="translate(-105.69 308.77) rotate(-49.88)"/>
    <ellipse class="cls-2" cx="280.79" cy="306.19" rx="3.05" ry="6.6" transform="translate(-77.83 96.46) rotate(-17.16)"/>
    <ellipse class="cls-2" cx="312.89" cy="381.99" rx="6.13" ry="2.83" transform="translate(-171.7 476.81) rotate(-61.75)"/>
    <ellipse class="cls-2" cx="294.15" cy="394.25" rx="1.9" ry="4.11" transform="translate(-191.64 317) rotate(-44.24)"/>
    <ellipse class="cls-2" cx="239.03" cy="347.78" rx="7.19" ry="3.32" transform="translate(-171.09 447.22) rotate(-69.13)"/>
    <ellipse class="cls-2" cx="185.81" cy="311.63" rx="4.72" ry="2.18" transform="translate(-166.67 225.64) rotate(-45.48)"/>
    <ellipse class="cls-2" cx="198.77" cy="373.11" rx="1.93" ry="4.19" transform="translate(-221.77 329.93) rotate(-56.09)"/>
    <ellipse class="cls-2" cx="166.74" cy="366.77" rx="2.71" ry="5.86" transform="translate(-234.95 335.66) rotate(-61.12)"/>
    <ellipse class="cls-2" cx="210.39" cy="456.46" rx="5.06" ry="2.33" transform="translate(-265.16 619.18) rotate(-84.14)"/>
    <ellipse class="cls-2" cx="199.81" cy="458.39" rx="3.12" ry="6.76" transform="translate(-234.63 210.79) rotate(-36.77)"/>
    <ellipse class="cls-2" cx="164.54" cy="430.28" rx="3.85" ry="1.78" transform="translate(-271.03 580.26) rotate(-88.07)"/>
    <ellipse class="cls-2" cx="105.36" cy="388.77" rx="1.91" ry="4.14" transform="translate(-94.61 39.12) rotate(-14.6)"/>
    <ellipse class="cls-2" cx="143.35" cy="462.32" rx="3.27" ry="7.08" transform="translate(-54.58 20.61) rotate(-6.91)"/>
    <ellipse class="cls-2" cx="148.31" cy="506.72" rx="6.15" ry="2.84" transform="translate(-308 241.13) rotate(-43.49)"/>
    <ellipse class="cls-2" cx="135.02" cy="513.42" rx="2.59" ry="5.61" transform="translate(-266.02 165.58) rotate(-34.33)"/>
    <ellipse class="cls-2" cx="80.34" cy="461.16" rx="4.63" ry="2.14" transform="translate(-387.76 463.39) rotate(-80.39)"/>
    <ellipse class="cls-2" cx="61.11" cy="453.46" rx="6.29" ry="2.9" transform="translate(-242.23 110.9) rotate(-33.85)"/>
    <ellipse class="cls-2" cx="59.51" cy="472.01" rx="2.08" ry="4.52" transform="translate(-377.23 283.34) rotate(-59.45)"/>
    <ellipse class="cls-2" cx="22.8" cy="464.05" rx="2.41" ry="5.23" transform="translate(-410.01 295.12) rotate(-65.87)"/>
    <ellipse class="cls-2" cx="8.22" cy="483.77" rx="4.12" ry="1.9" transform="translate(-464.84 382.21) rotate(-76.91)"/>
    <ellipse class="cls-2" cx="10.02" cy="531.21" rx="5.04" ry="2.33" transform="translate(-316.68 112.22) rotate(-36.86)"/>
  </g>
</svg>