<?xml version="1.0" encoding="UTF-8"?>
<svg id="Layer_9" data-name="Layer 9" xmlns="http://www.w3.org/2000/svg" xmlns:xlink="http://www.w3.org/1999/xlink" viewBox="0 0 568.86 570.1">
  <defs>
    <style>
      .cls-1 {
        fill: url(#radial-gradient-2);
      }

      .cls-1, .cls-2, .cls-3, .cls-4, .cls-5, .cls-6, .cls-7, .cls-8, .cls-9 {
        stroke-miterlimit: 10;
      }

      .cls-1, .cls-2, .cls-4 {
        stroke: #f97dcd;
        stroke-width: .8px;
      }

      .cls-2 {
        fill: url(#radial-gradient);
      }

      .cls-10 {
        fill: url(#radial-gradient-7);
      }

      .cls-11 {
        fill: url(#radial-gradient-6);
      }

      .cls-12 {
        fill: url(#radial-gradient-5);
      }

      .cls-13 {
        fill: url(#radial-gradient-4);
      }

      .cls-14 {
        fill: url(#radial-gradient-9);
      }

      .cls-15 {
        fill: url(#radial-gradient-8);
      }

      .cls-16 {
        fill: url(#radial-gradient-3);
      }

      .cls-17 {
        fill: url(#linear-gradient-5);
      }

      .cls-18 {
        fill: #c0ecf5;
      }

      .cls-3 {
        fill: url(#linear-gradient);
        stroke: url(#linear-gradient-2);
      }

      .cls-3, .cls-5, .cls-6, .cls-7 {
        stroke-width: .95px;
      }

      .cls-19 {
        fill: #f4e04d;
      }

      .cls-4, .cls-8, .cls-9 {
        fill: none;
      }

      .cls-20 {
        fill: url(#radial-gradient-16);
      }

      .cls-21 {
        fill: url(#radial-gradient-12);
      }

      .cls-22 {
        fill: url(#radial-gradient-14);
      }

      .cls-23 {
        fill: url(#radial-gradient-13);
      }

      .cls-24 {
        fill: url(#radial-gradient-10);
      }

      .cls-25 {
        fill: url(#radial-gradient-17);
      }

      .cls-26 {
        fill: url(#radial-gradient-11);
      }

      .cls-27 {
        fill: url(#radial-gradient-15);
      }

      .cls-28 {
        fill: #ff80f0;
      }

      .cls-5 {
        fill: url(#linear-gradient-8);
        stroke: url(#linear-gradient-9);
      }

      .cls-6 {
        fill: url(#linear-gradient-6);
        stroke: url(#linear-gradient-7);
      }

      .cls-7 {
        fill: url(#linear-gradient-3);
        stroke: url(#linear-gradient-4);
      }

      .cls-29 {
        fill: #d9bbfe;
      }

      .cls-30 {
        fill: #22ff8b;
      }

      .cls-31 {
        fill: #62dabf;
      }

      .cls-8 {
        stroke-width: 4.8px;
      }

      .cls-8, .cls-9 {
        stroke: #d4bbfc;
        stroke-linecap: round;
      }

      .cls-9 {
        stroke-width: 19.22px;
      }
    </style>
    <radialGradient id="radial-gradient" cx="270.02" cy="299.62" fx="270.02" fy="299.62" r="23.17" gradientUnits="userSpaceOnUse">
      <stop offset="0" stop-color="#553d00"/>
      <stop offset="0" stop-color="#fff"/>
      <stop offset="0" stop-color="#fff"/>
      <stop offset="0" stop-color="#ffe8bf"/>
      <stop offset="1" stop-color="#fff"/>
    </radialGradient>
    <radialGradient id="radial-gradient-2" cx="318.76" fx="318.76" xlink:href="#radial-gradient"/>
    <radialGradient id="radial-gradient-3" cx="270.02" cy="299.62" fx="270.02" fy="299.62" r="11.17" gradientUnits="userSpaceOnUse">
      <stop offset=".57" stop-color="#62dabf"/>
      <stop offset="1" stop-color="#d6bcfc"/>
      <stop offset="1" stop-color="#d9bbfe"/>
    </radialGradient>
    <radialGradient id="radial-gradient-4" cx="318.76" cy="299.62" fx="318.76" fy="299.62" r="8.45" gradientUnits="userSpaceOnUse">
      <stop offset="0" stop-color="#62dabf"/>
      <stop offset=".53" stop-color="#d1bdfa"/>
      <stop offset="1" stop-color="#d6bcfc"/>
      <stop offset="1" stop-color="#d9bbfe"/>
    </radialGradient>
    <radialGradient id="radial-gradient-5" cx="270.49" cy="299.62" fx="270.49" fy="299.62" r="4.7" gradientUnits="userSpaceOnUse">
      <stop offset="0" stop-color="#553d00"/>
      <stop offset="1" stop-color="#000"/>
      <stop offset="1" stop-color="#d6bcfc"/>
      <stop offset="1" stop-color="#550015"/>
    </radialGradient>
    <radialGradient id="radial-gradient-6" cx="318.76" cy="299.62" fx="318.76" fy="299.62" r="2.7" xlink:href="#radial-gradient-5"/>
    <linearGradient id="linear-gradient" x1="-1371.18" y1="-1732.48" x2="-1366.4" y2="-1732.48" gradientTransform="translate(2135.66 -1031.36) rotate(-90)" gradientUnits="userSpaceOnUse">
      <stop offset="0" stop-color="#553d00"/>
      <stop offset="0" stop-color="#fff"/>
      <stop offset="0" stop-color="#fff"/>
      <stop offset="0" stop-color="#2a0001"/>
      <stop offset="1" stop-color="#2a000f"/>
      <stop offset="1" stop-color="#000"/>
    </linearGradient>
    <linearGradient id="linear-gradient-2" x1="-1371.66" x2="-1365.93" xlink:href="#linear-gradient"/>
    <linearGradient id="linear-gradient-3" x1="-1375.07" y1="-1724.7" x2="-1362.29" y2="-1724.7" gradientTransform="translate(-14.44 -1830.67) rotate(-152.59)" xlink:href="#linear-gradient"/>
    <linearGradient id="linear-gradient-4" x1="-1375.54" y1="-1724.7" x2="-1361.81" y2="-1724.7" gradientTransform="translate(-14.44 -1830.67) rotate(-152.59)" xlink:href="#linear-gradient"/>
    <linearGradient id="linear-gradient-5" x1="220.82" y1="379.12" x2="358.13" y2="379.12" gradientTransform="matrix(1,0,0,1,0,0)" xlink:href="#linear-gradient"/>
    <radialGradient id="radial-gradient-7" cx="290.34" cy="389.65" fx="290.34" fy="389.65" r="62.72" gradientUnits="userSpaceOnUse">
      <stop offset="0" stop-color="#553d00"/>
      <stop offset="0" stop-color="#fff"/>
      <stop offset="0" stop-color="#fff"/>
      <stop offset="0" stop-color="#c20a0f"/>
      <stop offset="0" stop-color="#bf0005"/>
      <stop offset="0" stop-color="#bf0005"/>
      <stop offset="0" stop-color="#ba0005"/>
      <stop offset=".82" stop-color="#2a000f"/>
    </radialGradient>
    <radialGradient id="radial-gradient-8" cx="266.77" cy="355.7" fx="266.77" fy="355.7" r="6.75" xlink:href="#radial-gradient"/>
    <radialGradient id="radial-gradient-9" cx="289.38" cy="357.68" fx="289.38" fy="357.68" r="7.55" xlink:href="#radial-gradient"/>
    <radialGradient id="radial-gradient-10" cx="311.71" cy="357.8" fx="311.71" fy="357.8" r="7.63" xlink:href="#radial-gradient"/>
    <radialGradient id="radial-gradient-11" cx="322.04" cy="400.59" fx="322.04" fy="400.59" r="8.96" xlink:href="#radial-gradient"/>
    <radialGradient id="radial-gradient-12" cx="298.21" cy="405.43" fx="298.21" fy="405.43" r="8.1" xlink:href="#radial-gradient"/>
    <radialGradient id="radial-gradient-13" cx="274.45" cy="404.47" fx="274.45" fy="404.47" r="7.75" xlink:href="#radial-gradient"/>
    <radialGradient id="radial-gradient-14" cx="250.37" cy="392.36" fx="250.37" fy="392.36" r="8.18" xlink:href="#radial-gradient"/>
    <radialGradient id="radial-gradient-15" cx="351.09" cy="353.11" fx="351.09" fy="353.11" r="5.64" xlink:href="#radial-gradient"/>
    <radialGradient id="radial-gradient-16" cx="332.33" cy="355.4" fx="332.33" fy="355.4" r="7.34" xlink:href="#radial-gradient"/>
    <radialGradient id="radial-gradient-17" cx="240.74" cy="352.84" fx="240.74" fy="352.84" r="9" xlink:href="#radial-gradient"/>
    <linearGradient id="linear-gradient-6" x1="864.14" y1="-2066.72" x2="868.92" y2="-2066.72" gradientTransform="translate(1038.43 -1727.11) rotate(-180)" xlink:href="#linear-gradient"/>
    <linearGradient id="linear-gradient-7" x1="863.67" y1="-2066.72" x2="869.4" y2="-2066.72" gradientTransform="translate(1038.43 -1727.11) rotate(-180)" xlink:href="#linear-gradient"/>
    <linearGradient id="linear-gradient-8" x1="860.26" y1="-2058.94" x2="873.04" y2="-2058.94" gradientTransform="translate(-218.41 -1867.17) rotate(147.22)" xlink:href="#linear-gradient"/>
    <linearGradient id="linear-gradient-9" x1="859.78" y1="-2058.94" x2="873.51" y2="-2058.94" gradientTransform="translate(-218.41 -1867.17) rotate(147.22)" xlink:href="#linear-gradient"/>
  </defs>
  <g>
    <line class="cls-9" x1="256.14" y1="460.55" x2="256.14" y2="539.45"/>
    <line class="cls-9" x1="327.3" y1="462.43" x2="327.3" y2="541.33"/>
    <ellipse class="cls-29" cx="291.23" cy="349.88" rx="90.68" ry="122.25"/>
    <circle class="cls-2" cx="270.02" cy="299.62" r="23.17"/>
    <circle class="cls-1" cx="318.76" cy="299.62" r="23.17"/>
    <circle class="cls-16" cx="270.02" cy="299.62" r="11.17"/>
    <circle class="cls-13" cx="318.76" cy="299.62" r="8.45"/>
    <path class="cls-4" d="M333.44,281.69c0-6.79,5.49-12.28,12.28-12.28"/>
    <path class="cls-4" d="M321.16,276.45c0-6.79,5.49-12.28,12.28-12.28"/>
    <path class="cls-4" d="M254.85,281.69c0-6.79-5.49-12.28-12.28-12.28"/>
    <path class="cls-4" d="M267.14,276.45c0-6.79-5.49-12.28-12.28-12.28"/>
    <circle class="cls-12" cx="270.49" cy="299.62" r="4.7"/>
    <circle class="cls-11" cx="318.76" cy="299.62" r="2.7"/>
    <line class="cls-8" x1="230.38" y1="430.59" x2="170.73" y2="337.95"/>
    <line class="cls-8" x1="354.17" y1="431.71" x2="404.89" y2="333.89"/>
    <rect class="cls-3" x="401.79" y="335.04" width="2.79" height="4.78" transform="translate(-81.97 540.03) rotate(-62.59)"/>
    <path class="cls-7" d="M400.99,327.53c1.62-3.13,5.48-4.35,8.61-2.72s4.36,5.48,2.73,8.61c-1.63,3.13-5.48,4.36-8.61,2.73s-4.36-5.48-2.73-8.61Z"/>
    <path class="cls-17" d="M357.57,355.36c-2.06,6.38-9.42,17.58-16.59,29.12-2.32,3.74-5.24,7.48-8.85,11.04-1.56,1.54-3.25,3.06-5.08,4.52-4.7,3.77-9.81,6.44-15.08,8.21-1.24.41-2.49.78-3.75,1.09-6.63,1.67-13.43,2.01-20,1.36-1.47-.14-2.94-.34-4.39-.58-6.84-1.14-13.28-3.32-18.77-6.1-.14-.07-.27-.14-.4-.2-2.14-1.11-4.19-2.31-6.16-3.58-6.51-4.22-12.07-9.3-16.59-14.61-.77-.9-1.51-1.8-2.21-2.7-12.71-16.33-24.92-34.49-15.6-35.45.08,0,.16-.02.25-.02,1.68-.17,3.34-.25,4.98-.25,2.49,0,4.95.17,7.43.46.03,0,.05,0,.07,0,3.67.43,7.39,1.13,11.31,1.92.48.1.96.2,1.44.29.85.18,1.71.35,2.58.53,1.91.4,3.87.81,5.94,1.21h.06c5.2,1.02,10.86,1.99,17.27,2.63.31.03.61.06.93.09h0c.92.08,1.85.16,2.8.23,6.09.46,12.84.62,20.45.25.87-.04,1.75-.09,2.65-.15h0c5.79-.36,12.07-1.04,18.91-2.09.82-.12,1.64-.25,2.48-.4h0c1.79-.29,3.62-.61,5.49-.96,3.86-.72,7.99-1.24,11.86-1.54,1.04-.08,2.05-.15,3.04-.2,2.77-.15,5.32-.18,7.45-.1,1.74.07,3.21.22,4.27.45t.01,0s0,0,.01,0c.44.09.81.2,1.11.33,1.47.63,1.55,2.46.68,5.18Z"/>
    <path class="cls-10" d="M340.98,384.48c-3.32,5.36-7.88,10.71-13.94,15.57-19.28,15.46-45.44,12.53-62.38,3.79-10.39-5.37-18.81-13-24.96-20.9,2.36-2.37,5.38-4.48,8.09-6.5,10.74-8.05,27.17-8.16,43.09-8.16,17.27,0,34.44,1.36,45.37,10.67,2.45,2.08,3.76,3.6,4.72,5.54Z"/>
    <path class="cls-15" d="M275.42,354.28c-1.5,2.72-3.46,4.6-5.75,5.23-4.19,1.15-8.49-2.05-11.55-7.86h.03c5.2,1.02,10.86,1.99,17.27,2.63Z"/>
    <path class="cls-14" d="M299.6,354.85c-1.69,2.93-4.52,5.09-7.99,5.71-4.98.91-9.87-1.6-12.46-5.96,6.09.46,12.84.62,20.45.25Z"/>
    <path class="cls-24" d="M321.16,352.61c-.88,5.64-4.2,9.9-8.54,10.34-4.3.44-8.35-3.01-10.37-8.25,5.79-.36,12.07-1.04,18.91-2.09Z"/>
    <path class="cls-26" d="M332.12,395.53c-1.56,1.54-3.25,3.06-5.08,4.52-4.7,3.77-9.81,6.44-15.08,8.21.18-4.61,1.93-8.71,4.59-11.51,2.29-2.38,5.24-3.82,8.44-3.82,2.64,0,5.08.96,7.13,2.61Z"/>
    <path class="cls-21" d="M308.21,409.35c-6.63,1.67-13.43,2.01-20,1.36,2.78-7.02,7.57-11.52,12.25-10.8,3.69.57,6.47,4.24,7.75,9.44Z"/>
    <path class="cls-23" d="M283.83,410.14c-6.84-1.14-13.28-3.32-18.77-6.1,2.43-3.65,6.29-5.75,10.2-5.12,4.85.78,8.26,5.51,8.57,11.22Z"/>
    <path class="cls-22" d="M258.84,397.26c0,1.04-.12,2.03-.33,2.99-6.51-4.22-12.07-9.3-16.59-14.61,1.52-.76,3.21-1.17,4.99-1.17,3.13,0,5.98,1.3,8.12,3.41,2.35,2.33,3.82,5.68,3.82,9.38Z"/>
    <path class="cls-27" d="M357.57,355.36c-1.24.87-2.66,1.4-4.2,1.49-4.13.22-7.81-2.85-9.33-7.34,2.77-.15,5.32-.18,7.45-.1,1.48.27,2.91.42,4.27.45t.01,0s0,0,.01,0c.44.09.81.2,1.11.33,1.47.63,1.55,2.46.68,5.18Z"/>
    <path class="cls-20" d="M341,349.71c-.83,6.31-3.8,10.96-7.76,11.36-3.8.38-7.47-3.26-9.6-8.85,1.79-.29,3.62-.61,5.49-.96,3.86-.72,7.99-1.24,11.86-1.54Z"/>
    <path class="cls-25" d="M252.15,350.44c-2.9,5.23-7.41,8.44-12.13,7.99-5.04-.46-9.02-4.96-10.7-11.21,2.49,0,4.95.17,7.43.46.03,0,.05,0,.07,0,3.67.43,7.39,1.13,11.31,1.92.48.1.96.2,1.44.29.85.18,1.71.35,2.58.53Z"/>
    <g>
      <rect class="cls-6" x="169.51" y="338.21" width="4.78" height="2.79" transform="translate(-156.49 147.13) rotate(-32.78)"/>
      <path class="cls-5" d="M162.22,336.59c-1.91-2.96-1.05-6.91,1.92-8.83s6.92-1.06,8.83,1.91c1.91,2.97,1.06,6.92-1.91,8.83-2.97,1.91-6.92,1.06-8.83-1.91Z"/>
    </g>
  </g>
  <g>
    <ellipse class="cls-30" cx="42.17" cy="64.81" rx="3.52" ry="7.62"/>
    <ellipse class="cls-30" cx="-4.08" cy="109.71" rx="2.96" ry="6.42" transform="translate(-97.11 51.42) rotate(-60.06)"/>
  </g>
  <g>
    <ellipse class="cls-30" cx="508.94" cy="61.99" rx="3.08" ry="6.67" transform="translate(28.36 240.62) rotate(-27.33)"/>
    <ellipse class="cls-30" cx="463.77" cy="54.28" rx="7.21" ry="3.33" transform="translate(346.89 506.35) rotate(-82.18)"/>
    <ellipse class="cls-30" cx="469.83" cy="89.61" rx="4.73" ry="2.19" transform="translate(347.44 551.99) rotate(-85.97)"/>
    <ellipse class="cls-30" cx="434.85" cy="68.06" rx="2.51" ry="5.44" transform="translate(9.22 180.15) rotate(-23.65)"/>
    <ellipse class="cls-30" cx="450.2" cy="152.5" rx="5.17" ry="2.38" transform="translate(288.28 599.4) rotate(-88.8)"/>
    <ellipse class="cls-30" cx="393.82" cy="66.5" rx="2.2" ry="4.76" transform="translate(5.67 160.59) rotate(-23.21)"/>
    <ellipse class="cls-30" cx="370.15" cy="80.46" rx="1.95" ry="4.24" transform="translate(-7.46 110.38) rotate(-16.79)"/>
    <ellipse class="cls-30" cx="348.78" cy="105.14" rx="6.3" ry="2.91" transform="translate(4.52 224.26) rotate(-35.86)"/>
    <ellipse class="cls-30" cx="357.22" cy="28.78" rx="4.15" ry="1.91" transform="translate(247.9 370.07) rotate(-76.84)"/>
    <ellipse class="cls-30" cx="291.03" cy="140.35" rx="2.95" ry="6.4" transform="translate(-18.17 234.1) rotate(-42.61)"/>
    <ellipse class="cls-30" cx="277.62" cy="117.54" rx="6.45" ry="2.98" transform="translate(-12.08 200.97) rotate(-39.01)"/>
    <ellipse class="cls-30" cx="260.78" cy="104.45" rx="3.02" ry="6.54" transform="translate(-5.98 16.4) rotate(-3.56)"/>
    <ellipse class="cls-30" cx="273.24" cy="30.88" rx="3.04" ry="6.59" transform="translate(72.87 219.2) rotate(-49.67)"/>
    <ellipse class="cls-30" cx="250.14" cy="10.16" rx="3.24" ry="7.02"/>
    <ellipse class="cls-30" cx="211.14" cy="83" rx="2.63" ry="5.7" transform="translate(35.49 226.58) rotate(-60.72)"/>
    <ellipse class="cls-30" cx="215.77" cy="59.11" rx="2.67" ry="5.78" transform="translate(-2.56 107.94) rotate(-27.93)"/>
    <ellipse class="cls-30" cx="191.63" cy="8.77" rx="4.91" ry="2.27" transform="translate(141.53 193.94) rotate(-77.48)"/>
    <ellipse class="cls-30" cx="187.82" cy="64.18" rx="3.95" ry="1.82" transform="translate(32.39 187.63) rotate(-57.32)"/>
    <ellipse class="cls-30" cx="169.35" cy="62.01" rx="5.55" ry="2.56" transform="translate(12.42 150.87) rotate(-49.63)"/>
    <ellipse class="cls-30" cx="207.5" cy="103.9" rx="6.56" ry="3.03" transform="translate(-19.82 150.55) rotate(-38.19)"/>
    <ellipse class="cls-30" cx="162.66" cy="81.47" rx="1.93" ry="4.18" transform="translate(7.06 175.72) rotate(-57.81)"/>
    <ellipse class="cls-30" cx="147" cy="86.05" rx="2.23" ry="4.83" transform="translate(-21.13 58.76) rotate(-21.13)"/>
  </g>
  <g>
    <ellipse class="cls-28" cx="500.26" cy="190.92" rx="3.16" ry="6.84" transform="translate(80.55 523.41) rotate(-59.27)"/>
    <ellipse class="cls-28" cx="483.98" cy="218.4" rx="2.07" ry="4.48" transform="translate(37.76 506.2) rotate(-57.11)"/>
    <ellipse class="cls-28" cx="469.61" cy="253.55" rx="4.63" ry="2.14" transform="translate(129.98 665.21) rotate(-78.84)"/>
    <ellipse class="cls-28" cx="454.15" cy="247.36" rx="7.13" ry="3.29" transform="translate(-42.55 391.3) rotate(-44.74)"/>
    <ellipse class="cls-28" cx="430.8" cy="257.4" rx="4.09" ry="1.89" transform="translate(-70.5 280.75) rotate(-33.52)"/>
    <ellipse class="cls-28" cx="405.24" cy="242.78" rx="5.61" ry="2.59" transform="translate(-12.9 462.59) rotate(-58.66)"/>
    <ellipse class="cls-28" cx="395.31" cy="216.19" rx="3.27" ry="7.08" transform="translate(-13.01 406.67) rotate(-53.68)"/>
    <ellipse class="cls-28" cx="377.03" cy="171.57" rx="1.92" ry="4.17" transform="translate(-1.69 339.37) rotate(-48.36)"/>
    <ellipse class="cls-28" cx="337.99" cy="287.46" rx="2.22" ry="4.81" transform="translate(-101.6 227.17) rotate(-32.57)"/>
    <ellipse class="cls-28" cx="321.52" cy="253.95" rx="1.78" ry="3.85" transform="translate(-74.36 148.39) rotate(-23.37)"/>
    <ellipse class="cls-28" cx="332.23" cy="170.37" rx="6.93" ry="3.2" transform="translate(-3.03 334.69) rotate(-53.26)"/>
    <ellipse class="cls-28" cx="293.88" cy="218.52" rx="2.52" ry="5.46" transform="translate(-71.58 195) rotate(-32.95)"/>
    <ellipse class="cls-28" cx="265.26" cy="250.62" rx="2.22" ry="4.81" transform="translate(-98.32 281.95) rotate(-48.3)"/>
    <ellipse class="cls-28" cx="256.18" cy="210.9" rx="4.26" ry="1.97" transform="translate(10.78 434.26) rotate(-81.77)"/>
    <ellipse class="cls-28" cx="276.67" cy="148.91" rx="2.27" ry="4.93" transform="translate(-27.07 229.28) rotate(-43.11)"/>
    <ellipse class="cls-28" cx="254.74" cy="142.55" rx="5.6" ry="2.59" transform="translate(30.59 329.56) rotate(-69.07)"/>
    <ellipse class="cls-28" cx="170.07" cy="200.38" rx="2.9" ry="6.27" transform="translate(-25.71 25.03) rotate(-7.83)"/>
    <ellipse class="cls-28" cx="223.19" cy="112.46" rx="1.81" ry="3.93" transform="translate(22.79 261.79) rotate(-63.43)"/>
    <ellipse class="cls-28" cx="154.48" cy="164.39" rx="2.23" ry="4.84" transform="translate(-60.02 234.23) rotate(-64.82)"/>
    <ellipse class="cls-28" cx="211.24" cy="62.89" rx="2.02" ry="4.38" transform="translate(70.51 232.51) rotate(-66.9)"/>
    <ellipse class="cls-28" cx="168.76" cy="70.12" rx="6.34" ry="2.93" transform="translate(22.48 179.67) rotate(-59.39)"/>
    <ellipse class="cls-28" cx="115.45" cy="123.46" rx="6.7" ry="3.09" transform="translate(-48.43 164.89) rotate(-61.11)"/>
    <ellipse class="cls-28" cx="120.59" cy="78.23" rx="1.77" ry="3.83" transform="translate(-18.58 42.28) rotate(-18.49)"/>
    <ellipse class="cls-28" cx="130.8" cy="14.03" rx="1.8" ry="3.91" transform="translate(-.66 18.9) rotate(-8.24)"/>
    <ellipse class="cls-28" cx="92.16" cy="44.9" rx="2.02" ry="4.37" transform="translate(-9.08 28.79) rotate(-16.93)"/>
    <ellipse class="cls-28" cx="78.56" cy="46.06" rx="2.25" ry="4.88" transform="translate(-4.3 8.27) rotate(-5.87)"/>
    <ellipse class="cls-28" cx="57.44" cy="30.54" rx="2.94" ry="6.36" transform="translate(-6.02 16.25) rotate(-15.31)"/>
    <ellipse class="cls-28" cx="59.06" cy="97.25" rx="5.28" ry="2.44" transform="translate(-52.91 117.46) rotate(-68.96)"/>
  </g>
  <g>
    <ellipse class="cls-19" cx="46.49" cy="370.87" rx="4.82" ry="2.23" transform="translate(-307.51 250.91) rotate(-64.13)"/>
    <ellipse class="cls-19" cx="3.43" cy="336" rx="2.41" ry="5.22" transform="translate(-120.86 23.81) rotate(-21.12)"/>
    <ellipse class="cls-19" cx="99.44" cy="318.62" rx="5.83" ry="2.69" transform="translate(-156.31 104.14) rotate(-32.68)"/>
    <ellipse class="cls-19" cx="140.56" cy="331.84" rx="5.98" ry="2.76" transform="translate(-218.97 356.49) rotate(-70.97)"/>
    <ellipse class="cls-19" cx="52.75" cy="267.88" rx="6.52" ry="3.01" transform="translate(-179.55 124.43) rotate(-47.16)"/>
    <ellipse class="cls-19" cx="100.16" cy="258.09" rx="1.97" ry="4.27" transform="translate(-167.26 186.46) rotate(-53.79)"/>
    <ellipse class="cls-19" cx="68.24" cy="206.81" rx="4.34" ry="2" transform="translate(-139.78 142.34) rotate(-54.52)"/>
    <ellipse class="cls-19" cx="77.09" cy="188.19" rx="2.45" ry="5.32" transform="translate(-69.46 47.18) rotate(-23.83)"/>
    <ellipse class="cls-19" cx="170.28" cy="241.83" rx="3.94" ry="1.82" transform="translate(-124.55 265.38) rotate(-59.42)"/>
    <ellipse class="cls-19" cx="172.49" cy="226.56" rx="2.91" ry="6.3" transform="translate(-101.73 149.83) rotate(-37.08)"/>
    <ellipse class="cls-19" cx="168.56" cy="207.46" rx="2.73" ry="5.92" transform="translate(-87.34 130.2) rotate(-34.11)"/>
    <ellipse class="cls-19" cx="159.42" cy="174.94" rx="4.83" ry="2.23" transform="translate(-19.44 329.95) rotate(-88.57)"/>
    <ellipse class="cls-19" cx="153.32" cy="149.66" rx="6.16" ry="2.85" transform="translate(-60.24 132.39) rotate(-39.69)"/>
    <ellipse class="cls-19" cx="128.91" cy="120.47" rx="5.29" ry="2.44" transform="translate(-46.05 97.69) rotate(-35.64)"/>
    <ellipse class="cls-19" cx="184.83" cy="134.84" rx="7.03" ry="3.24" transform="translate(42.53 313.99) rotate(-87.65)"/>
    <ellipse class="cls-19" cx="174.03" cy="106.86" rx="2.99" ry="6.47" transform="translate(-22.25 163.25) rotate(-47.58)"/>
    <ellipse class="cls-19" cx="183.47" cy="85.36" rx="2.1" ry="4.55" transform="translate(-18.1 67.52) rotate(-19.89)"/>
    <ellipse class="cls-19" cx="179.38" cy="52" rx="4.87" ry="2.25" transform="translate(78.47 209.16) rotate(-73.46)"/>
    <ellipse class="cls-19" cx="284.31" cy="120.34" rx="6.03" ry="2.78" transform="translate(112.57 376.9) rotate(-79.14)"/>
    <ellipse class="cls-19" cx="263.43" cy="40.11" rx="7.28" ry="3.36" transform="translate(201.59 299.31) rotate(-85.24)"/>
    <ellipse class="cls-19" cx="287.52" cy="15.65" rx="2.46" ry="5.34" transform="translate(77.19 212.31) rotate(-46.19)"/>
    <ellipse class="cls-19" cx="319.8" cy="74.38" rx="2.28" ry="4.94" transform="translate(57.71 272.15) rotate(-50.13)"/>
    <ellipse class="cls-19" cx="331.4" cy="67.53" rx="2.36" ry="5.12" transform="translate(121.42 332.67) rotate(-63.14)"/>
    <ellipse class="cls-19" cx="357.22" cy="51.4" rx="2.81" ry="6.08" transform="translate(-1.06 8) rotate(-1.28)"/>
    <ellipse class="cls-19" cx="377.58" cy="12.29" rx="2.33" ry="5.05" transform="translate(102.48 271.21) rotate(-45.13)"/>
    <ellipse class="cls-19" cx="400.97" cy="77.35" rx="2.42" ry="5.24" transform="translate(-5.13 120.32) rotate(-16.96)"/>
    <ellipse class="cls-19" cx="415.8" cy="26.48" rx="7.31" ry="3.37" transform="translate(251.21 409.23) rotate(-70.38)"/>
    <ellipse class="cls-19" cx="432.4" cy="29.7" rx="7.14" ry="3.3" transform="translate(357.82 456.66) rotate(-84.02)"/>
    <ellipse class="cls-19" cx="461.68" cy="4.1" rx="5.03" ry="2.32" transform="translate(351.95 452.57) rotate(-76.76)"/>
    <ellipse class="cls-19" cx="478.22" cy="71.59" rx="6.2" ry="2.86" transform="translate(76 339.99) rotate(-42.23)"/>
    <ellipse class="cls-19" cx="506.58" cy="59.06" rx="2.87" ry="6.21" transform="translate(3.73 144.22) rotate(-16.26)"/>
    <ellipse class="cls-19" cx="520.27" cy="96.84" rx="2.95" ry="6.39" transform="translate(193.09 512.78) rotate(-62.36)"/>
    <ellipse class="cls-19" cx="551.58" cy="8.98" rx="2.46" ry="5.32" transform="translate(326.84 512.78) rotate(-66.89)"/>
  </g>
  <g>
    <ellipse class="cls-18" cx="86.71" cy="425.07" rx="6.35" ry="2.93" transform="translate(-295.98 220.73) rotate(-50.37)"/>
    <ellipse class="cls-18" cx="75.83" cy="389.85" rx="2.83" ry="6.13" transform="translate(-238.16 146.65) rotate(-41.23)"/>
    <ellipse class="cls-18" cx="5.89" cy="371.52" rx="1.84" ry="3.99" transform="translate(-139.07 29.4) rotate(-22.05)"/>
    <ellipse class="cls-18" cx="49.98" cy="361.98" rx="2.99" ry="6.48" transform="translate(-276.86 198.58) rotate(-55.58)"/>
    <ellipse class="cls-18" cx="89.31" cy="336.93" rx="5.69" ry="2.62" transform="translate(-212.31 162.22) rotate(-45.07)"/>
    <ellipse class="cls-18" cx="35.53" cy="317.23" rx="1.99" ry="4.32" transform="translate(-238.29 153.15) rotate(-52.68)"/>
    <ellipse class="cls-18" cx="74.22" cy="301.3" rx="2.68" ry="5.8" transform="translate(-227.04 226.94) rotate(-62.3)"/>
    <ellipse class="cls-18" cx="9.88" cy="253.74" rx="2.99" ry="6.48" transform="translate(-224.7 156.51) rotate(-65.26)"/>
    <ellipse class="cls-18" cx="115.55" cy="268.23" rx="5.42" ry="2.5" transform="translate(-176.48 272.75) rotate(-67.58)"/>
    <ellipse class="cls-18" cx="78.59" cy="238.04" rx="1.9" ry="4.12" transform="translate(-170.73 212.02) rotate(-65.77)"/>
    <ellipse class="cls-18" cx="87.74" cy="220.6" rx="6.27" ry="2.89" transform="translate(-138.47 148.55) rotate(-50.64)"/>
    <ellipse class="cls-18" cx="76.83" cy="179.96" rx="2.21" ry="4.79" transform="translate(-108.46 117.08) rotate(-48.14)"/>
    <ellipse class="cls-18" cx="122.74" cy="209.2" rx="5.08" ry="2.34" transform="translate(-119.44 222.55) rotate(-62.76)"/>
    <ellipse class="cls-18" cx="77.32" cy="114.46" rx="5.28" ry="2.43" transform="translate(-57.39 144.99) rotate(-68.73)"/>
    <ellipse class="cls-18" cx="161.89" cy="193.58" rx="2.62" ry="5.68" transform="translate(-80.2 264.81) rotate(-66.49)"/>
    <ellipse class="cls-18" cx="165.13" cy="153.79" rx="2.85" ry="6.17" transform="translate(-60.37 162.24) rotate(-45.11)"/>
    <ellipse class="cls-18" cx="172.8" cy="85.3" rx="4.08" ry="1.88" transform="translate(12.66 192.51) rotate(-60.07)"/>
    <ellipse class="cls-18" cx="187.81" cy="67.13" rx="3.31" ry="7.18" transform="translate(-11.57 72.37) rotate(-21.17)"/>
    <ellipse class="cls-18" cx="197.59" cy="55.9" rx="2.21" ry="4.78" transform="translate(26.44 169.37) rotate(-49.34)"/>
    <ellipse class="cls-18" cx="230.05" cy="169.52" rx="2.56" ry="5.54" transform="translate(-48.33 234.07) rotate(-49.44)"/>
    <ellipse class="cls-18" cx="255.78" cy="95.27" rx="1.93" ry="4.18" transform="translate(-14.47 133.52) rotate(-28.48)"/>
    <ellipse class="cls-18" cx="282.9" cy="92.66" rx="4.77" ry="2.2" transform="translate(43.43 269.51) rotate(-54.58)"/>
    <ellipse class="cls-18" cx="306.18" cy="97.31" rx="2.85" ry="6.16" transform="translate(101.48 344.93) rotate(-68.05)"/>
    <ellipse class="cls-18" cx="304.79" cy="178.2" rx="1.86" ry="4.02" transform="translate(-44.55 229.34) rotate(-38.64)"/>
    <ellipse class="cls-18" cx="347.72" cy="126" rx="2.25" ry="4.87" transform="translate(1.65 256.46) rotate(-40.57)"/>
    <ellipse class="cls-18" cx="360" cy="145.58" rx="4.44" ry="2.05" transform="translate(64.43 397.44) rotate(-62.45)"/>
    <ellipse class="cls-18" cx="402.57" cy="101.72" rx="3.03" ry="6.57" transform="translate(-7.95 164.03) rotate(-22.81)"/>
    <ellipse class="cls-18" cx="432.8" cy="124.05" rx="2.9" ry="6.29" transform="translate(95.89 422.71) rotate(-57.55)"/>
    <ellipse class="cls-18" cx="404.43" cy="199.4" rx="3.24" ry="7.03" transform="translate(-45.82 174.85) rotate(-23.12)"/>
    <ellipse class="cls-18" cx="402.22" cy="255.07" rx="2.29" ry="4.96" transform="translate(-12.33 489.58) rotate(-61.88)"/>
    <ellipse class="cls-18" cx="474.51" cy="160.79" rx="2.96" ry="6.41" transform="translate(-1.92 315.79) rotate(-36.74)"/>
    <ellipse class="cls-18" cx="485.83" cy="198.5" rx="7.13" ry="3.29" transform="translate(-26.98 310.13) rotate(-34.51)"/>
    <ellipse class="cls-18" cx="480.06" cy="237.6" rx="2.8" ry="6.08" transform="translate(-45.86 136.02) rotate(-15.4)"/>
    <ellipse class="cls-18" cx="543.97" cy="185.24" rx="2.8" ry="6.06" transform="translate(-24.43 269.73) rotate(-27.26)"/>
    <ellipse class="cls-18" cx="533.81" cy="222.59" rx="2.13" ry="4.61" transform="translate(46.02 533.33) rotate(-55.13)"/>
    <ellipse class="cls-18" cx="531.5" cy="293.36" rx="1.94" ry="4.2" transform="translate(-61.63 163.93) rotate(-16.59)"/>
    <ellipse class="cls-18" cx="531.24" cy="318.8" rx="4.71" ry="2.17" transform="translate(134.64 794.79) rotate(-81.17)"/>
    <ellipse class="cls-18" cx="563.79" cy="336.94" rx="5.07" ry="2.34" transform="translate(-88.68 412.31) rotate(-37.45)"/>
    <ellipse class="cls-18" cx="539.73" cy="401.69" rx="5.56" ry="2.57" transform="translate(19.91 828.82) rotate(-76.07)"/>
    <ellipse class="cls-18" cx="526.37" cy="431.1" rx="4.71" ry="2.17" transform="translate(-141.61 560.43) rotate(-50.28)"/>
    <ellipse class="cls-18" cx="480.76" cy="393.06" rx="5.06" ry="2.34" transform="translate(-93.47 629.48) rotate(-61.65)"/>
    <ellipse class="cls-18" cx="506.5" cy="480.28" rx="2.8" ry="6.06" transform="translate(-186.73 561.86) rotate(-50.19)"/>
  </g>
  <g>
    <ellipse class="cls-31" cx="528.51" cy="228.43" rx="2.11" ry="4.57" transform="translate(-34.81 347.51) rotate(-35.31)"/>
    <ellipse class="cls-31" cx="518.44" cy="214.01" rx="2.37" ry="5.13" transform="translate(-16.88 381.37) rotate(-39.79)"/>
    <ellipse class="cls-31" cx="550.03" cy="276.47" rx="3.1" ry="6.72" transform="translate(-65.5 285.99) rotate(-27.57)"/>
    <ellipse class="cls-31" cx="547.39" cy="349.75" rx="2.21" ry="4.78" transform="translate(-82.16 189.64) rotate(-18.31)"/>
    <ellipse class="cls-31" cx="489.1" cy="269.9" rx="5.24" ry="2.42" transform="translate(73.71 643.41) rotate(-70.85)"/>
    <ellipse class="cls-31" cx="482.42" cy="293.54" rx="7.01" ry="3.24" transform="translate(-65.82 428.95) rotate(-45.19)"/>
    <ellipse class="cls-31" cx="461.03" cy="325.04" rx="2.19" ry="4.75" transform="translate(-73.39 505.59) rotate(-53.85)"/>
    <ellipse class="cls-31" cx="425.8" cy="267.69" rx="6.84" ry="3.16" transform="translate(151 688.94) rotate(-89.04)"/>
    <ellipse class="cls-31" cx="402.15" cy="322.86" rx="5.39" ry="2.49" transform="translate(-96.47 454.54) rotate(-53.55)"/>
    <ellipse class="cls-31" cx="396.44" cy="299.48" rx="2.31" ry="5" transform="translate(-88.81 406.16) rotate(-49.47)"/>
    <ellipse class="cls-31" cx="371.86" cy="365.46" rx="2.86" ry="6.19" transform="translate(-136.84 479.76) rotate(-57.17)"/>
    <ellipse class="cls-31" cx="360.05" cy="361.33" rx="1.77" ry="3.84" transform="translate(-124.15 200.88) rotate(-26.77)"/>
    <ellipse class="cls-31" cx="356.68" cy="302.8" rx="6" ry="2.77" transform="translate(-75.42 482.25) rotate(-62.88)"/>
    <ellipse class="cls-31" cx="341.9" cy="333.49" rx="6.8" ry="3.14" transform="translate(-91.49 534.22) rotate(-69.14)"/>
    <ellipse class="cls-31" cx="334.27" cy="287.89" rx="1.82" ry="3.93" transform="translate(-15.93 19.61) rotate(-3.28)"/>
    <ellipse class="cls-31" cx="294.15" cy="338.84" rx="6.49" ry="3" transform="translate(-142.54 441.95) rotate(-62.32)"/>
    <ellipse class="cls-31" cx="296.74" cy="240.9" rx="6.2" ry="2.86" transform="translate(-40.07 421.58) rotate(-67.28)"/>
    <ellipse class="cls-31" cx="253.79" cy="289.87" rx="2.26" ry="4.89" transform="translate(-83.51 103.69) rotate(-19.9)"/>
    <ellipse class="cls-31" cx="216.26" cy="311.18" rx="4.56" ry="2.1" transform="translate(-153.83 229.73) rotate(-42.79)"/>
    <ellipse class="cls-31" cx="232.9" cy="225.31" rx="1.81" ry="3.93" transform="translate(-80.39 308.12) rotate(-58.86)"/>
    <ellipse class="cls-31" cx="159.06" cy="296.8" rx="1.83" ry="3.97" transform="translate(-175.43 257.98) rotate(-55.19)"/>
    <ellipse class="cls-31" cx="200.08" cy="212.04" rx="3.23" ry="7" transform="translate(-82.91 141.98) rotate(-32.76)"/>
    <ellipse class="cls-31" cx="169.61" cy="208.64" rx="2.88" ry="6.23" transform="translate(-12.58 10.89) rotate(-3.55)"/>
    <ellipse class="cls-31" cx="102.03" cy="266.94" rx="4.59" ry="2.12" transform="translate(-158.91 150.42) rotate(-45.02)"/>
    <ellipse class="cls-31" cx="91.72" cy="242.59" rx="6.71" ry="3.1" transform="translate(-164.98 279.6) rotate(-77.49)"/>
    <ellipse class="cls-31" cx="81" cy="219.86" rx="7.03" ry="3.25" transform="translate(-153.14 228.58) rotate(-71.91)"/>
    <ellipse class="cls-31" cx="70.49" cy="206.43" rx="2.98" ry="6.46" transform="translate(-130.64 121.99) rotate(-48.37)"/>
    <ellipse class="cls-31" cx="53.6" cy="218.64" rx="1.97" ry="4.26" transform="translate(-155.69 135.72) rotate(-54.61)"/>
    <ellipse class="cls-31" cx="48" cy="191.07" rx="6.58" ry="3.04" transform="translate(-115.43 81.06) rotate(-41.95)"/>
    <ellipse class="cls-31" cx="29.92" cy="99.12" rx="3.19" ry="6.92" transform="translate(-42.35 24.98) rotate(-27.47)"/>
    <ellipse class="cls-31" cx="11.8" cy="128.3" rx="5.54" ry="2.56" transform="translate(-116.4 115.56) rotate(-79.07)"/>
  </g>
</svg>