<?xml version="1.0" encoding="UTF-8"?>
<svg id="Layer_5" data-name="Layer 5" xmlns="http://www.w3.org/2000/svg" xmlns:xlink="http://www.w3.org/1999/xlink" viewBox="0 0 443.41 534.03">
  <defs>
    <style>
      .cls-1 {
        fill: url(#radial-gradient-2);
      }

      .cls-1, .cls-2, .cls-3, .cls-4 {
        stroke-width: 1.28px;
      }

      .cls-1, .cls-2, .cls-3, .cls-4, .cls-5, .cls-6 {
        stroke-miterlimit: 10;
      }

      .cls-1, .cls-2, .cls-4 {
        stroke: #f97dcd;
      }

      .cls-2 {
        fill: url(#radial-gradient);
      }

      .cls-7 {
        fill: url(#radial-gradient-7);
      }

      .cls-8 {
        fill: url(#radial-gradient-6);
      }

      .cls-9 {
        fill: url(#radial-gradient-5);
      }

      .cls-10 {
        fill: url(#radial-gradient-4);
      }

      .cls-11 {
        fill: url(#radial-gradient-3);
      }

      .cls-12 {
        fill: url(#linear-gradient-5);
      }

      .cls-13 {
        fill: url(#linear-gradient-4);
      }

      .cls-14 {
        fill: url(#linear-gradient-3);
      }

      .cls-15 {
        fill: url(#linear-gradient-2);
      }

      .cls-16 {
        fill: url(#linear-gradient);
      }

      .cls-3 {
        fill: url(#radial-gradient-8);
        stroke: url(#radial-gradient-9);
      }

      .cls-4, .cls-5, .cls-6 {
        fill: none;
      }

      .cls-17 {
        fill: url(#radial-gradient-16);
      }

      .cls-18 {
        fill: url(#radial-gradient-12);
      }

      .cls-19 {
        fill: url(#radial-gradient-14);
      }

      .cls-20 {
        fill: url(#radial-gradient-13);
      }

      .cls-21 {
        fill: url(#radial-gradient-10);
      }

      .cls-22 {
        fill: url(#radial-gradient-17);
      }

      .cls-23 {
        fill: url(#radial-gradient-11);
      }

      .cls-24 {
        fill: url(#radial-gradient-15);
      }

      .cls-25 {
        fill: #d9bbfe;
      }

      .cls-5 {
        stroke-width: 7.69px;
      }

      .cls-5, .cls-6 {
        stroke: #d9bbfe;
        stroke-linecap: round;
      }

      .cls-6 {
        stroke-width: 30.75px;
      }
    </style>
    <linearGradient id="linear-gradient" x1="154.35" y1="248.08" x2="300.9" y2="248.08" gradientUnits="userSpaceOnUse">
      <stop offset="0" stop-color="#553d00"/>
      <stop offset="0" stop-color="#fff"/>
      <stop offset="0" stop-color="#fff"/>
      <stop offset="0" stop-color="#2a0001"/>
      <stop offset="1" stop-color="#2a000f"/>
      <stop offset="1" stop-color="#000"/>
    </linearGradient>
    <radialGradient id="radial-gradient" cx="193.49" cy="120.51" fx="193.49" fy="120.51" r="37.08" gradientUnits="userSpaceOnUse">
      <stop offset="0" stop-color="#553d00"/>
      <stop offset="0" stop-color="#fff"/>
      <stop offset="0" stop-color="#fff"/>
      <stop offset="0" stop-color="#ffe8bf"/>
      <stop offset="1" stop-color="#fff"/>
    </radialGradient>
    <radialGradient id="radial-gradient-2" cx="271.48" fx="271.48" r="37.08" xlink:href="#radial-gradient"/>
    <radialGradient id="radial-gradient-3" cx="193.49" cy="120.51" fx="193.49" fy="120.51" r="17.87" gradientUnits="userSpaceOnUse">
      <stop offset=".57" stop-color="#62dabf"/>
      <stop offset="1" stop-color="#d6bcfc"/>
      <stop offset="1" stop-color="#d9bbfe"/>
    </radialGradient>
    <radialGradient id="radial-gradient-4" cx="271.48" cy="120.51" fx="271.48" fy="120.51" r="13.53" gradientUnits="userSpaceOnUse">
      <stop offset="0" stop-color="#62dabf"/>
      <stop offset=".53" stop-color="#d1bdfa"/>
      <stop offset="1" stop-color="#d6bcfc"/>
      <stop offset="1" stop-color="#d9bbfe"/>
    </radialGradient>
    <radialGradient id="radial-gradient-5" cx="194.24" cy="120.51" fx="194.24" fy="120.51" r="7.52" gradientUnits="userSpaceOnUse">
      <stop offset="0" stop-color="#553d00"/>
      <stop offset="1" stop-color="#000"/>
      <stop offset="1" stop-color="#d6bcfc"/>
      <stop offset="1" stop-color="#550015"/>
    </radialGradient>
    <radialGradient id="radial-gradient-6" cx="271.48" cy="120.51" fx="271.48" fy="120.51" r="4.32" xlink:href="#radial-gradient-5"/>
    <radialGradient id="radial-gradient-7" cx="222.77" cy="269.75" fx="222.77" fy="269.75" r="53.67" gradientUnits="userSpaceOnUse">
      <stop offset="0" stop-color="#553d00"/>
      <stop offset="0" stop-color="#fff"/>
      <stop offset="0" stop-color="#fff"/>
      <stop offset="0" stop-color="#c20a0f"/>
      <stop offset="0" stop-color="#bf0005"/>
      <stop offset="0" stop-color="#bf0005"/>
      <stop offset=".64" stop-color="#ba0005"/>
      <stop offset="1" stop-color="#2a000f"/>
    </radialGradient>
    <radialGradient id="radial-gradient-8" cx="178.84" cy="215.78" fx="178.84" fy="215.78" r="9.77" xlink:href="#radial-gradient"/>
    <radialGradient id="radial-gradient-9" cx="178.87" cy="215.78" fx="178.87" fy="215.78" r="10.5" xlink:href="#radial-gradient"/>
    <radialGradient id="radial-gradient-10" cx="209.05" cy="216.97" fx="209.05" fy="216.97" r="7.73" xlink:href="#radial-gradient"/>
    <radialGradient id="radial-gradient-11" cx="235.37" cy="222.15" fx="235.37" fy="222.15" r="8.25" xlink:href="#radial-gradient"/>
    <radialGradient id="radial-gradient-12" cx="265.13" cy="228.21" fx="265.13" fy="228.21" r="8.06" xlink:href="#radial-gradient"/>
    <radialGradient id="radial-gradient-13" cx="265.09" cy="267.98" fx="265.09" fy="267.98" r="8.13" xlink:href="#radial-gradient"/>
    <radialGradient id="radial-gradient-14" cx="242.46" cy="278.5" fx="242.46" fy="278.5" r="8.65" xlink:href="#radial-gradient"/>
    <radialGradient id="radial-gradient-15" cx="211.55" cy="279.97" fx="211.55" fy="279.97" r="8.21" xlink:href="#radial-gradient"/>
    <radialGradient id="radial-gradient-16" cx="180.77" cy="267.75" fx="180.77" fy="267.75" r="8.81" xlink:href="#radial-gradient"/>
    <radialGradient id="radial-gradient-17" cx="287.45" cy="224.84" fx="287.45" fy="224.84" r="7.1" xlink:href="#radial-gradient"/>
    <linearGradient id="linear-gradient-2" x1="-4439.79" y1="-3071.23" x2="-4432.14" y2="-3071.23" gradientTransform="translate(-4397.8 -2884.19) rotate(-180)" xlink:href="#linear-gradient"/>
    <linearGradient id="linear-gradient-3" x1="-4446" y1="-3058.78" x2="-4425.55" y2="-3058.78" gradientTransform="translate(-5354.2 6.33) rotate(147.22)" xlink:href="#linear-gradient"/>
    <linearGradient id="linear-gradient-4" x1="-6587.67" y1="59.53" x2="-6580.02" y2="59.53" gradientTransform="translate(347.05 -6402.82) rotate(-90)" xlink:href="#linear-gradient"/>
    <linearGradient id="linear-gradient-5" x1="-6593.88" y1="71.98" x2="-6573.43" y2="71.98" gradientTransform="translate(-5465.6 -2796.91) rotate(-152.59)" xlink:href="#linear-gradient"/>
  </defs>
  <ellipse class="cls-25" cx="227.43" cy="200.95" rx="145.1" ry="195.63"/>
  <path class="cls-16" d="M274.09,263.89c-1,.97-2.04,1.91-3.09,2.82-1.26,1.08-2.55,2.11-3.91,3.13-.53.4-1.05.78-1.59,1.15-.72.51-1.46,1.01-2.2,1.5l-1.09.7c-.56.36-1.13.7-1.7,1.05-.49.29-.99.59-1.49.87,0,0,0,.01-.01.01-.49.28-.97.55-1.46.82-.5.26-.99.53-1.49.78-1,.53-2.01,1.03-3.05,1.5-.94.44-1.88.86-2.84,1.26-.67.28-1.33.55-2,.81-.24.1-.5.2-.76.29-.67.26-1.35.5-2.02.73-.42.14-.86.29-1.31.44-.44.15-.88.29-1.32.42-.44.14-.88.27-1.33.4-.67.19-1.33.37-2.01.55-.68.18-1.36.35-2.04.5-.45.1-.9.21-1.36.29-.69.15-1.37.29-2.06.41-.67.13-1.35.24-2.02.35h-.04c-.12.03-.24.04-.36.05-.47.08-.95.14-1.41.19-.27.05-.55.08-.83.1-.51.06-1.04.12-1.56.17-1.04.1-2.09.18-3.14.22-.37.03-.76.04-1.14.05h-.27c-.27.01-.54.01-.81.01-.2.01-.41.01-.62.01-.62.01-1.24,0-1.86-.03-.35,0-.69-.01-1.03-.03-.36-.01-.7-.03-1.06-.05-.41-.03-.81-.05-1.22-.08-.4-.03-.81-.06-1.2-.1-.41-.04-.81-.08-1.22-.13-.32-.03-.64-.06-.95-.12-.49-.06-.99-.13-1.47-.21-.6-.09-1.2-.19-1.81-.31-.21-.04-.41-.08-.6-.12-.41-.08-.81-.15-1.2-.24-.5-.1-.99-.22-1.49-.35-.05-.01-.1-.03-.15-.04l-.77-.19c-1.49-.37-2.95-.82-4.41-1.32-.74-.26-1.47-.53-2.2-.82-.58-.22-1.14-.45-1.7-.69-.41-.17-.81-.35-1.2-.53-.59-.27-1.18-.55-1.77-.85-.31-.15-.62-.31-.91-.46-.31-.15-.62-.31-.91-.47-.59-.32-1.17-.64-1.76-.97-.51-.29-1.02-.6-1.54-.92-.06-.04-.13-.09-.19-.12-1.83-1.15-3.63-2.41-5.38-3.79-1.81-1.42-3.59-2.97-5.32-4.64-2.32-2.22-4.56-4.63-6.68-7.16-12.97-15.54-21.17-35.57-15.68-44.09,1.83-2.84,5.28-4.52,9.92-5.34,6.55-1.18,15.49-.65,25.68.69,2.32.31,4.7.67,7.15,1.05,6.53,1.03,13.43,2.28,20.44,3.56,1.78.33,3.58.67,5.36,1,7.23,1.32,14.49,2.63,21.5,3.7,3.09.47,6.12.9,9.08,1.27,7.14.87,13.86,1.37,19.85,1.27,1.2-.03,2.37-.08,3.5-.15,5.82-.37,10.78-1.46,14.52-3.54,1.02-.56,1.96-1.19,2.79-1.91.94-.79,3.79-3.46,4.69-2.67,2.36,2.1-7.55,30.06-26.46,48.28Z"/>
  <circle class="cls-2" cx="193.49" cy="120.51" r="37.08"/>
  <circle class="cls-1" cx="271.48" cy="120.51" r="37.08"/>
  <circle class="cls-11" cx="193.49" cy="120.51" r="17.87"/>
  <circle class="cls-10" cx="271.48" cy="120.51" r="13.53"/>
  <path class="cls-4" d="M294.97,91.83c0-10.87,8.79-19.66,19.66-19.66"/>
  <path class="cls-4" d="M275.32,83.43c0-10.87,8.79-19.66,19.66-19.66"/>
  <path class="cls-4" d="M169.21,91.83c0-10.87-8.79-19.66-19.66-19.66"/>
  <path class="cls-4" d="M188.87,83.43c0-10.87-8.79-19.66-19.66-19.66"/>
  <circle class="cls-9" cx="194.24" cy="120.51" r="7.52"/>
  <circle class="cls-8" cx="271.48" cy="120.51" r="4.32"/>
  <path class="cls-7" d="M267.1,269.84c-.53.4-1.05.78-1.59,1.15-.72.51-1.46,1.01-2.2,1.5l-1.09.7c-.56.36-1.13.7-1.7,1.05-.49.29-.99.59-1.49.87,0,0,0,.01-.01.01-.49.28-.97.55-1.46.82-.5.26-.99.53-1.49.78-1,.53-2.01,1.03-3.05,1.5-.94.44-1.88.86-2.84,1.26-.67.28-1.33.55-2,.81-.24.1-.5.2-.76.29-.67.26-1.35.5-2.02.73-.42.14-.86.29-1.31.44-.44.15-.88.29-1.32.42-.44.14-.88.27-1.33.4-.67.19-1.33.37-2.01.55-.68.18-1.36.35-2.04.5-.45.1-.9.21-1.36.29-.69.15-1.37.29-2.06.41-.67.13-1.35.24-2.02.35h-.04c-.12.03-.24.04-.36.05-.47.08-.95.14-1.41.19-.27.05-.55.08-.83.1-.51.06-1.04.12-1.56.17-1.04.1-2.09.18-3.14.22-.37.03-.76.04-1.14.05h-.27c-.27.01-.54.01-.81.01-.2.01-.41.01-.62.01-.62.01-1.24,0-1.86-.03-.35,0-.69-.01-1.03-.03-.36-.01-.7-.03-1.06-.05-.41-.03-.81-.05-1.22-.08-.4-.03-.81-.06-1.2-.1-.41-.04-.81-.08-1.22-.13-.32-.03-.64-.06-.95-.12-.49-.06-.99-.13-1.47-.21-.6-.09-1.2-.19-1.81-.31-.21-.04-.41-.08-.6-.12-.41-.08-.81-.15-1.2-.24-.5-.1-.99-.22-1.49-.35-.05-.01-.1-.03-.15-.04l-.77-.19c-1.49-.37-2.95-.82-4.41-1.32-.74-.26-1.47-.53-2.2-.82-.58-.22-1.14-.45-1.7-.69-.41-.17-.81-.35-1.2-.53-.59-.27-1.18-.55-1.77-.85-.31-.15-.62-.31-.91-.46-.31-.15-.62-.31-.91-.47-.59-.32-1.17-.64-1.76-.97-.51-.29-1.02-.6-1.54-.92-.06-.04-.13-.09-.19-.12-1.83-1.15-3.63-2.41-5.38-3.79-1.81-1.42-3.59-2.97-5.32-4.64,2.15-1.93,4.66-3.72,7.46-5.3,9.37-5.33,22-8.61,35.89-8.61,15.07,0,28.65,3.86,38.18,10.02,2.73,1.76,5.13,3.7,7.12,5.8Z"/>
  <path class="cls-3" d="M191.68,212.02c-1.92,5.16-6.89,8.85-12.72,8.85s-11.25-4.01-12.95-9.55c6.55-1.18,15.49-.65,25.68.69Z"/>
  <path class="cls-21" d="M219.27,216.63c-2.26,2.6-5.51,4.24-9.11,4.24-5.06,0-9.4-3.2-11.33-7.8,6.53,1.03,13.43,2.28,20.44,3.56Z"/>
  <path class="cls-23" d="M246.12,221.34c-2.22,3.24-5.8,5.33-9.85,5.33-5.43,0-10.06-3.78-11.65-9.03,7.23,1.32,14.49,2.63,21.5,3.7Z"/>
  <path class="cls-18" d="M275.06,223.87c-1.41,5.79-5.27,9.93-9.79,9.93-4.86,0-8.92-4.77-10.06-11.2,7.14.87,13.86,1.37,19.85,1.27Z"/>
  <path class="cls-20" d="M274.09,263.89c-1,.97-2.04,1.91-3.09,2.82-1.26,1.08-2.55,2.11-3.91,3.13-.53.4-1.05.78-1.59,1.15-.72.51-1.46,1.01-2.2,1.5l-1.09.7c-.56.36-1.13.7-1.7,1.05-.49.29-.99.59-1.49.87,0,0,0,.01-.01.01-.97,0-1.95-.01-2.91-.05-.01-.23-.01-.47-.01-.72,0-4.14,1.51-7.84,3.88-10.33,1.93-2,4.42-3.2,7.12-3.2s5.09,1.15,7,3.06Z"/>
  <path class="cls-19" d="M253.02,278.23c-.94.44-1.88.86-2.84,1.26-.67.28-1.33.55-2,.81-.24.1-.5.2-.76.29-.67.26-1.35.5-2.02.73-.42.14-.86.29-1.31.44-.44.15-.88.29-1.32.42-.44.14-.88.27-1.33.4-.67.19-1.33.37-2.01.55-.68.18-1.36.35-2.04.5-.45.1-.9.21-1.36.29-.69.15-1.37.29-2.06.41-.67.13-1.35.24-2.02.35h-.04c.31-6.88,5.33-12.35,11.48-12.35,4.04,0,7.59,2.34,9.64,5.91Z"/>
  <path class="cls-24" d="M221.76,285.48c-.62.01-1.24,0-1.86-.03-.35,0-.69-.01-1.03-.03-.36-.01-.7-.03-1.06-.05-.41-.03-.81-.05-1.22-.08-.4-.03-.81-.06-1.2-.1-.41-.04-.81-.08-1.22-.13-.32-.03-.64-.06-.95-.12-.49-.06-.99-.13-1.47-.21-.6-.09-1.2-.19-1.81-.31-.21-.04-.41-.08-.6-.12-.41-.08-.81-.15-1.2-.24-.5-.1-.99-.22-1.49-.35-.05-.01-.1-.03-.15-.04l-.77-.19c-1.49-.37-2.95-.82-4.41-1.32,1.7-4.57,5.46-7.74,9.8-7.74,5.33,0,9.75,4.77,10.64,11.03Z"/>
  <path class="cls-17" d="M189.78,272.17c0,1.47-.23,2.87-.64,4.19-1.83-1.15-3.63-2.41-5.38-3.79-1.81-1.42-3.59-2.97-5.32-4.64-2.32-2.22-4.56-4.63-6.68-7.16,1.74-1.03,3.74-1.61,5.87-1.61,3.19,0,6.09,1.32,8.26,3.47,2.38,2.37,3.88,5.78,3.88,9.55Z"/>
  <path class="cls-22" d="M296.35,221.98c-.49,2.88-2.05,5.34-4.54,6.64-4.37,2.26-10.06.06-13.26-4.89,5.82-.37,10.78-1.46,14.52-3.54.55.18,1.17.38,1.79.64.49.36.99.73,1.49,1.15Z"/>
  <line class="cls-6" x1="171.27" y1="378.04" x2="171.27" y2="504.3"/>
  <line class="cls-6" x1="285.14" y1="381.04" x2="285.14" y2="507.3"/>
  <line class="cls-5" x1="130.06" y1="330.09" x2="34.6" y2="181.85"/>
  <rect class="cls-15" x="34.34" y="184.8" width="7.65" height="4.46" transform="translate(-95.18 50.44) rotate(-32.78)"/>
  <path class="cls-14" d="M22.67,182.2c-3.05-4.74-1.68-11.06,3.07-14.12,4.75-3.06,11.07-1.69,14.13,3.05s1.69,11.07-3.06,14.13-11.07,1.69-14.13-3.06Z"/>
  <line class="cls-5" x1="328.14" y1="331.89" x2="409.3" y2="175.36"/>
  <rect class="cls-13" x="404.34" y="177.2" width="4.46" height="7.65" transform="translate(58.71 458.63) rotate(-62.59)"/>
  <path class="cls-12" d="M403.07,165.18c2.6-5.01,8.76-6.96,13.78-4.36,5.02,2.6,6.97,8.77,4.38,13.77-2.6,5.02-8.77,6.97-13.78,4.37-5.02-2.6-6.97-8.77-4.37-13.78Z"/>
</svg>