<?xml version="1.0" encoding="UTF-8"?>
<svg id="Layer_9" data-name="Layer 9" xmlns="http://www.w3.org/2000/svg" viewBox="0 0 443.41 534.03">
  <defs>
    <style>
      .cls-1 {
        stroke: #ff2473;
        stroke-width: 4.08px;
      }

      .cls-1, .cls-2, .cls-3 {
        stroke-linecap: round;
        stroke-miterlimit: 10;
      }

      .cls-1, .cls-3 {
        fill: none;
      }

      .cls-2 {
        fill: #eaf980;
        stroke-width: 6.9px;
      }

      .cls-2, .cls-3 {
        stroke: #eaf980;
      }

      .cls-4 {
        fill: #f4e04d;
      }

      .cls-5 {
        fill: #ff80f0;
      }

      .cls-6 {
        fill: #22ff8b;
      }

      .cls-3 {
        stroke-width: 20.7px;
      }
    </style>
  </defs>
  <path class="cls-6" d="M224.94,522.59c-13.53-25.65-21.32-73.53-16.51-102.11,2.12-12.76,6.91-25.52,9.57-38.29,1.8-8.44,2.6-16.95,2.42-25.53.09-21.68-7.38-42.69-11.32-63.82-1.48-7.45-2.37-17.92-3.14-25.53-1.71-16.97-3.53-33.99-2.77-51.05.32-8.51,1.1-17.02,2.14-25.53,2.16-17.23,5.4-34.25,10.32-51.05,2.54-8.51,5.34-17.02,9.3-25.53.81-1.85,3.7-1.9,4.49,0,7.51,16.57,11.93,33.6,15.53,51.05,3.31,16.9,5.52,33.92,6.24,51.05.75,17.07-1.07,34.08-2.78,51.05-.8,7.69-1.66,18.05-3.14,25.53-3.01,16.92-8.84,33.94-10.54,51.05-1.37,12.79-1.09,25.67,1.64,38.29,2.66,12.77,7.45,25.53,9.57,38.29,2.89,16.96,1.07,34.1-1.23,51.05-1.98,12.87-5.01,25.9-9.64,38.29-1.62,4.25-3.33,8.51-5.63,12.76-.89,1.74-3.61,1.77-4.49,0h0Z"/>
  <g>
    <path class="cls-5" d="M232.22,140.74c221.95,200.8,15.88,208.94-3.14.12,19.02,208.82-215.37,199.38-3.57-.14-211.8,199.52-222.11-90.11-.16-4.41-221.95-85.7-60.48-210.72,2.46-1.9-62.94-208.82,141.42-116.65,3.11,1.4,138.31-118.05,223.25,205.74,1.29,4.93Z"/>
    <path class="cls-1" d="M232.22,140.74c221.95,200.8,15.88,208.94-3.14.12,19.02,208.82-215.37,199.38-3.57-.14-211.8,199.52-222.11-90.11-.16-4.41-221.95-85.7-60.48-210.72,2.46-1.9-62.94-208.82,141.42-116.65,3.11,1.4,138.31-118.05,223.25,205.74,1.29,4.93Z"/>
  </g>
  <g>
    <circle class="cls-2" cx="255.78" cy="111.35" r="32.57"/>
    <line class="cls-3" x1="238.44" y1="135.73" x2="172.58" y2="208.65"/>
    <line class="cls-3" x1="175.95" y1="196.51" x2="162.47" y2="179.66"/>
    <line class="cls-3" x1="196.86" y1="175.61" x2="185.39" y2="162.8"/>
    <circle class="cls-4" cx="255.78" cy="111.35" r="17.2"/>
  </g>
</svg>