<?xml version="1.0" encoding="UTF-8"?>
<svg id="Layer_9" data-name="Layer 9" xmlns="http://www.w3.org/2000/svg" viewBox="0 0 452.21 534.03">
  <defs>
    <style>
      .cls-1, .cls-2 {
        fill: none;
      }

      .cls-3 {
        fill: #a675fc;
      }

      .cls-4 {
        fill: #d9bbfe;
      }

      .cls-2 {
        stroke: #000;
        stroke-linecap: round;
        stroke-miterlimit: 10;
        stroke-width: 3.27px;
      }
    </style>
  </defs>
  <path class="cls-3" d="M305.04,516.14c-28.75-24.13-61.46-77.33-69.86-113.94-4.9-21.6-4.64-45.49-11.46-66.64-1.62-5.28-3.54-10.44-5.73-15.48-4.37-10.18-9.67-19.89-15.78-29.18-9.23-14.06-20.13-27.39-29.08-41.54-5.41-8.15-11.64-20.28-16.3-28.97-10.4-19.44-20.91-38.9-28.44-59.64-3.79-10.33-7.06-20.88-10.02-31.55-7.41-27.15-12.77-55.01-14.28-83.32-.27-5.84-.45-11.71-.14-17.78.09-1.76,1.59-3.11,3.35-3.02.77.04,1.46.35,1.98.83,16.83,15.83,30.81,34.45,43.56,53.42,12.25,18.58,23.24,37.84,32.54,57.95,9.27,20.04,15.52,41.24,21.83,62.37,2.82,9.54,6.93,22.41,8.84,32.04,3.61,16.35,5.27,33.49,8.62,49.97,3.34,16.28,8.51,32.11,16.19,46.85,10.06,19.82,27.07,36.59,38.81,55.37,5.97,9.43,10.47,19.47,14.08,29.88,9.38,26.39,15.89,53.95,17.02,82.19.16,5.88.23,11.8-.41,18.01-.2,2.5-3.42,3.88-5.33,2.2h0Z"/>
  <path class="cls-4" d="M146.57,519.64c-3.79-37.35,9.85-98.3,29.35-130.41,11.55-18.91,28.39-35.85,38.24-55.78,2.52-4.91,4.74-9.95,6.68-15.1,3.96-10.35,6.93-21,9.03-31.92,3.19-16.52,4.67-33.68,8.11-50.06,1.8-9.62,5.79-22.66,8.51-32.13,6.1-21.19,12.13-42.47,21.19-62.6,4.49-10.05,9.49-19.89,14.82-29.61,13.62-24.63,29.2-48.35,47.85-69.7,3.88-4.37,7.84-8.71,12.3-12.85,1.85-1.8,5.29-.49,5.35,2.14,1.03,23.09-1.93,46.18-6.01,68.67-4.17,21.86-9.72,43.34-17.07,64.25-7.32,20.83-17.63,40.39-27.83,59.94-4.62,8.81-10.65,20.9-16,29.14-8.81,14.24-19.57,27.69-28.65,41.84-8.95,14.01-16.29,28.96-21.05,44.88-6.61,21.22-6.1,45.11-10.78,66.76-2.3,10.93-6.07,21.26-10.74,31.24-11.67,25.46-26.22,49.76-45.1,70.8-3.99,4.33-8.06,8.62-12.85,12.63-1.89,1.66-5.15.4-5.35-2.14h0Z"/>
  <polygon class="cls-3" points="107.15 11.44 124.25 169.66 6.11 102.88 107.15 11.44"/>
  <polygon class="cls-4" points="346.45 11.44 329.35 169.66 447.49 102.88 346.45 11.44"/>
  <line class="cls-1" x1="177.34" y1="442.37" x2="194.63" y2="399.15"/>
  <line class="cls-1" x1="212.98" y1="353.29" x2="232.58" y2="304.29"/>
  <line class="cls-2" x1="159.62" y1="484.95" x2="172.64" y2="455.86"/>
  <line class="cls-2" x1="181.46" y1="436.13" x2="194.47" y2="407.04"/>
  <line class="cls-2" x1="202.88" y1="388.23" x2="215.9" y2="359.13"/>
  <line class="cls-2" x1="241.09" y1="281.31" x2="254.1" y2="252.21"/>
  <line class="cls-2" x1="262.24" y1="234.01" x2="275.26" y2="204.91"/>
  <line class="cls-2" x1="282.12" y1="189.56" x2="295.14" y2="160.46"/>
  <line class="cls-2" x1="303.01" y1="142.85" x2="316.03" y2="113.76"/>
  <line class="cls-2" x1="296.95" y1="484.74" x2="283.94" y2="455.64"/>
  <line class="cls-2" x1="275.12" y1="435.92" x2="262.1" y2="406.82"/>
  <line class="cls-2" x1="253.69" y1="388.01" x2="240.68" y2="358.92"/>
  <line class="cls-2" x1="215.49" y1="281.1" x2="202.47" y2="252"/>
  <line class="cls-2" x1="194.33" y1="233.8" x2="181.32" y2="204.7"/>
  <line class="cls-2" x1="174.45" y1="189.35" x2="161.44" y2="160.25"/>
  <line class="cls-2" x1="153.56" y1="142.64" x2="140.55" y2="113.54"/>
</svg>