<?xml version="1.0" encoding="UTF-8"?>
<svg id="Layer_9" data-name="Layer 9" xmlns="http://www.w3.org/2000/svg" xmlns:xlink="http://www.w3.org/1999/xlink" viewBox="0 0 568.86 570.1">
  <defs>
    <style>
      .cls-1 {
        fill: url(#radial-gradient-2);
      }

      .cls-1, .cls-2, .cls-3, .cls-4, .cls-5, .cls-6, .cls-7, .cls-8, .cls-9, .cls-10, .cls-11, .cls-12, .cls-13, .cls-14 {
        stroke-miterlimit: 10;
      }

      .cls-1, .cls-2, .cls-6 {
        stroke: #f97dcd;
        stroke-width: 1.21px;
      }

      .cls-2 {
        fill: url(#radial-gradient);
      }

      .cls-15 {
        fill: url(#radial-gradient-7);
      }

      .cls-16 {
        fill: url(#radial-gradient-6);
      }

      .cls-17 {
        fill: url(#radial-gradient-5);
      }

      .cls-18 {
        fill: url(#radial-gradient-4);
      }

      .cls-19 {
        fill: url(#radial-gradient-9);
      }

      .cls-20 {
        fill: url(#radial-gradient-8);
      }

      .cls-21 {
        fill: url(#radial-gradient-3);
      }

      .cls-3 {
        fill: url(#linear-gradient);
        stroke: #a675fc;
        stroke-width: 12.27px;
      }

      .cls-22 {
        fill: url(#linear-gradient-6);
      }

      .cls-23 {
        fill: #f4e04d;
      }

      .cls-4 {
        fill: url(#linear-gradient-9);
        stroke: url(#linear-gradient-10);
        stroke-width: 1.35px;
      }

      .cls-5, .cls-11 {
        stroke-width: 1.53px;
      }

      .cls-5, .cls-12, .cls-13 {
        fill: #c0ecf5;
        stroke: #afdae0;
      }

      .cls-6, .cls-11, .cls-14 {
        fill: none;
      }

      .cls-7 {
        fill: url(#linear-gradient-2);
        stroke: url(#linear-gradient-3);
        stroke-width: 1.96px;
      }

      .cls-7, .cls-8, .cls-9, .cls-11, .cls-12, .cls-13, .cls-14 {
        stroke-linecap: round;
      }

      .cls-8 {
        fill: #eaf980;
        stroke-width: 1.21px;
      }

      .cls-8, .cls-14 {
        stroke: #eaf980;
      }

      .cls-9 {
        fill: url(#linear-gradient-7);
        stroke: url(#linear-gradient-8);
        stroke-width: 2.21px;
      }

      .cls-24 {
        fill: url(#radial-gradient-16);
      }

      .cls-25 {
        fill: url(#radial-gradient-12);
      }

      .cls-26 {
        fill: url(#radial-gradient-14);
      }

      .cls-27 {
        fill: url(#radial-gradient-13);
      }

      .cls-28 {
        fill: url(#radial-gradient-10);
      }

      .cls-29 {
        fill: url(#radial-gradient-17);
      }

      .cls-30 {
        fill: url(#radial-gradient-11);
      }

      .cls-31 {
        fill: url(#radial-gradient-15);
      }

      .cls-32 {
        fill: #ff80f0;
      }

      .cls-10 {
        fill: url(#linear-gradient-4);
        stroke: url(#linear-gradient-5);
        stroke-width: 1.2px;
      }

      .cls-33 {
        fill: #22ff8b;
      }

      .cls-11 {
        stroke: #ff2473;
      }

      .cls-12 {
        stroke-width: 8.86px;
      }

      .cls-13 {
        stroke-width: 10.52px;
      }

      .cls-14 {
        stroke-width: 3.62px;
      }
    </style>
    <linearGradient id="linear-gradient" x1="61.91" y1="289.37" x2="485.15" y2="289.37" gradientUnits="userSpaceOnUse">
      <stop offset="0" stop-color="#d9bbfe"/>
      <stop offset=".53" stop-color="#a675fc"/>
      <stop offset=".63" stop-color="#a778fc"/>
      <stop offset=".71" stop-color="#ae81fc"/>
      <stop offset=".79" stop-color="#b892fc"/>
      <stop offset=".85" stop-color="#c7a9fd"/>
      <stop offset=".92" stop-color="#dbc6fd"/>
      <stop offset=".98" stop-color="#f2ebfe"/>
      <stop offset="1" stop-color="#fcfaff"/>
      <stop offset="1" stop-color="#000"/>
      <stop offset="1" stop-color="#d6bcfc"/>
      <stop offset="1" stop-color="#550015"/>
    </linearGradient>
    <linearGradient id="linear-gradient-2" x1="2435.8" y1="810.76" x2="2441.85" y2="810.76" gradientTransform="translate(938.32 3724.91) rotate(-137.24) scale(1.18 2.26)" gradientUnits="userSpaceOnUse">
      <stop offset="0" stop-color="#553d00"/>
      <stop offset="0" stop-color="#fff"/>
      <stop offset="0" stop-color="#fff"/>
      <stop offset="0" stop-color="#2a0001"/>
      <stop offset="1" stop-color="#2a000f"/>
      <stop offset="1" stop-color="#000"/>
    </linearGradient>
    <linearGradient id="linear-gradient-3" x1="2434.82" x2="2442.83" xlink:href="#linear-gradient-2"/>
    <linearGradient id="linear-gradient-4" x1="2475.09" y1="1039.69" x2="2491.26" y2="1039.69" gradientTransform="translate(-1166.19 -1970.27) rotate(40.15)" xlink:href="#linear-gradient-2"/>
    <linearGradient id="linear-gradient-5" x1="2474.49" y1="1039.69" x2="2491.86" y2="1039.69" gradientTransform="translate(-1166.19 -1970.27) rotate(40.15)" xlink:href="#linear-gradient-2"/>
    <radialGradient id="radial-gradient" cx="223.06" cy="266.25" fx="223.06" fy="266.25" r="35.14" gradientUnits="userSpaceOnUse">
      <stop offset="0" stop-color="#553d00"/>
      <stop offset="0" stop-color="#fff"/>
      <stop offset="0" stop-color="#fff"/>
      <stop offset="0" stop-color="#ffe8bf"/>
      <stop offset="1" stop-color="#fff"/>
    </radialGradient>
    <radialGradient id="radial-gradient-2" cx="296.98" fx="296.98" r="35.14" xlink:href="#radial-gradient"/>
    <radialGradient id="radial-gradient-3" cx="223.06" cy="266.25" fx="223.06" fy="266.25" r="16.94" gradientUnits="userSpaceOnUse">
      <stop offset=".57" stop-color="#62dabf"/>
      <stop offset="1" stop-color="#d6bcfc"/>
      <stop offset="1" stop-color="#d9bbfe"/>
    </radialGradient>
    <radialGradient id="radial-gradient-4" cx="296.98" cy="266.25" fx="296.98" fy="266.25" r="12.82" gradientUnits="userSpaceOnUse">
      <stop offset="0" stop-color="#62dabf"/>
      <stop offset=".53" stop-color="#d1bdfa"/>
      <stop offset="1" stop-color="#d6bcfc"/>
      <stop offset="1" stop-color="#d9bbfe"/>
    </radialGradient>
    <radialGradient id="radial-gradient-5" cx="223.06" cy="266.25" fx="223.06" fy="266.25" r="7.12" gradientUnits="userSpaceOnUse">
      <stop offset="0" stop-color="#553d00"/>
      <stop offset="1" stop-color="#000"/>
      <stop offset="1" stop-color="#d6bcfc"/>
      <stop offset="1" stop-color="#550015"/>
    </radialGradient>
    <radialGradient id="radial-gradient-6" cx="296.98" fx="296.98" r="4.1" xlink:href="#radial-gradient-5"/>
    <linearGradient id="linear-gradient-6" x1="128.72" y1="394.32" x2="384.68" y2="394.32" gradientTransform="matrix(1,0,0,1,0,0)" xlink:href="#linear-gradient-2"/>
    <radialGradient id="radial-gradient-7" cx="258.31" cy="413.95" fx="258.31" fy="413.95" r="116.9" gradientUnits="userSpaceOnUse">
      <stop offset="0" stop-color="#553d00"/>
      <stop offset="0" stop-color="#fff"/>
      <stop offset="0" stop-color="#fff"/>
      <stop offset="0" stop-color="#c20a0f"/>
      <stop offset="0" stop-color="#bf0005"/>
      <stop offset="0" stop-color="#bf0005"/>
      <stop offset="0" stop-color="#ba0005"/>
      <stop offset=".82" stop-color="#2a000f"/>
    </radialGradient>
    <radialGradient id="radial-gradient-8" cx="214.37" cy="350.66" fx="214.37" fy="350.66" r="12.59" xlink:href="#radial-gradient"/>
    <radialGradient id="radial-gradient-9" cx="256.51" cy="354.36" fx="256.51" fy="354.36" r="14.07" xlink:href="#radial-gradient"/>
    <radialGradient id="radial-gradient-10" cx="298.15" cy="354.58" fx="298.15" fy="354.58" r="14.21" xlink:href="#radial-gradient"/>
    <radialGradient id="radial-gradient-11" cx="317.4" cy="434.35" fx="317.4" fy="434.35" r="16.7" xlink:href="#radial-gradient"/>
    <radialGradient id="radial-gradient-12" cx="272.99" cy="443.37" fx="272.99" fy="443.37" r="15.1" xlink:href="#radial-gradient"/>
    <radialGradient id="radial-gradient-13" cx="228.68" cy="441.58" fx="228.68" fy="441.58" r="14.45" xlink:href="#radial-gradient"/>
    <radialGradient id="radial-gradient-14" cx="183.81" cy="419" fx="183.81" fy="419" r="15.25" xlink:href="#radial-gradient"/>
    <radialGradient id="radial-gradient-15" cx="371.55" cy="345.84" fx="371.55" fy="345.84" r="10.52" xlink:href="#radial-gradient"/>
    <radialGradient id="radial-gradient-16" cx="336.57" cy="350.1" fx="336.57" fy="350.1" r="13.68" xlink:href="#radial-gradient"/>
    <radialGradient id="radial-gradient-17" cx="165.86" cy="345.34" fx="165.86" fy="345.34" r="16.77" xlink:href="#radial-gradient"/>
    <linearGradient id="linear-gradient-7" x1="2389.05" y1="1027.68" x2="2395.86" y2="1027.68" gradientTransform="translate(593.26 -3369.64) rotate(52.08) scale(1.18 2.26)" xlink:href="#linear-gradient-2"/>
    <linearGradient id="linear-gradient-8" x1="2387.95" y1="1027.68" x2="2396.97" y2="1027.68" gradientTransform="translate(593.26 -3369.64) rotate(52.08) scale(1.18 2.26)" xlink:href="#linear-gradient-2"/>
    <linearGradient id="linear-gradient-9" x1="2551.17" y1="552.77" x2="2569.37" y2="552.77" gradientTransform="translate(1747.46 2591.21) rotate(-130.53)" xlink:href="#linear-gradient-2"/>
    <linearGradient id="linear-gradient-10" x1="2550.5" y1="552.77" x2="2570.05" y2="552.77" gradientTransform="translate(1747.46 2591.21) rotate(-130.53)" xlink:href="#linear-gradient-2"/>
  </defs>
  <circle class="cls-3" cx="273.53" cy="289.37" r="211.62"/>
  <line class="cls-12" x1="118.2" y1="359.11" x2="66.5" y2="420.32"/>
  <g>
    <path class="cls-7" d="M67.59,415.31l3.55,3.28c.47.43.37,1.3-.21,1.94l-1.15,1.24c-1.77,1.91-4.35,2.41-5.76,1.1h0c-1.49-1.38-1.18-4.12.68-6.14l.98-1.06c.59-.64,1.45-.8,1.92-.37Z"/>
    <path class="cls-10" d="M67.7,430.74c-2.87,3.41-7.97,3.84-11.39.96-3.42-2.88-3.85-7.98-.97-11.39,2.88-3.42,7.98-3.85,11.39-.97s3.85,7.98.97,11.39Z"/>
  </g>
  <line class="cls-13" x1="499.54" y1="289.74" x2="410.26" y2="359.12"/>
  <ellipse class="cls-5" cx="259.65" cy="322.6" rx="168.44" ry="173.17"/>
  <g>
    <circle class="cls-2" cx="223.06" cy="266.25" r="35.14"/>
    <circle class="cls-1" cx="296.98" cy="266.25" r="35.14"/>
    <circle class="cls-21" cx="223.06" cy="266.25" r="16.94"/>
    <circle class="cls-18" cx="296.98" cy="266.25" r="12.82"/>
    <path class="cls-6" d="M319.25,239.07c0-10.3,8.33-18.63,18.63-18.63"/>
    <path class="cls-6" d="M300.61,231.11c0-10.3,8.33-18.63,18.63-18.63"/>
    <path class="cls-6" d="M200.05,239.07c0-10.3-8.33-18.63-18.63-18.63"/>
    <path class="cls-6" d="M218.68,231.11c0-10.3-8.33-18.63-18.63-18.63"/>
    <circle class="cls-17" cx="223.06" cy="266.25" r="7.12"/>
    <circle class="cls-16" cx="296.98" cy="266.25" r="4.1"/>
  </g>
  <g>
    <path class="cls-22" d="M383.63,350.04c-3.84,11.89-17.56,32.77-30.93,54.29-4.32,6.97-9.76,13.94-16.51,20.59-2.91,2.88-6.06,5.7-9.47,8.43-8.76,7.02-18.28,12.01-28.12,15.3-2.32.77-4.64,1.45-6.98,2.04-12.35,3.11-25.04,3.74-37.27,2.54-2.75-.27-5.48-.63-8.17-1.08-12.75-2.13-24.75-6.18-34.99-11.37-.25-.12-.5-.26-.74-.38-3.98-2.06-7.81-4.3-11.48-6.68-12.13-7.87-22.49-17.34-30.93-27.24-1.43-1.68-2.81-3.35-4.12-5.04-23.68-30.44-46.44-64.3-29.09-66.08.16-.01.3-.04.46-.04,3.13-.32,6.23-.46,9.29-.46,4.64,0,9.23.32,13.85.86.05.01.09.01.12.01,6.85.8,13.77,2.1,21.08,3.58.89.18,1.78.36,2.68.55,1.59.33,3.19.66,4.81,1,3.56.75,7.21,1.52,11.06,2.26h.11c9.69,1.89,20.25,3.7,32.2,4.91.57.06,1.14.11,1.72.17h.01c1.71.16,3.45.3,5.22.44,11.36.86,23.94,1.15,38.11.46,1.63-.07,3.27-.17,4.94-.28h.01c10.8-.68,22.49-1.93,35.24-3.9,1.53-.23,3.06-.47,4.62-.74h.01c3.34-.55,6.75-1.14,10.24-1.8,7.2-1.35,14.89-2.31,22.12-2.88,1.93-.16,3.81-.28,5.66-.38,5.16-.28,9.92-.33,13.89-.18,3.24.13,5.98.41,7.95.84t.02,0s.01.01.02,0c.83.17,1.52.38,2.06.61,2.73,1.17,2.89,4.59,1.26,9.66Z"/>
    <path class="cls-15" d="M352.7,404.32c-6.19,9.98-14.68,19.97-25.98,29.01-35.94,28.82-84.7,23.35-116.28,7.06-19.37-10.01-35.06-24.23-46.53-38.96,4.4-4.42,10.03-8.34,15.07-12.12,20.02-15,50.64-15.21,80.33-15.21,32.2,0,64.2,2.54,84.58,19.89,4.57,3.87,7.01,6.7,8.81,10.32Z"/>
    <path class="cls-20" d="M230.5,348.02c-2.79,5.08-6.45,8.57-10.72,9.75-7.81,2.15-15.82-3.83-21.53-14.66h.06c9.69,1.89,20.25,3.7,32.2,4.91Z"/>
    <path class="cls-19" d="M275.57,349.09c-3.16,5.47-8.43,9.49-14.89,10.65-9.29,1.7-18.4-2.98-23.22-11.11,11.36.86,23.94,1.15,38.11.46Z"/>
    <path class="cls-28" d="M315.77,344.91c-1.64,10.51-7.82,18.46-15.91,19.27-8.02.81-15.57-5.61-19.33-15.38,10.8-.68,22.49-1.93,35.24-3.9Z"/>
    <path class="cls-30" d="M336.2,424.91c-2.91,2.88-6.06,5.7-9.47,8.43-8.76,7.02-18.28,12.01-28.12,15.3.34-8.6,3.59-16.24,8.55-21.46,4.28-4.45,9.76-7.13,15.74-7.13,4.92,0,9.47,1.79,13.3,4.86Z"/>
    <path class="cls-25" d="M291.62,450.68c-12.35,3.11-25.04,3.74-37.27,2.54,5.17-13.08,14.11-21.47,22.83-20.14,6.87,1.06,12.06,7.89,14.44,17.6Z"/>
    <path class="cls-27" d="M246.18,452.14c-12.75-2.13-24.75-6.18-34.99-11.37,4.53-6.8,11.72-10.72,19.02-9.55,9.05,1.46,15.4,10.26,15.97,20.91Z"/>
    <path class="cls-26" d="M199.59,428.14c0,1.93-.22,3.79-.62,5.57-12.13-7.87-22.49-17.34-30.93-27.24,2.83-1.41,5.99-2.19,9.3-2.19,5.84,0,11.15,2.42,15.13,6.36,4.37,4.35,7.12,10.59,7.12,17.49Z"/>
    <path class="cls-31" d="M383.63,350.04c-2.31,1.62-4.97,2.61-7.83,2.77-7.7.41-14.55-5.32-17.39-13.69,5.16-.28,9.92-.33,13.89-.18,2.76.51,5.42.79,7.95.84t.02,0s.01.01.02,0c.83.17,1.52.38,2.06.61,2.73,1.17,2.89,4.59,1.26,9.66Z"/>
    <path class="cls-24" d="M352.75,339.49c-1.55,11.76-7.09,20.43-14.46,21.17-7.08.72-13.92-6.07-17.89-16.49,3.34-.55,6.75-1.14,10.24-1.8,7.2-1.35,14.89-2.31,22.12-2.88Z"/>
    <path class="cls-29" d="M187.13,340.85c-5.4,9.74-13.81,15.73-22.6,14.9-9.39-.86-16.82-9.24-19.94-20.9,4.64,0,9.23.32,13.85.86.05.01.09.01.12.01,6.85.8,13.77,2.1,21.08,3.58.89.18,1.78.36,2.68.55,1.59.33,3.19.66,4.81,1Z"/>
  </g>
  <g>
    <path class="cls-9" d="M495.23,296.25l-3.34-4.29c-.44-.57-.18-1.51.59-2.11l1.5-1.17c2.31-1.8,5.27-1.88,6.6-.17h0c1.4,1.8.56,4.8-1.88,6.7l-1.28,1c-.77.6-1.75.62-2.19.06Z"/>
    <path class="cls-4" d="M497.93,279.1c3.81-3.26,9.55-2.81,12.82,1.01,3.27,3.82,2.82,9.56-.99,12.82-3.82,3.27-9.56,2.82-12.83-1-3.27-3.82-2.82-9.56,1-12.83Z"/>
  </g>
  <path class="cls-33" d="M500.41,351.92c-3.13-6.16-4.67-12.54-5.72-19.16-.89-6.37-1.55-12.77-.47-19.16,1.1-6.39,3.82-12.78,4.33-19.16.6-6.47-.33-12.85-1.9-19.16-1.67-6.28-2.88-12.7-3.35-19.16-.64-6.39-1.32-12.78-1.04-19.16.74-13.09,2.89-26.17,8.17-38.33.3-.7,1.39-.71,1.69,0,2.81,6.22,4.49,12.61,5.82,19.16,1.24,6.34,2.08,12.73,2.35,19.16.23,9.59-.88,19.22-2.23,28.75-1.13,6.38-3.31,12.73-3.95,19.16-.31,3.19-.43,6.39-.12,9.58.51,6.39,3.22,12.78,4.33,19.16.57,3.19.65,6.39.48,9.58-.32,6.47-1.22,12.86-3,19.16-.93,3.19-2,6.39-3.68,9.58-.33.66-1.36.68-1.69,0h0Z"/>
  <g>
    <path class="cls-32" d="M503.14,208.59c83.32,75.38,5.96,78.43-1.18.05,7.14,78.38-80.84,74.84-1.34-.05-79.5,74.89-83.37-33.83-.06-1.66-83.32-32.17-22.7-79.1.92-.71-23.63-78.38,53.08-43.79,1.17.53,51.92-44.31,83.8,77.23.49,1.85Z"/>
    <path class="cls-11" d="M503.14,208.59c83.32,75.38,5.96,78.43-1.18.05,7.14,78.38-80.84,74.84-1.34-.05-79.5,74.89-83.37-33.83-.06-1.66-83.32-32.17-22.7-79.1.92-.71-23.63-78.38,53.08-43.79,1.17.53,51.92-44.31,83.8,77.23.49,1.85Z"/>
  </g>
  <g>
    <circle class="cls-8" cx="501.78" cy="206.36" r="5.7"/>
    <line class="cls-14" x1="498.74" y1="210.63" x2="487.22" y2="223.39"/>
    <line class="cls-14" x1="487.81" y1="221.27" x2="485.45" y2="218.32"/>
    <line class="cls-14" x1="491.46" y1="217.61" x2="489.46" y2="215.37"/>
    <circle class="cls-23" cx="501.78" cy="206.36" r="3.01"/>
  </g>
</svg>