<?xml version="1.0" encoding="UTF-8"?>
<svg id="Layer_9" data-name="Layer 9" xmlns="http://www.w3.org/2000/svg" xmlns:xlink="http://www.w3.org/1999/xlink" viewBox="0 0 568.86 570.1">
  <defs>
    <style>
      .cls-1 {
        fill: #eaf980;
        stroke-width: 2.59px;
      }

      .cls-1, .cls-2, .cls-3, .cls-4, .cls-5, .cls-6, .cls-7, .cls-8, .cls-9, .cls-10, .cls-11, .cls-12 {
        stroke-miterlimit: 10;
      }

      .cls-1, .cls-8, .cls-10, .cls-11, .cls-12 {
        stroke-linecap: round;
      }

      .cls-1, .cls-12 {
        stroke: #eaf980;
      }

      .cls-13 {
        fill: url(#radial-gradient-7);
      }

      .cls-14 {
        fill: url(#radial-gradient-6);
      }

      .cls-15 {
        fill: url(#radial-gradient-5);
      }

      .cls-16 {
        fill: url(#radial-gradient-4);
      }

      .cls-17 {
        fill: url(#radial-gradient-9);
      }

      .cls-18 {
        fill: url(#radial-gradient-8);
      }

      .cls-19 {
        fill: url(#radial-gradient-3);
      }

      .cls-20 {
        fill: url(#linear-gradient-5);
      }

      .cls-2 {
        fill: url(#linear-gradient);
        stroke: url(#linear-gradient-2);
      }

      .cls-2, .cls-5, .cls-6, .cls-7 {
        stroke-width: 1.18px;
      }

      .cls-21 {
        fill: #f4e04d;
      }

      .cls-3, .cls-4, .cls-9 {
        stroke: #f97dcd;
      }

      .cls-3, .cls-8, .cls-10, .cls-11, .cls-12 {
        fill: none;
      }

      .cls-4 {
        fill: url(#radial-gradient-2);
      }

      .cls-22 {
        fill: url(#radial-gradient-16);
      }

      .cls-23 {
        fill: url(#radial-gradient-12);
      }

      .cls-24 {
        fill: url(#radial-gradient-14);
      }

      .cls-25 {
        fill: url(#radial-gradient-13);
      }

      .cls-26 {
        fill: url(#radial-gradient-10);
      }

      .cls-27 {
        fill: url(#radial-gradient-17);
      }

      .cls-28 {
        fill: url(#radial-gradient-11);
      }

      .cls-29 {
        fill: url(#radial-gradient-15);
      }

      .cls-30 {
        fill: #ff80f0;
      }

      .cls-5 {
        fill: url(#linear-gradient-8);
        stroke: url(#linear-gradient-9);
      }

      .cls-6 {
        fill: url(#linear-gradient-6);
        stroke: url(#linear-gradient-7);
      }

      .cls-7 {
        fill: url(#linear-gradient-3);
        stroke: url(#linear-gradient-4);
      }

      .cls-31 {
        fill: #d9bbfe;
      }

      .cls-32 {
        fill: #22ff8b;
      }

      .cls-8 {
        stroke: #ff2473;
        stroke-width: 1.53px;
      }

      .cls-9 {
        fill: url(#radial-gradient);
      }

      .cls-10 {
        stroke-width: 6px;
      }

      .cls-10, .cls-11 {
        stroke: #d4bbfc;
      }

      .cls-11 {
        stroke-width: 24px;
      }

      .cls-12 {
        stroke-width: 7.77px;
      }
    </style>
    <radialGradient id="radial-gradient" cx="260.64" cy="170.89" fx="260.64" fy="170.89" r="28.94" gradientUnits="userSpaceOnUse">
      <stop offset="0" stop-color="#553d00"/>
      <stop offset="0" stop-color="#fff"/>
      <stop offset="0" stop-color="#fff"/>
      <stop offset="0" stop-color="#ffe8bf"/>
      <stop offset="1" stop-color="#fff"/>
    </radialGradient>
    <radialGradient id="radial-gradient-2" cx="321.5" fx="321.5" xlink:href="#radial-gradient"/>
    <radialGradient id="radial-gradient-3" cx="260.64" cy="170.89" fx="260.64" fy="170.89" r="13.94" gradientUnits="userSpaceOnUse">
      <stop offset=".57" stop-color="#62dabf"/>
      <stop offset="1" stop-color="#d6bcfc"/>
      <stop offset="1" stop-color="#d9bbfe"/>
    </radialGradient>
    <radialGradient id="radial-gradient-4" cx="321.5" cy="170.89" fx="321.5" fy="170.89" r="10.56" gradientUnits="userSpaceOnUse">
      <stop offset="0" stop-color="#62dabf"/>
      <stop offset=".53" stop-color="#d1bdfa"/>
      <stop offset="1" stop-color="#d6bcfc"/>
      <stop offset="1" stop-color="#d9bbfe"/>
    </radialGradient>
    <radialGradient id="radial-gradient-5" cx="261.23" cy="170.89" fx="261.23" fy="170.89" r="5.87" gradientUnits="userSpaceOnUse">
      <stop offset="0" stop-color="#553d00"/>
      <stop offset="1" stop-color="#000"/>
      <stop offset="1" stop-color="#d6bcfc"/>
      <stop offset="1" stop-color="#550015"/>
    </radialGradient>
    <radialGradient id="radial-gradient-6" cx="321.5" cy="170.89" fx="321.5" fy="170.89" r="3.37" xlink:href="#radial-gradient-5"/>
    <linearGradient id="linear-gradient" x1="-995.47" y1="-422.87" x2="-989.5" y2="-422.87" gradientTransform="translate(849.8 -774.36) rotate(-90)" gradientUnits="userSpaceOnUse">
      <stop offset="0" stop-color="#553d00"/>
      <stop offset="0" stop-color="#fff"/>
      <stop offset="0" stop-color="#fff"/>
      <stop offset="0" stop-color="#2a0001"/>
      <stop offset="1" stop-color="#2a000f"/>
      <stop offset="1" stop-color="#000"/>
    </linearGradient>
    <linearGradient id="linear-gradient-2" x1="-996.06" x2="-988.91" xlink:href="#linear-gradient"/>
    <linearGradient id="linear-gradient-3" x1="-1000.32" y1="-413.15" x2="-984.36" y2="-413.15" gradientTransform="translate(-259.48 -614.15) rotate(-152.59)" xlink:href="#linear-gradient"/>
    <linearGradient id="linear-gradient-4" x1="-1000.91" y1="-413.15" x2="-983.77" y2="-413.15" gradientTransform="translate(-259.48 -614.15) rotate(-152.59)" xlink:href="#linear-gradient"/>
    <linearGradient id="linear-gradient-5" x1="199.19" y1="270.18" x2="370.68" y2="270.18" gradientTransform="matrix(1,0,0,1,0,0)" xlink:href="#linear-gradient"/>
    <radialGradient id="radial-gradient-7" cx="286.01" cy="283.33" fx="286.01" fy="283.33" r="78.32" gradientUnits="userSpaceOnUse">
      <stop offset="0" stop-color="#553d00"/>
      <stop offset="0" stop-color="#fff"/>
      <stop offset="0" stop-color="#fff"/>
      <stop offset="0" stop-color="#c20a0f"/>
      <stop offset="0" stop-color="#bf0005"/>
      <stop offset="0" stop-color="#bf0005"/>
      <stop offset="0" stop-color="#ba0005"/>
      <stop offset=".82" stop-color="#2a000f"/>
    </radialGradient>
    <radialGradient id="radial-gradient-8" cx="256.57" cy="240.93" fx="256.57" fy="240.93" r="8.44" xlink:href="#radial-gradient"/>
    <radialGradient id="radial-gradient-9" cx="284.81" cy="243.4" fx="284.81" fy="243.4" r="9.43" xlink:href="#radial-gradient"/>
    <radialGradient id="radial-gradient-10" cx="312.7" cy="243.55" fx="312.7" fy="243.55" r="9.52" xlink:href="#radial-gradient"/>
    <radialGradient id="radial-gradient-11" cx="325.6" cy="296.99" fx="325.6" fy="296.99" r="11.19" xlink:href="#radial-gradient"/>
    <radialGradient id="radial-gradient-12" cx="295.85" cy="303.04" fx="295.85" fy="303.04" r="10.12" xlink:href="#radial-gradient"/>
    <radialGradient id="radial-gradient-13" cx="266.16" cy="301.84" fx="266.16" fy="301.84" r="9.68" xlink:href="#radial-gradient"/>
    <radialGradient id="radial-gradient-14" cx="236.1" cy="286.71" fx="236.1" fy="286.71" r="10.22" xlink:href="#radial-gradient"/>
    <radialGradient id="radial-gradient-15" cx="361.88" cy="237.7" fx="361.88" fy="237.7" r="7.05" xlink:href="#radial-gradient"/>
    <radialGradient id="radial-gradient-16" cx="338.45" cy="240.55" fx="338.45" fy="240.55" r="9.17" xlink:href="#radial-gradient"/>
    <radialGradient id="radial-gradient-17" cx="224.07" cy="237.36" fx="224.07" fy="237.36" r="11.24" xlink:href="#radial-gradient"/>
    <linearGradient id="linear-gradient-6" x1="529.7" y1="-759.92" x2="535.67" y2="-759.92" gradientTransform="translate(670.78 -539.08) rotate(-180)" xlink:href="#linear-gradient"/>
    <linearGradient id="linear-gradient-7" x1="529.11" y1="-759.92" x2="536.26" y2="-759.92" gradientTransform="translate(670.78 -539.08) rotate(-180)" xlink:href="#linear-gradient"/>
    <linearGradient id="linear-gradient-8" x1="524.85" y1="-750.2" x2="540.81" y2="-750.2" gradientTransform="translate(174.57 -706.47) rotate(147.22)" xlink:href="#linear-gradient"/>
    <linearGradient id="linear-gradient-9" x1="524.26" y1="-750.2" x2="541.4" y2="-750.2" gradientTransform="translate(174.57 -706.47) rotate(147.22)" xlink:href="#linear-gradient"/>
  </defs>
  <line class="cls-11" x1="243.3" y1="371.87" x2="243.3" y2="470.41"/>
  <line class="cls-11" x1="332.17" y1="374.22" x2="332.17" y2="472.75"/>
  <ellipse class="cls-31" cx="287.13" cy="233.66" rx="113.24" ry="152.68"/>
  <circle class="cls-9" cx="260.64" cy="170.89" r="28.94"/>
  <circle class="cls-4" cx="321.5" cy="170.89" r="28.94"/>
  <circle class="cls-19" cx="260.64" cy="170.89" r="13.94"/>
  <circle class="cls-16" cx="321.5" cy="170.89" r="10.56"/>
  <path class="cls-3" d="M339.84,148.51c0-8.48,6.86-15.34,15.34-15.34"/>
  <path class="cls-3" d="M324.5,141.96c0-8.48,6.86-15.34,15.34-15.34"/>
  <path class="cls-3" d="M241.69,148.51c0-8.48-6.86-15.34-15.34-15.34"/>
  <path class="cls-3" d="M257.03,141.96c0-8.48-6.86-15.34-15.34-15.34"/>
  <circle class="cls-15" cx="261.23" cy="170.89" r="5.87"/>
  <circle class="cls-14" cx="321.5" cy="170.89" r="3.37"/>
  <line class="cls-10" x1="211.14" y1="334.45" x2="136.64" y2="218.76"/>
  <line class="cls-10" x1="365.72" y1="335.85" x2="429.07" y2="213.7"/>
  <rect class="cls-2" x="425.2" y="215.14" width="3.48" height="5.97" transform="translate(36.77 496.72) rotate(-62.59)"/>
  <path class="cls-7" d="M424.2,205.75c2.03-3.91,6.84-5.43,10.75-3.4s5.44,6.84,3.42,10.75c-2.03,3.91-6.84,5.44-10.76,3.41s-5.44-6.84-3.41-10.76Z"/>
  <path class="cls-20" d="M369.98,240.51c-2.57,7.97-11.77,21.95-20.72,36.37-2.9,4.67-6.54,9.34-11.06,13.79-1.95,1.93-4.06,3.82-6.35,5.65-5.87,4.7-12.25,8.05-18.84,10.25-1.55.51-3.11.97-4.68,1.37-8.28,2.08-16.78,2.51-24.97,1.7-1.84-.18-3.67-.42-5.48-.72-8.54-1.42-16.58-4.14-23.44-7.62-.17-.08-.33-.17-.5-.25-2.67-1.38-5.23-2.88-7.69-4.48-8.13-5.27-15.07-11.62-20.72-18.25-.96-1.12-1.88-2.25-2.76-3.38-15.87-20.39-31.11-43.08-19.49-44.27.11,0,.2-.02.31-.02,2.1-.21,4.17-.31,6.22-.31,3.11,0,6.18.21,9.28.58.03,0,.06,0,.08,0,4.59.54,9.23,1.41,14.13,2.4.59.12,1.2.24,1.8.37,1.07.22,2.14.44,3.22.67,2.38.5,4.83,1.02,7.41,1.51h.07c6.49,1.27,13.56,2.48,21.57,3.29.38.04.76.07,1.16.11h0c1.15.11,2.31.2,3.5.29,7.61.58,16.04.77,25.53.31,1.09-.05,2.19-.11,3.31-.19h0c7.23-.46,15.07-1.29,23.61-2.61,1.03-.15,2.05-.32,3.09-.5h0c2.24-.37,4.52-.76,6.86-1.2,4.83-.9,9.98-1.55,14.82-1.93,1.29-.11,2.56-.19,3.79-.25,3.46-.19,6.65-.22,9.31-.12,2.17.09,4,.28,5.33.56t.02,0s0,0,.02,0c.55.11,1.02.25,1.38.41,1.83.78,1.94,3.08.85,6.47Z"/>
  <path class="cls-13" d="M349.25,276.88c-4.15,6.69-9.84,13.38-17.4,19.44-24.08,19.31-56.75,15.65-77.9,4.73-12.98-6.7-23.49-16.23-31.17-26.1,2.95-2.96,6.72-5.59,10.1-8.12,13.41-10.05,33.93-10.19,53.82-10.19,21.57,0,43.01,1.7,56.66,13.33,3.06,2.6,4.69,4.49,5.9,6.92Z"/>
  <path class="cls-18" d="M267.38,239.16c-1.87,3.4-4.32,5.74-7.18,6.53-5.23,1.44-10.6-2.56-14.43-9.82h.04c6.49,1.27,13.56,2.48,21.57,3.29Z"/>
  <path class="cls-17" d="M297.57,239.87c-2.12,3.66-5.65,6.35-9.98,7.14-6.22,1.14-12.33-1.99-15.56-7.45,7.61.58,16.04.77,25.53.31Z"/>
  <path class="cls-26" d="M324.51,237.07c-1.1,7.04-5.24,12.37-10.66,12.91-5.37.55-10.43-3.76-12.95-10.3,7.23-.46,15.07-1.29,23.61-2.61Z"/>
  <path class="cls-28" d="M338.19,290.67c-1.95,1.93-4.06,3.82-6.35,5.65-5.87,4.7-12.25,8.05-18.84,10.25.23-5.76,2.41-10.88,5.73-14.38,2.86-2.98,6.54-4.78,10.55-4.78,3.3,0,6.35,1.2,8.91,3.25Z"/>
  <path class="cls-23" d="M308.33,307.94c-8.28,2.08-16.78,2.51-24.97,1.7,3.47-8.76,9.45-14.39,15.3-13.49,4.61.71,8.08,5.29,9.67,11.79Z"/>
  <path class="cls-25" d="M277.88,308.91c-8.54-1.42-16.58-4.14-23.44-7.62,3.03-4.56,7.85-7.18,12.74-6.4,6.06.98,10.32,6.88,10.7,14.01Z"/>
  <path class="cls-24" d="M246.67,292.84c0,1.29-.15,2.54-.41,3.73-8.13-5.27-15.07-11.62-20.72-18.25,1.9-.94,4.01-1.46,6.23-1.46,3.91,0,7.47,1.62,10.14,4.26,2.93,2.91,4.77,7.1,4.77,11.72Z"/>
  <path class="cls-29" d="M369.98,240.51c-1.55,1.08-3.33,1.75-5.25,1.86-5.16.28-9.75-3.56-11.65-9.17,3.46-.19,6.65-.22,9.31-.12,1.85.34,3.63.53,5.33.56t.02,0s0,0,.02,0c.55.11,1.02.25,1.38.41,1.83.78,1.94,3.08.85,6.47Z"/>
  <path class="cls-22" d="M349.28,233.45c-1.04,7.88-4.75,13.69-9.69,14.18-4.74.48-9.32-4.07-11.99-11.05,2.24-.37,4.52-.76,6.86-1.2,4.83-.9,9.98-1.55,14.82-1.93Z"/>
  <path class="cls-27" d="M238.32,234.36c-3.62,6.53-9.25,10.54-15.14,9.98-6.29-.58-11.27-6.19-13.36-14,3.11,0,6.18.21,9.28.58.03,0,.06,0,.08,0,4.59.54,9.23,1.41,14.13,2.4.59.12,1.2.24,1.8.37,1.07.22,2.14.44,3.22.67Z"/>
  <g>
    <path class="cls-32" d="M430.21,269.21c-3.13-6.16-4.67-12.54-5.72-19.16-.89-6.37-1.55-12.77-.47-19.16,1.1-6.39,3.82-12.78,4.33-19.16.6-6.47-.33-12.85-1.9-19.16-1.67-6.28-2.88-12.7-3.35-19.16-.64-6.39-1.32-12.78-1.04-19.16.74-13.09,2.89-26.17,8.17-38.33.3-.7,1.39-.71,1.69,0,2.81,6.22,4.49,12.61,5.82,19.16,1.24,6.34,2.08,12.73,2.35,19.16.23,9.59-.88,19.22-2.23,28.75-1.13,6.38-3.31,12.73-3.95,19.16-.31,3.19-.43,6.39-.12,9.58.51,6.39,3.22,12.78,4.33,19.16.57,3.19.65,6.39.48,9.58-.32,6.47-1.22,12.86-3,19.16-.93,3.19-2,6.39-3.68,9.58-.33.66-1.36.68-1.69,0h0Z"/>
    <g>
      <path class="cls-30" d="M432.94,125.87c83.32,75.38,5.96,78.43-1.18.05,7.14,78.38-80.84,74.84-1.34-.05-79.5,74.89-83.37-33.83-.06-1.66-83.32-32.17-22.7-79.1.92-.71-23.63-78.38,53.08-43.79,1.17.53,51.92-44.31,83.8,77.23.49,1.85Z"/>
      <path class="cls-8" d="M432.94,125.87c83.32,75.38,5.96,78.43-1.18.05,7.14,78.38-80.84,74.84-1.34-.05-79.5,74.89-83.37-33.83-.06-1.66-83.32-32.17-22.7-79.1.92-.71-23.63-78.38,53.08-43.79,1.17.53,51.92-44.31,83.8,77.23.49,1.85Z"/>
    </g>
    <g>
      <circle class="cls-1" cx="441.79" cy="114.84" r="12.23"/>
      <line class="cls-12" x1="435.28" y1="123.99" x2="410.56" y2="151.36"/>
      <line class="cls-12" x1="411.82" y1="146.81" x2="406.76" y2="140.48"/>
      <line class="cls-12" x1="419.67" y1="138.96" x2="415.36" y2="134.15"/>
      <circle class="cls-21" cx="441.79" cy="114.84" r="6.45"/>
    </g>
  </g>
  <g>
    <rect class="cls-6" x="135.12" y="219.09" width="5.97" height="3.48" transform="translate(-97.57 109.93) rotate(-32.78)"/>
    <path class="cls-5" d="M126.01,217.06c-2.38-3.7-1.31-8.63,2.39-11.02,3.71-2.39,8.64-1.32,11.02,2.38,2.39,3.71,1.32,8.64-2.39,11.03-3.71,2.39-8.64,1.32-11.03-2.39Z"/>
  </g>
</svg>