<?xml version="1.0" encoding="UTF-8"?>
<svg id="Layer_9" data-name="Layer 9" xmlns="http://www.w3.org/2000/svg" viewBox="0 0 130.79 114.66">
  <defs>
    <style>
      .cls-1 {
        fill: none;
      }

      .cls-2 {
        fill: #f97dcd;
        stroke: #000;
        stroke-miterlimit: 10;
        stroke-width: 1.6px;
      }
    </style>
  </defs>
  <rect class="cls-2" x="40.12" y="31.41" width="56.51" height="56.51" rx="19.15" ry="19.15"/>
  <g>
    <rect class="cls-1" x="49.89" y="51.77" width="104.23" height="65.45"/>
    <path d="M56.57,52.9h2.28l1.61,13.61h-2.04l-.65-7.71c-.13-1.42-.23-2.89-.35-4.34h-.08c-.72,1.47-1.37,2.84-2.08,4.3l-3.84,7.74h-2.14l7.28-13.61ZM53.01,60.99h6.04l-.29,1.5h-6.11l.36-1.5Z"/>
    <path d="M66.04,52.9h3.91c2.6,0,4.42.96,4.42,3.4,0,3.46-2.58,4.95-6.03,4.95h-2.03l-1.05,5.27h-1.96l2.74-13.61ZM68.38,59.67c2.62,0,4.03-1.06,4.03-3.11,0-1.47-1.01-2.1-2.89-2.1h-1.85l-1.04,5.22h1.76Z"/>
    <path d="M78.51,52.9h3.91c2.6,0,4.42.96,4.42,3.4,0,3.46-2.58,4.95-6.03,4.95h-2.03l-1.05,5.27h-1.96l2.74-13.61ZM80.85,59.67c2.62,0,4.03-1.06,4.03-3.11,0-1.47-1.01-2.1-2.9-2.1h-1.85l-1.04,5.22h1.76Z"/>
  </g>
</svg>