<?xml version="1.0" encoding="UTF-8"?>
<svg id="Layer_9" data-name="Layer 9" xmlns="http://www.w3.org/2000/svg" viewBox="0 0 130.79 114.66">
  <defs>
    <style>
      .cls-1 {
        fill: #eef95d;
        stroke: #000;
        stroke-miterlimit: 10;
      }
    </style>
  </defs>
  <g>
    <path class="cls-1" d="M82.45,21.12c-10.01,0-18.16,8.14-18.16,18.16,0,4.08,1.36,7.85,3.65,10.89l-13.78,15.26-3.31-3.69c-1.92-2.15-5.22-2.33-7.37-.41-2.14,1.92-2.33,5.21-.4,7.36l4.04,4.53-2.88,3.19-4.76-5.96c-1.8-2.25-5.08-2.61-7.33-.81-2.25,1.8-2.62,5.08-.82,7.33l5.83,7.29-.53.58c-1.93,2.13-1.76,5.43.38,7.36,1,.9,2.25,1.35,3.49,1.35,1.43,0,2.85-.58,3.88-1.72l32.01-35.44c1.89.68,3.94,1.05,6.06,1.05,10.01,0,18.16-8.15,18.16-18.16s-8.15-18.16-18.16-18.16ZM73.78,39.28c0-4.79,3.88-8.67,8.67-8.67s8.67,3.88,8.67,8.67-3.88,8.67-8.67,8.67-8.67-3.88-8.67-8.67Z"/>
    <circle class="cls-1" cx="82.45" cy="39.28" r="8.67"/>
  </g>
  <circle class="cls-1" cx="82.45" cy="39.28" r="8.67"/>
</svg>