<?xml version="1.0" encoding="UTF-8"?>
<svg id="Layer_9" data-name="Layer 9" xmlns="http://www.w3.org/2000/svg" xmlns:xlink="http://www.w3.org/1999/xlink" viewBox="0 0 130.79 114.66">
  <defs>
    <style>
      .cls-1 {
        fill: none;
      }

      .cls-2 {
        stroke: url(#linear-gradient);
      }

      .cls-2, .cls-3 {
        stroke-width: .8px;
      }

      .cls-2, .cls-3, .cls-4, .cls-5, .cls-6 {
        fill: #eef95d;
        stroke-miterlimit: 10;
      }

      .cls-3 {
        stroke: url(#linear-gradient-2);
      }

      .cls-4 {
        stroke: url(#linear-gradient-3);
      }

      .cls-4, .cls-5, .cls-6 {
        stroke-linecap: round;
        stroke-width: 2.39px;
      }

      .cls-5 {
        stroke: url(#linear-gradient-4);
      }

      .cls-6 {
        stroke: url(#linear-gradient-5);
      }
    </style>
    <linearGradient id="linear-gradient" x1="27.53" y1="56.88" x2="99.7" y2="56.88" gradientUnits="userSpaceOnUse">
      <stop offset="0" stop-color="#553d00"/>
      <stop offset="0" stop-color="#fff"/>
      <stop offset="0" stop-color="#fff"/>
      <stop offset="0" stop-color="#2a0001"/>
      <stop offset="1" stop-color="#2a000f"/>
      <stop offset="1" stop-color="#000"/>
    </linearGradient>
    <linearGradient id="linear-gradient-2" x1="42.89" x2="85.79" xlink:href="#linear-gradient"/>
    <linearGradient id="linear-gradient-3" x1="47.34" y1="57.7" x2="56.69" y2="57.7" xlink:href="#linear-gradient"/>
    <linearGradient id="linear-gradient-4" x1="70.23" y1="57.7" x2="79.58" y2="57.7" xlink:href="#linear-gradient"/>
    <linearGradient id="linear-gradient-5" x1="58.33" y1="57.11" x2="68.91" y2="57.11" xlink:href="#linear-gradient"/>
  </defs>
  <g>
    <path class="cls-2" d="M99.3,51.1v9.58h-4.94c-.45,4.51-1.89,8.74-4.09,12.45l4.04,3.35-6.11,7.37-4.04-3.35c-4.23,3.73-9.51,6.3-15.33,7.21v5.17h-9.58v-5.17c-6.13-.97-11.65-3.76-15.99-7.81l-6,3.45-4.79-8.29,4.84-2.79c-1.92-3.51-3.19-7.43-3.6-11.61h-5.79v-9.58h6.34c1.04-4.76,3.19-9.11,6.17-12.74l-4.35-5.52,7.53-5.93,3.98,5.07c3.47-2.23,7.42-3.77,11.66-4.44v-6.67h9.58v6.67c4.53.71,8.73,2.42,12.36,4.91l4.58-4.58,6.77,6.77-4.38,4.38c2.71,3.51,4.67,7.61,5.64,12.09h5.49Z"/>
    <circle class="cls-3" cx="64.34" cy="56.88" r="21.05"/>
    <path class="cls-4" d="M55.5,50.67l-6.7,6.25c-.33.31-.34.83-.02,1.14l6.72,6.66"/>
    <path class="cls-5" d="M71.43,50.67l6.7,6.25c.33.31.34.83.02,1.14l-6.72,6.66"/>
    <line class="cls-6" x1="67.71" y1="45.03" x2="59.52" y2="69.19"/>
  </g>
  <rect class="cls-1" x="-103.19" y="51.77" width="104.23" height="65.45"/>
</svg>