<?xml version="1.0" encoding="UTF-8"?>
<svg xmlns="http://www.w3.org/2000/svg" xmlns:xlink="http://www.w3.org/1999/xlink" viewBox="0 0 188.86 107.4">
  <defs>
    <style>
      .cls-1 {
        fill: url(#radial-gradient-2);
      }

      .cls-1, .cls-2, .cls-3, .cls-4, .cls-5, .cls-6, .cls-7, .cls-8, .cls-9, .cls-10 {
        stroke-miterlimit: 10;
      }

      .cls-1, .cls-2, .cls-4, .cls-5 {
        stroke-width: .23px;
      }

      .cls-1, .cls-2, .cls-5 {
        stroke: #f97dcd;
      }

      .cls-11 {
        fill: url(#radial-gradient-7);
      }

      .cls-12 {
        fill: url(#radial-gradient-6);
      }

      .cls-13 {
        fill: url(#radial-gradient-5);
      }

      .cls-14 {
        fill: url(#radial-gradient-4);
      }

      .cls-15 {
        fill: url(#radial-gradient-3);
      }

      .cls-2, .cls-3, .cls-6 {
        fill: none;
      }

      .cls-3 {
        stroke-width: 1.4px;
      }

      .cls-3, .cls-6 {
        stroke-linecap: round;
      }

      .cls-3, .cls-6, .cls-7, .cls-8, .cls-9, .cls-10 {
        stroke: #d9bbfe;
      }

      .cls-4 {
        fill: url(#radial-gradient-8);
        stroke: url(#radial-gradient-9);
      }

      .cls-16 {
        fill: url(#linear-gradient);
      }

      .cls-5 {
        fill: url(#radial-gradient);
      }

      .cls-17 {
        fill: url(#radial-gradient-16);
      }

      .cls-18 {
        fill: url(#radial-gradient-12);
      }

      .cls-19 {
        fill: url(#radial-gradient-14);
      }

      .cls-20 {
        fill: url(#radial-gradient-13);
      }

      .cls-21 {
        fill: url(#radial-gradient-10);
      }

      .cls-22 {
        fill: url(#radial-gradient-17);
      }

      .cls-23 {
        fill: url(#radial-gradient-11);
      }

      .cls-24 {
        fill: url(#radial-gradient-15);
      }

      .cls-25 {
        fill: #f97dcd;
      }

      .cls-26 {
        fill: #d9bbfe;
      }

      .cls-6 {
        stroke-width: 5.6px;
      }

      .cls-7 {
        fill: url(#linear-gradient-5);
      }

      .cls-7, .cls-8, .cls-9, .cls-10 {
        stroke-width: .28px;
      }

      .cls-8 {
        fill: url(#linear-gradient-3);
      }

      .cls-9 {
        fill: url(#linear-gradient-2);
      }

      .cls-10 {
        fill: url(#linear-gradient-4);
      }
    </style>
    <linearGradient id="linear-gradient" x1="135.07" y1="50.5" x2="161.77" y2="50.5" gradientUnits="userSpaceOnUse">
      <stop offset="0" stop-color="#553d00"/>
      <stop offset="0" stop-color="#fff"/>
      <stop offset="0" stop-color="#fff"/>
      <stop offset="0" stop-color="#2a0001"/>
      <stop offset="1" stop-color="#2a000f"/>
      <stop offset="1" stop-color="#000"/>
    </linearGradient>
    <radialGradient id="radial-gradient" cx="142.2" cy="27.25" fx="142.2" fy="27.25" r="6.76" gradientUnits="userSpaceOnUse">
      <stop offset="0" stop-color="#553d00"/>
      <stop offset="0" stop-color="#fff"/>
      <stop offset="0" stop-color="#fff"/>
      <stop offset="0" stop-color="#ffe8bf"/>
      <stop offset="1" stop-color="#fff"/>
    </radialGradient>
    <radialGradient id="radial-gradient-2" cx="156.41" fx="156.41" r="6.76" xlink:href="#radial-gradient"/>
    <radialGradient id="radial-gradient-3" cx="142.2" cy="27.25" fx="142.2" fy="27.25" r="3.26" gradientUnits="userSpaceOnUse">
      <stop offset=".57" stop-color="#62dabf"/>
      <stop offset="1" stop-color="#d6bcfc"/>
      <stop offset="1" stop-color="#d9bbfe"/>
    </radialGradient>
    <radialGradient id="radial-gradient-4" cx="156.41" cy="27.25" fx="156.41" fy="27.25" r="2.47" gradientUnits="userSpaceOnUse">
      <stop offset="0" stop-color="#62dabf"/>
      <stop offset=".53" stop-color="#d1bdfa"/>
      <stop offset="1" stop-color="#d6bcfc"/>
      <stop offset="1" stop-color="#d9bbfe"/>
    </radialGradient>
    <radialGradient id="radial-gradient-5" cx="142.34" cy="27.25" fx="142.34" fy="27.25" r="1.37" gradientUnits="userSpaceOnUse">
      <stop offset="0" stop-color="#553d00"/>
      <stop offset="1" stop-color="#000"/>
      <stop offset="1" stop-color="#d6bcfc"/>
      <stop offset="1" stop-color="#550015"/>
    </radialGradient>
    <radialGradient id="radial-gradient-6" cx="156.41" fx="156.41" r=".79" xlink:href="#radial-gradient-5"/>
    <radialGradient id="radial-gradient-7" cx="147.54" cy="54.45" fx="147.54" fy="54.45" r="9.78" gradientUnits="userSpaceOnUse">
      <stop offset="0" stop-color="#553d00"/>
      <stop offset="0" stop-color="#fff"/>
      <stop offset="0" stop-color="#fff"/>
      <stop offset="0" stop-color="#c20a0f"/>
      <stop offset="0" stop-color="#bf0005"/>
      <stop offset="0" stop-color="#bf0005"/>
      <stop offset=".64" stop-color="#ba0005"/>
      <stop offset="1" stop-color="#2a000f"/>
    </radialGradient>
    <radialGradient id="radial-gradient-8" cx="139.53" cy="44.61" fx="139.53" fy="44.61" r="1.78" xlink:href="#radial-gradient"/>
    <radialGradient id="radial-gradient-9" cx="139.54" cy="44.61" fx="139.54" fy="44.61" r="1.91" xlink:href="#radial-gradient"/>
    <radialGradient id="radial-gradient-10" cx="145.04" cy="44.83" fx="145.04" fy="44.83" r="1.41" xlink:href="#radial-gradient"/>
    <radialGradient id="radial-gradient-11" cx="149.83" cy="45.77" fx="149.83" fy="45.77" r="1.5" xlink:href="#radial-gradient"/>
    <radialGradient id="radial-gradient-12" cx="155.26" cy="46.88" fx="155.26" fy="46.88" r="1.47" xlink:href="#radial-gradient"/>
    <radialGradient id="radial-gradient-13" cx="155.25" cy="54.13" fx="155.25" fy="54.13" r="1.48" xlink:href="#radial-gradient"/>
    <radialGradient id="radial-gradient-14" cx="151.12" cy="56.04" fx="151.12" fy="56.04" r="1.58" xlink:href="#radial-gradient"/>
    <radialGradient id="radial-gradient-15" cx="145.49" cy="56.31" fx="145.49" fy="56.31" r="1.5" xlink:href="#radial-gradient"/>
    <radialGradient id="radial-gradient-16" cx="139.88" cy="54.08" fx="139.88" fy="54.08" r="1.61" xlink:href="#radial-gradient"/>
    <radialGradient id="radial-gradient-17" cx="159.32" cy="46.26" fx="159.32" fy="46.26" r="1.29" xlink:href="#radial-gradient"/>
    <linearGradient id="linear-gradient-2" x1="-3182.7" y1="1694.34" x2="-3181.31" y2="1694.34" gradientTransform="translate(-3068.11 1733.72) rotate(-180)" xlink:href="#linear-gradient"/>
    <linearGradient id="linear-gradient-3" x1="-3183.83" y1="1696.61" x2="-3180.11" y2="1696.61" gradientTransform="translate(-1644.2 3186.61) rotate(147.22)" xlink:href="#linear-gradient"/>
    <linearGradient id="linear-gradient-4" x1="-2716.53" y1="3475.44" x2="-2715.13" y2="3475.44" gradientTransform="translate(-3294.4 -2677.55) rotate(-90)" xlink:href="#linear-gradient"/>
    <linearGradient id="linear-gradient-5" x1="-2717.66" y1="3477.7" x2="-2713.93" y2="3477.7" gradientTransform="translate(-3829.8 1873.38) rotate(-152.59)" xlink:href="#linear-gradient"/>
  </defs>
  <g id="Layer_5" data-name="Layer 5">
    <g>
      <ellipse class="cls-26" cx="148.39" cy="41.91" rx="26.44" ry="35.65"/>
      <path class="cls-16" d="M156.89,53.38c-.18.18-.37.35-.56.51-.23.2-.46.39-.71.57-.1.07-.19.14-.29.21-.13.09-.27.18-.4.27l-.2.13c-.1.07-.21.13-.31.19-.09.05-.18.11-.27.16,0,0,0,0,0,0-.09.05-.18.1-.27.15-.09.05-.18.1-.27.14-.18.1-.37.19-.56.27-.17.08-.34.16-.52.23-.12.05-.24.1-.36.15-.04.02-.09.04-.14.05-.12.05-.25.09-.37.13-.08.03-.16.05-.24.08-.08.03-.16.05-.24.08-.08.03-.16.05-.24.07-.12.04-.24.07-.37.1-.12.03-.25.06-.37.09-.08.02-.16.04-.25.05-.13.03-.25.05-.38.07-.12.02-.25.04-.37.06h0s-.04,0-.07,0c-.09.01-.17.03-.26.04-.05,0-.1.01-.15.02-.09.01-.19.02-.28.03-.19.02-.38.03-.57.04-.07,0-.14,0-.21,0h-.05s-.1,0-.15,0c-.04,0-.07,0-.11,0-.11,0-.23,0-.34,0-.06,0-.13,0-.19,0-.07,0-.13,0-.19,0-.07,0-.15,0-.22-.01-.07,0-.15-.01-.22-.02-.07,0-.15-.01-.22-.02-.06,0-.12-.01-.17-.02-.09-.01-.18-.02-.27-.04-.11-.02-.22-.04-.33-.06-.04,0-.07-.01-.11-.02-.07-.01-.15-.03-.22-.04-.09-.02-.18-.04-.27-.06,0,0-.02,0-.03,0l-.14-.04c-.27-.07-.54-.15-.8-.24-.14-.05-.27-.1-.4-.15-.11-.04-.21-.08-.31-.13-.07-.03-.15-.06-.22-.1-.11-.05-.21-.1-.32-.15-.06-.03-.11-.06-.17-.08-.06-.03-.11-.06-.17-.09-.11-.06-.21-.12-.32-.18-.09-.05-.19-.11-.28-.17-.01,0-.02-.02-.04-.02-.33-.21-.66-.44-.98-.69-.33-.26-.65-.54-.97-.85-.42-.4-.83-.84-1.22-1.31-2.36-2.83-3.86-6.48-2.86-8.04.33-.52.96-.82,1.81-.97,1.19-.21,2.82-.12,4.68.13.42.06.86.12,1.3.19,1.19.19,2.45.42,3.72.65.32.06.65.12.98.18,1.32.24,2.64.48,3.92.67.56.09,1.12.16,1.66.23,1.3.16,2.53.25,3.62.23.22,0,.43-.01.64-.03,1.06-.07,1.96-.27,2.65-.64.19-.1.36-.22.51-.35.17-.14.69-.63.85-.49.43.38-1.38,5.48-4.82,8.8Z"/>
      <circle class="cls-5" cx="142.2" cy="27.25" r="6.76"/>
      <circle class="cls-1" cx="156.41" cy="27.25" r="6.76"/>
      <circle class="cls-15" cx="142.2" cy="27.25" r="3.26"/>
      <circle class="cls-14" cx="156.41" cy="27.25" r="2.47"/>
      <path class="cls-2" d="M160.7,22.02c0-1.98,1.6-3.58,3.58-3.58"/>
      <path class="cls-2" d="M157.11,20.49c0-1.98,1.6-3.58,3.58-3.58"/>
      <path class="cls-2" d="M137.78,22.02c0-1.98-1.6-3.58-3.58-3.58"/>
      <path class="cls-2" d="M141.36,20.49c0-1.98-1.6-3.58-3.58-3.58"/>
      <circle class="cls-13" cx="142.34" cy="27.25" r="1.37"/>
      <circle class="cls-12" cx="156.41" cy="27.25" r=".79"/>
      <path class="cls-11" d="M155.62,54.46c-.1.07-.19.14-.29.21-.13.09-.27.18-.4.27l-.2.13c-.1.07-.21.13-.31.19-.09.05-.18.11-.27.16,0,0,0,0,0,0-.09.05-.18.1-.27.15-.09.05-.18.1-.27.14-.18.1-.37.19-.56.27-.17.08-.34.16-.52.23-.12.05-.24.1-.36.15-.04.02-.09.04-.14.05-.12.05-.25.09-.37.13-.08.03-.16.05-.24.08-.08.03-.16.05-.24.08-.08.03-.16.05-.24.07-.12.04-.24.07-.37.1-.12.03-.25.06-.37.09-.08.02-.16.04-.25.05-.13.03-.25.05-.38.07-.12.02-.25.04-.37.06h0s-.04,0-.07,0c-.09.01-.17.03-.26.04-.05,0-.1.01-.15.02-.09.01-.19.02-.28.03-.19.02-.38.03-.57.04-.07,0-.14,0-.21,0h-.05s-.1,0-.15,0c-.04,0-.07,0-.11,0-.11,0-.23,0-.34,0-.06,0-.13,0-.19,0-.07,0-.13,0-.19,0-.07,0-.15,0-.22-.01-.07,0-.15-.01-.22-.02-.07,0-.15-.01-.22-.02-.06,0-.12-.01-.17-.02-.09-.01-.18-.02-.27-.04-.11-.02-.22-.04-.33-.06-.04,0-.07-.01-.11-.02-.07-.01-.15-.03-.22-.04-.09-.02-.18-.04-.27-.06,0,0-.02,0-.03,0l-.14-.04c-.27-.07-.54-.15-.8-.24-.14-.05-.27-.1-.4-.15-.11-.04-.21-.08-.31-.13-.07-.03-.15-.06-.22-.1-.11-.05-.21-.1-.32-.15-.06-.03-.11-.06-.17-.08-.06-.03-.11-.06-.17-.09-.11-.06-.21-.12-.32-.18-.09-.05-.19-.11-.28-.17-.01,0-.02-.02-.04-.02-.33-.21-.66-.44-.98-.69-.33-.26-.65-.54-.97-.85.39-.35.85-.68,1.36-.97,1.71-.97,4.01-1.57,6.54-1.57,2.75,0,5.22.7,6.96,1.83.5.32.93.67,1.3,1.06Z"/>
      <path class="cls-4" d="M141.87,43.93c-.35.94-1.26,1.61-2.32,1.61s-2.05-.73-2.36-1.74c1.19-.21,2.82-.12,4.68.13Z"/>
      <path class="cls-21" d="M146.9,44.77c-.41.47-1,.77-1.66.77-.92,0-1.71-.58-2.06-1.42,1.19.19,2.45.42,3.72.65Z"/>
      <path class="cls-23" d="M151.79,45.63c-.4.59-1.06.97-1.8.97-.99,0-1.83-.69-2.12-1.65,1.32.24,2.64.48,3.92.67Z"/>
      <path class="cls-18" d="M157.07,46.09c-.26,1.06-.96,1.81-1.78,1.81-.89,0-1.63-.87-1.83-2.04,1.3.16,2.53.25,3.62.23Z"/>
      <path class="cls-20" d="M156.89,53.38c-.18.18-.37.35-.56.51-.23.2-.46.39-.71.57-.1.07-.19.14-.29.21-.13.09-.27.18-.4.27l-.2.13c-.1.07-.21.13-.31.19-.09.05-.18.11-.27.16,0,0,0,0,0,0-.18,0-.35,0-.53,0,0-.04,0-.09,0-.13,0-.75.28-1.43.71-1.88.35-.36.81-.58,1.3-.58s.93.21,1.28.56Z"/>
      <path class="cls-19" d="M153.05,55.99c-.17.08-.34.16-.52.23-.12.05-.24.1-.36.15-.04.02-.09.04-.14.05-.12.05-.25.09-.37.13-.08.03-.16.05-.24.08-.08.03-.16.05-.24.08-.08.03-.16.05-.24.07-.12.04-.24.07-.37.1-.12.03-.25.06-.37.09-.08.02-.16.04-.25.05-.13.03-.25.05-.38.07-.12.02-.25.04-.37.06h0c.06-1.25.97-2.25,2.09-2.25.74,0,1.38.43,1.76,1.08Z"/>
      <path class="cls-24" d="M147.35,57.32c-.11,0-.23,0-.34,0-.06,0-.13,0-.19,0-.07,0-.13,0-.19,0-.07,0-.15,0-.22-.01-.07,0-.15-.01-.22-.02-.07,0-.15-.01-.22-.02-.06,0-.12-.01-.17-.02-.09-.01-.18-.02-.27-.04-.11-.02-.22-.04-.33-.06-.04,0-.07-.01-.11-.02-.07-.01-.15-.03-.22-.04-.09-.02-.18-.04-.27-.06,0,0-.02,0-.03,0l-.14-.04c-.27-.07-.54-.15-.8-.24.31-.83.99-1.41,1.79-1.41.97,0,1.78.87,1.94,2.01Z"/>
      <path class="cls-17" d="M141.52,54.89c0,.27-.04.52-.12.76-.33-.21-.66-.44-.98-.69-.33-.26-.65-.54-.97-.85-.42-.4-.83-.84-1.22-1.31.32-.19.68-.29,1.07-.29.58,0,1.11.24,1.51.63.43.43.71,1.05.71,1.74Z"/>
      <path class="cls-22" d="M160.95,45.74c-.09.53-.37.97-.83,1.21-.8.41-1.83.01-2.42-.89,1.06-.07,1.96-.27,2.65-.64.1.03.21.07.33.12.09.07.18.13.27.21Z"/>
      <line class="cls-6" x1="138.15" y1="74.18" x2="138.15" y2="97.19"/>
      <line class="cls-6" x1="158.9" y1="74.73" x2="158.9" y2="97.74"/>
      <g>
        <line class="cls-3" x1="130.64" y1="65.45" x2="113.24" y2="38.43"/>
        <rect class="cls-9" x="113.2" y="38.97" width="1.39" height=".81" transform="translate(-3.18 67.93) rotate(-32.78)"/>
        <path class="cls-8" d="M111.07,38.49c-.56-.86-.31-2.02.56-2.57s2.02-.31,2.57.56.31,2.02-.56,2.58-2.02.31-2.58-.56Z"/>
      </g>
      <g>
        <line class="cls-3" x1="166.74" y1="65.77" x2="181.53" y2="37.25"/>
        <rect class="cls-10" x="180.63" y="37.58" width=".81" height="1.39" transform="translate(63.72 181.37) rotate(-62.59)"/>
        <path class="cls-7" d="M180.39,35.39c.47-.91,1.6-1.27,2.51-.79s1.27,1.6.8,2.51-1.6,1.27-2.51.8-1.27-1.6-.8-2.51Z"/>
      </g>
    </g>
  </g>
  <g id="Layer_9" data-name="Layer 9">
    <circle class="cls-25" cx="35.25" cy="76.63" r="21.11"/>
    <circle class="cls-25" cx="91.3" cy="76.63" r="21.11"/>
  </g>
</svg>