<?xml version="1.0" encoding="UTF-8"?>
<svg id="Layer_9" data-name="Layer 9" xmlns="http://www.w3.org/2000/svg" xmlns:xlink="http://www.w3.org/1999/xlink" viewBox="0 0 188.86 107.4">
  <defs>
    <style>
      .cls-1 {
        fill: url(#radial-gradient-2);
      }

      .cls-1, .cls-2, .cls-3, .cls-4, .cls-5, .cls-6, .cls-7, .cls-8, .cls-9, .cls-10 {
        stroke-miterlimit: 10;
      }

      .cls-1, .cls-2, .cls-4, .cls-5 {
        stroke-width: .23px;
      }

      .cls-1, .cls-2, .cls-5 {
        stroke: #f97dcd;
      }

      .cls-11 {
        fill: url(#radial-gradient-7);
      }

      .cls-12 {
        fill: url(#radial-gradient-6);
      }

      .cls-13 {
        fill: url(#radial-gradient-5);
      }

      .cls-14 {
        fill: url(#radial-gradient-4);
      }

      .cls-15 {
        fill: url(#radial-gradient-3);
      }

      .cls-2, .cls-3, .cls-10 {
        fill: none;
      }

      .cls-3 {
        stroke-width: 1.39px;
      }

      .cls-3, .cls-10 {
        stroke: #d9bbfe;
        stroke-linecap: round;
      }

      .cls-4 {
        fill: url(#radial-gradient-8);
        stroke: url(#radial-gradient-9);
      }

      .cls-16 {
        fill: url(#linear-gradient);
      }

      .cls-5 {
        fill: url(#radial-gradient);
      }

      .cls-17 {
        fill: url(#radial-gradient-16);
      }

      .cls-18 {
        fill: url(#radial-gradient-12);
      }

      .cls-19 {
        fill: url(#radial-gradient-14);
      }

      .cls-20 {
        fill: url(#radial-gradient-13);
      }

      .cls-21 {
        fill: url(#radial-gradient-10);
      }

      .cls-22 {
        fill: url(#radial-gradient-17);
      }

      .cls-23 {
        fill: url(#radial-gradient-11);
      }

      .cls-24 {
        fill: url(#radial-gradient-15);
      }

      .cls-25 {
        fill: #f97dcd;
      }

      .cls-26 {
        fill: #d9bbfe;
      }

      .cls-6 {
        fill: url(#linear-gradient-6);
        stroke: url(#linear-gradient-7);
      }

      .cls-6, .cls-7, .cls-8, .cls-9 {
        stroke-width: .27px;
      }

      .cls-7 {
        fill: url(#linear-gradient-4);
        stroke: url(#linear-gradient-5);
      }

      .cls-8 {
        fill: url(#linear-gradient-2);
        stroke: url(#linear-gradient-3);
      }

      .cls-9 {
        fill: url(#linear-gradient-8);
        stroke: url(#linear-gradient-9);
      }

      .cls-10 {
        stroke-width: 5.57px;
      }
    </style>
    <radialGradient id="radial-gradient" cx="91.06" cy="24.19" fx="91.06" fy="24.19" r="6.72" gradientUnits="userSpaceOnUse">
      <stop offset="0" stop-color="#553d00"/>
      <stop offset="0" stop-color="#fff"/>
      <stop offset="0" stop-color="#fff"/>
      <stop offset="0" stop-color="#ffe8bf"/>
      <stop offset="1" stop-color="#fff"/>
    </radialGradient>
    <radialGradient id="radial-gradient-2" cx="105.19" fx="105.19" xlink:href="#radial-gradient"/>
    <radialGradient id="radial-gradient-3" cx="91.06" cy="24.19" fx="91.06" fy="24.19" r="3.24" gradientUnits="userSpaceOnUse">
      <stop offset=".57" stop-color="#62dabf"/>
      <stop offset="1" stop-color="#d6bcfc"/>
      <stop offset="1" stop-color="#d9bbfe"/>
    </radialGradient>
    <radialGradient id="radial-gradient-4" cx="105.19" cy="24.19" fx="105.19" fy="24.19" r="2.45" gradientUnits="userSpaceOnUse">
      <stop offset="0" stop-color="#62dabf"/>
      <stop offset=".53" stop-color="#d1bdfa"/>
      <stop offset="1" stop-color="#d6bcfc"/>
      <stop offset="1" stop-color="#d9bbfe"/>
    </radialGradient>
    <radialGradient id="radial-gradient-5" cx="91.06" cy="24.19" fx="91.06" fy="24.19" r="1.36" gradientUnits="userSpaceOnUse">
      <stop offset="0" stop-color="#553d00"/>
      <stop offset="1" stop-color="#000"/>
      <stop offset="1" stop-color="#d6bcfc"/>
      <stop offset="1" stop-color="#550015"/>
    </radialGradient>
    <radialGradient id="radial-gradient-6" cx="105.19" fx="105.19" r=".78" xlink:href="#radial-gradient-5"/>
    <linearGradient id="linear-gradient" x1="82.96" y1="44.08" x2="114.33" y2="44.08" gradientUnits="userSpaceOnUse">
      <stop offset="0" stop-color="#553d00"/>
      <stop offset="0" stop-color="#fff"/>
      <stop offset="0" stop-color="#fff"/>
      <stop offset="0" stop-color="#2a0001"/>
      <stop offset="1" stop-color="#2a000f"/>
      <stop offset="1" stop-color="#000"/>
    </linearGradient>
    <radialGradient id="radial-gradient-7" cx="97.93" cy="47.35" fx="97.93" fy="47.35" r="11.42" gradientUnits="userSpaceOnUse">
      <stop offset="0" stop-color="#553d00"/>
      <stop offset="0" stop-color="#fff"/>
      <stop offset="0" stop-color="#fff"/>
      <stop offset="0" stop-color="#c20a0f"/>
      <stop offset="0" stop-color="#bf0005"/>
      <stop offset="0" stop-color="#bf0005"/>
      <stop offset=".64" stop-color="#ba0005"/>
      <stop offset="1" stop-color="#2a000f"/>
    </radialGradient>
    <radialGradient id="radial-gradient-8" cx="88.14" cy="39.56" fx="88.14" fy="39.56" r="2.18" xlink:href="#radial-gradient"/>
    <radialGradient id="radial-gradient-9" cx="88.14" cy="39.56" fx="88.14" fy="39.56" r="2.29" xlink:href="#radial-gradient"/>
    <radialGradient id="radial-gradient-10" cx="94.66" cy="39.13" fx="94.66" fy="39.13" r="1.95" xlink:href="#radial-gradient"/>
    <radialGradient id="radial-gradient-11" cx="100.79" cy="39.45" fx="100.79" fy="39.45" r="1.94" xlink:href="#radial-gradient"/>
    <radialGradient id="radial-gradient-12" cx="107.07" cy="40.27" fx="107.07" fy="40.27" r="1.85" xlink:href="#radial-gradient"/>
    <radialGradient id="radial-gradient-13" cx="107.07" cy="48.96" fx="107.07" fy="48.96" r="1.84" xlink:href="#radial-gradient"/>
    <radialGradient id="radial-gradient-14" cx="100.79" cy="48.93" fx="100.79" fy="48.93" r="1.83" xlink:href="#radial-gradient"/>
    <radialGradient id="radial-gradient-15" cx="95.07" cy="48.75" fx="95.07" fy="48.75" r="1.71" xlink:href="#radial-gradient"/>
    <radialGradient id="radial-gradient-16" cx="88.51" cy="48.26" fx="88.51" fy="48.26" r="1.9" xlink:href="#radial-gradient"/>
    <radialGradient id="radial-gradient-17" cx="112.35" cy="42.29" fx="112.35" fy="42.29" r="1.66" xlink:href="#radial-gradient"/>
    <linearGradient id="linear-gradient-2" x1="71.6" y1="70.26" x2="72.98" y2="70.26" xlink:href="#linear-gradient"/>
    <linearGradient id="linear-gradient-3" x1="71.46" y1="70.26" x2="73.12" y2="70.26" xlink:href="#linear-gradient"/>
    <linearGradient id="linear-gradient-4" x1="70.47" y1="72.52" x2="74.18" y2="72.52" xlink:href="#linear-gradient"/>
    <linearGradient id="linear-gradient-5" x1="70.33" y1="72.52" x2="74.31" y2="72.52" xlink:href="#linear-gradient"/>
    <linearGradient id="linear-gradient-6" x1="122.73" y1="70.26" x2="124.12" y2="70.26" xlink:href="#linear-gradient"/>
    <linearGradient id="linear-gradient-7" x1="122.59" y1="70.26" x2="124.25" y2="70.26" xlink:href="#linear-gradient"/>
    <linearGradient id="linear-gradient-8" x1="121.6" y1="72.52" x2="125.31" y2="72.52" xlink:href="#linear-gradient"/>
    <linearGradient id="linear-gradient-9" x1="121.47" y1="72.52" x2="125.45" y2="72.52" xlink:href="#linear-gradient"/>
  </defs>
  <circle class="cls-25" cx="35.25" cy="73.17" r="21.11"/>
  <circle class="cls-25" cx="158.3" cy="73.17" r="21.11"/>
  <g>
    <ellipse class="cls-26" cx="97.77" cy="39.67" rx="26.29" ry="35.45"/>
    <circle class="cls-5" cx="91.06" cy="24.19" r="6.72"/>
    <circle class="cls-1" cx="105.19" cy="24.19" r="6.72"/>
    <circle class="cls-15" cx="91.06" cy="24.19" r="3.24"/>
    <circle class="cls-14" cx="105.19" cy="24.19" r="2.45"/>
    <path class="cls-2" d="M109.44,19c0-1.97,1.59-3.56,3.56-3.56"/>
    <path class="cls-2" d="M105.88,17.48c0-1.97,1.59-3.56,3.56-3.56"/>
    <path class="cls-2" d="M86.66,19c0-1.97-1.59-3.56-3.56-3.56"/>
    <path class="cls-2" d="M90.22,17.48c0-1.97-1.59-3.56-3.56-3.56"/>
    <circle class="cls-13" cx="91.06" cy="24.19" r="1.36"/>
    <circle class="cls-12" cx="105.19" cy="24.19" r=".78"/>
    <path class="cls-16" d="M114.18,46.48c-.65,2.1-3.21,3-5.12,3.51-.29.08-.57.15-.83.21-.31.08-.61.14-.89.2-.79.15-1.48.21-2.13.22-.81.01-1.57-.06-2.43-.15-1.1-.12-2.34-.26-4.04-.31-.53-.01-1.11-.02-1.73,0h-.08c-1.49.03-2.73.02-3.79-.03-1.02-.05-1.87-.14-2.61-.26-.79-.13-1.45-.3-2.06-.51-.57-.2-1.09-.43-1.62-.69-.17-.08-.34-.17-.5-.27-3.27-1.91-4.29-5.61-2.54-8.45.45-.73,1.1-1.21,1.94-1.53,1.17-.46,2.7-.61,4.52-.71.71-.04,1.47-.07,2.26-.1.15,0,.3-.01.45-.02.72-.03.7-.12,3.85.11.53.04,1.15.09,1.88.15.96.08,2.1.17,3.48.29.27.02.53.05.78.07.85.07,1.61.15,2.34.25,1.11.16,2.14.39,3.33.81.11.04.21.08.32.11.98.37,1.74.75,2.33,1.11,1.24.76,1.73,1.43,1.9,1.68.1.15.41.6.69,1.23.36.83.66,1.96.31,3.09Z"/>
    <path class="cls-11" d="M107.39,49.8c0,.2-.02.4-.05.6-3.44.65-4.9-.35-10.41-.24-4.46.09-6.68-.2-8.46-.81.38-2.95,4.46-5.27,9.44-5.27,5.23,0,9.47,2.56,9.47,5.72Z"/>
    <path class="cls-4" d="M90.6,38.95c0,1.36-1.1,2.46-2.46,2.46s-2.46-1.1-2.46-2.46c0-.19.02-.37.06-.54,1.17-.46,2.7-.61,4.52-.71.22.36.34.79.34,1.25Z"/>
    <path class="cls-21" d="M96.91,38.34c0,1.32-1.01,2.38-2.25,2.38s-2.25-1.07-2.25-2.38c0-.26.04-.5.11-.73.15,0,.3-.01.45-.02.72-.03.7-.12,3.85.11.05.21.08.42.08.65Z"/>
    <path class="cls-23" d="M103.01,38.69c0,1.32-1,2.38-2.22,2.38s-2.22-1.07-2.22-2.38c0-.3.05-.59.14-.85.96.08,2.1.17,3.48.29.27.02.53.05.78.07.03.16.05.32.05.49Z"/>
    <path class="cls-18" d="M108.95,39.38h0c0,1.5-.84,2.71-1.88,2.71s-1.88-1.21-1.88-2.7c0-.33.04-.65.12-.94,1.11.16,2.14.39,3.33.81.11.04.21.08.32.11Z"/>
    <path class="cls-20" d="M109.07,49.76c0,.08,0,.16,0,.23-.29.08-.57.15-.83.21-.31.08-.61.14-.89.2-.79.15-1.48.21-2.13.22-.08-.27-.13-.56-.13-.87,0-1.35.89-2.45,2-2.45s2,1.1,2,2.45Z"/>
    <path class="cls-19" d="M102.88,49.75c0,.25-.03.49-.1.72-1.1-.12-2.34-.26-4.04-.31-.02-.13-.03-.27-.03-.41,0-1.3.93-2.36,2.08-2.36s2.08,1.06,2.08,2.36Z"/>
    <path class="cls-24" d="M97.03,49.75c0,.14,0,.28-.03.41h-.08c-1.49.03-2.73.02-3.79-.03-.02-.12-.02-.25-.02-.37,0-1.34.88-2.42,1.96-2.42s1.96,1.08,1.96,2.42Z"/>
    <path class="cls-17" d="M90.67,49.02c0,.3-.05.58-.14.84-.79-.13-1.45-.3-2.06-.51-.57-.2-1.09-.43-1.62-.69-.17-.08-.34-.17-.5-.27.26-1,1.11-1.73,2.12-1.73,1.22,0,2.2,1.06,2.2,2.36Z"/>
    <path class="cls-22" d="M113.86,43.4c-.32.42-.77.69-1.28.69-.96,0-1.75-.97-1.75-2.16,0-.55.17-1.05.44-1.44,1.24.76,1.73,1.43,1.9,1.68.1.15.41.6.69,1.23Z"/>
    <line class="cls-10" x1="87.03" y1="70.86" x2="87.03" y2="93.74"/>
    <line class="cls-10" x1="107.66" y1="71.4" x2="107.66" y2="94.28"/>
    <line class="cls-3" x1="72.32" y1="39.45" x2="72.32" y2="71.4"/>
    <rect class="cls-8" x="71.6" y="69.86" width="1.39" height=".81"/>
    <path class="cls-7" d="M74.18,72.52c0,1.02-.83,1.85-1.85,1.85s-1.85-.83-1.85-1.85.83-1.85,1.85-1.85,1.85.83,1.85,1.85Z"/>
    <line class="cls-3" x1="123.46" y1="39.45" x2="123.46" y2="71.4"/>
    <rect class="cls-6" x="122.73" y="69.86" width="1.39" height=".81"/>
    <path class="cls-9" d="M125.31,72.52c0,1.02-.83,1.85-1.85,1.85s-1.85-.83-1.85-1.85.83-1.85,1.85-1.85,1.85.83,1.85,1.85Z"/>
  </g>
</svg>